<?xml version="1.0" encoding="UTF-8"?> <svg xmlns="http://www.w3.org/2000/svg" width="288" height="238" viewBox="0 0 288 238" fill="none"><path d="M140.699 110.21C140.699 140.147 132.783 167.112 120.142 186.502C107.483 205.919 90.3436 217.42 71.8497 217.42C53.3557 217.42 36.2163 205.919 23.5575 186.502C10.9166 167.112 3.00012 140.147 3.00012 110.21C3.00012 80.2726 10.9166 53.3079 23.5575 33.9181C36.2163 14.5008 53.3557 3 71.8497 3C90.3436 3 107.483 14.5008 120.142 33.9181C132.783 53.3079 140.699 80.2726 140.699 110.21Z" fill="white" stroke="#272F42" stroke-width="6"></path><path d="M284.398 110.21C284.398 140.147 276.482 167.112 263.841 186.502C251.182 205.919 234.043 217.42 215.549 217.42C197.055 217.42 179.915 205.919 167.257 186.502C154.616 167.112 146.699 140.147 146.699 110.21C146.699 80.2726 154.616 53.3079 167.257 33.9181C179.915 14.5008 197.055 3 215.549 3C234.043 3 251.182 14.5008 263.841 33.9181C276.482 53.3079 284.398 80.2726 284.398 110.21Z" fill="white" stroke="#272F42" stroke-width="6"></path><path d="M166 217C183.696 231.338 229.07 251.411 269 217" stroke="#272F42" stroke-width="4" stroke-linecap="round"></path><path d="M120 217C102.304 231.338 56.9295 251.411 17 217" stroke="#272F42" stroke-width="4" stroke-linecap="round"></path></svg> 