<svg width="199" height="262" viewBox="0 0 199 262" fill="none" xmlns="http://www.w3.org/2000/svg">
<path d="M1.40584 13.8729C1.49488 6.80239 7.2589 1.18457 14.3508 1.18457H169.35C176.367 1.18457 182.113 6.64892 182.397 13.6453C184.015 53.5562 189.187 172.205 196.218 245.149C196.956 252.803 191.013 259.492 183.333 259.624C98.0822 261.092 48.7659 261.806 22.6125 258.111C18.0207 257.462 14.396 254.112 13.3543 249.584C6.84371 221.285 3.71168 173.326 2.28297 126.888C0.855355 80.4848 1.13071 35.7199 1.40584 13.8729Z" fill="#FCFCF5" stroke="#272F42" stroke-width="2.36905"/>
<path d="M2 22.2715H184" stroke="#272F42" stroke-opacity="0.35" stroke-width="0.7"/>
<path d="M11 238.116H196" stroke="#272F42" stroke-opacity="0.35" stroke-width="0.7"/>
<path d="M2 40.1797H184" stroke="#272F42" stroke-opacity="0.35" stroke-width="0.7"/>
<path d="M3 60.916H185" stroke="#272F42" stroke-opacity="0.35" stroke-width="0.7"/>
<path d="M3 80.71H186" stroke="#272F42" stroke-opacity="0.35" stroke-width="0.7"/>
<path d="M3 100.503H187" stroke="#272F42" stroke-opacity="0.35" stroke-width="0.7"/>
<path d="M3 120.297H188" stroke="#272F42" stroke-opacity="0.35" stroke-width="0.7"/>
<path d="M4 139.148H189" stroke="#272F42" stroke-opacity="0.35" stroke-width="0.7"/>
<path d="M4 158.942H190" stroke="#272F42" stroke-opacity="0.35" stroke-width="0.7"/>
<path d="M4 178.735H191" stroke="#272F42" stroke-opacity="0.35" stroke-width="0.7"/>
<path d="M6 198.529H193" stroke="#272F42" stroke-opacity="0.35" stroke-width="0.7"/>
<path d="M8 218.322H194" stroke="#272F42" stroke-opacity="0.35" stroke-width="0.7"/>
<path d="M20.4453 39V29.25H17.1094V27.5547H25.8906V29.25H22.5703V39H20.4453ZM30.4219 37.6094C31.1146 37.6094 31.6354 37.3568 31.9844 36.8516C32.3333 36.3464 32.5078 35.6224 32.5078 34.6797C32.5078 33.7266 32.3333 33 31.9844 32.5C31.6354 32 31.1094 31.75 30.4062 31.75C29.7135 31.75 29.1901 32.0026 28.8359 32.5078C28.487 33.0078 28.3125 33.7344 28.3125 34.6875C28.3125 35.625 28.4896 36.3464 28.8438 36.8516C29.1979 37.3568 29.724 37.6094 30.4219 37.6094ZM30.3672 39.1641C29.0964 39.1641 28.0964 38.7526 27.3672 37.9297C26.638 37.1068 26.2734 36.0234 26.2734 34.6797C26.2734 33.2943 26.638 32.2031 27.3672 31.4062C28.0964 30.6042 29.125 30.2031 30.4531 30.2031C31.7344 30.2031 32.737 30.612 33.4609 31.4297C34.1901 32.2422 34.5547 33.3255 34.5547 34.6797C34.5547 36.0495 34.1875 37.1406 33.4531 37.9531C32.7188 38.7604 31.6901 39.1641 30.3672 39.1641ZM35.9688 39.0469V36.9766H38.0391V39.0469H35.9688ZM35.9688 32.4297V30.3594H38.0391V32.4297H35.9688Z" fill="#272F42"/>
<path d="M164.294 182H49V215.167H164.294V182Z" stroke="#FA7070" stroke-width="2.36905"/>
<path d="M19.412 60.82C19.148 60.82 18.914 60.736 18.71 60.568C18.518 60.388 18.422 60.166 18.422 59.902C18.422 59.506 18.434 59.122 18.458 58.75C18.494 58.378 18.512 58 18.512 57.616V56.428C18.512 55.936 18.494 55.45 18.458 54.97C18.434 54.478 18.356 53.992 18.224 53.512C18.176 53.368 18.134 53.218 18.098 53.062C18.074 52.894 18.062 52.726 18.062 52.558C18.062 52.318 18.122 52.078 18.242 51.838C18.362 51.586 18.578 51.46 18.89 51.46C19.142 51.46 19.346 51.556 19.502 51.748C19.658 51.928 19.778 52.156 19.862 52.432C19.946 52.696 20.006 52.966 20.042 53.242C20.09 53.506 20.132 53.728 20.168 53.908C20.192 54.064 20.228 54.232 20.276 54.412C20.324 54.592 20.348 54.766 20.348 54.934C20.348 54.946 20.36 54.982 20.384 55.042C20.408 55.102 20.432 55.162 20.456 55.222C20.612 54.946 20.786 54.646 20.978 54.322C21.182 53.986 21.404 53.674 21.644 53.386C21.896 53.086 22.172 52.84 22.472 52.648C22.784 52.456 23.126 52.36 23.498 52.36C23.882 52.36 24.17 52.456 24.362 52.648C24.566 52.828 24.728 53.056 24.848 53.332C24.968 53.596 25.088 53.86 25.208 54.124C25.256 54.244 25.286 54.37 25.298 54.502C25.31 54.622 25.34 54.748 25.388 54.88L25.586 54.592C25.826 54.256 26.096 53.89 26.396 53.494C26.708 53.086 27.056 52.738 27.44 52.45C27.824 52.15 28.256 52 28.736 52C29.12 52 29.444 52.114 29.708 52.342C29.984 52.558 30.206 52.84 30.374 53.188C30.554 53.536 30.686 53.896 30.77 54.268C30.854 54.64 30.896 54.982 30.896 55.294V59.11C30.896 59.29 30.866 59.488 30.806 59.704C30.758 59.908 30.668 60.088 30.536 60.244C30.404 60.388 30.218 60.46 29.978 60.46C29.702 60.46 29.48 60.364 29.312 60.172C29.144 59.98 29.06 59.776 29.06 59.56V56.284C29.06 56.248 29.054 56.17 29.042 56.05C29.03 55.93 29.012 55.804 28.988 55.672C28.976 55.54 28.97 55.444 28.97 55.384C28.97 55.288 28.958 55.138 28.934 54.934C28.91 54.73 28.862 54.538 28.79 54.358C28.718 54.178 28.61 54.088 28.466 54.088H28.304C27.944 54.4 27.674 54.7 27.494 54.988C27.314 55.264 27.176 55.54 27.08 55.816C26.984 56.092 26.894 56.386 26.81 56.698C26.726 56.998 26.606 57.328 26.45 57.688C26.366 58 26.228 58.294 26.036 58.57C25.856 58.834 25.604 58.966 25.28 58.966C24.968 58.966 24.728 58.882 24.56 58.714C24.404 58.534 24.284 58.318 24.2 58.066C24.128 57.814 24.068 57.574 24.02 57.346C23.996 57.238 23.954 57.058 23.894 56.806C23.834 56.554 23.768 56.278 23.696 55.978C23.636 55.678 23.576 55.396 23.516 55.132C23.456 54.856 23.414 54.652 23.39 54.52C23.318 54.412 23.246 54.358 23.174 54.358C23.066 54.358 22.952 54.436 22.832 54.592C22.712 54.748 22.622 54.898 22.562 55.042C22.49 55.15 22.388 55.342 22.256 55.618C22.124 55.882 21.998 56.14 21.878 56.392C21.77 56.644 21.698 56.812 21.662 56.896C21.638 56.968 21.566 57.142 21.446 57.418C21.338 57.694 21.212 58.012 21.068 58.372C20.924 58.72 20.792 59.038 20.672 59.326C20.552 59.614 20.474 59.806 20.438 59.902C20.318 60.13 20.192 60.34 20.06 60.532C19.94 60.724 19.724 60.82 19.412 60.82ZM35.6486 65.716C35.4326 65.716 35.2706 65.608 35.1626 65.392C35.0546 65.188 35.0006 64.984 35.0006 64.78C35.0006 64.396 35.0846 64.03 35.2526 63.682C35.4206 63.346 35.5706 63.004 35.7026 62.656C35.7626 62.5 35.8346 62.296 35.9186 62.044C36.0146 61.804 36.1046 61.558 36.1886 61.306C36.2846 61.054 36.3626 60.838 36.4226 60.658C36.4826 60.478 36.5126 60.376 36.5126 60.352V60.298C35.8526 60.25 35.3006 60.076 34.8566 59.776C34.4126 59.476 34.0586 59.098 33.7946 58.642C33.5306 58.186 33.3326 57.688 33.2006 57.148C33.0686 56.596 32.9786 56.038 32.9306 55.474C32.8946 54.91 32.8766 54.382 32.8766 53.89C32.8766 53.734 32.8826 53.53 32.8946 53.278C32.9066 53.014 32.9366 52.75 32.9846 52.486C33.0446 52.222 33.1346 52 33.2546 51.82C33.3866 51.64 33.5666 51.55 33.7946 51.55C34.2386 51.55 34.5266 51.712 34.6586 52.036C34.8026 52.36 34.8746 52.714 34.8746 53.098C34.8746 53.362 34.8566 53.608 34.8206 53.836C34.7966 54.064 34.7846 54.316 34.7846 54.592V54.772C34.7846 54.856 34.8026 55.036 34.8386 55.312C34.8746 55.588 34.9106 55.87 34.9466 56.158C34.9946 56.446 35.0306 56.662 35.0546 56.806C35.1146 57.202 35.2346 57.55 35.4146 57.85C35.5946 58.138 35.8466 58.282 36.1706 58.282C36.5546 58.282 36.8906 58.132 37.1786 57.832C37.4786 57.532 37.7426 57.142 37.9706 56.662C38.2106 56.182 38.4386 55.678 38.6546 55.15C38.8706 54.61 39.0866 54.1 39.3026 53.62C39.5186 53.14 39.7526 52.75 40.0046 52.45C40.2686 52.15 40.5626 52 40.8866 52C41.4266 52 41.6966 52.3 41.6966 52.9C41.6966 53.308 41.6306 53.698 41.4986 54.07C41.3786 54.442 41.2226 54.802 41.0306 55.15C40.8506 55.498 40.6586 55.84 40.4546 56.176C40.2506 56.512 40.0706 56.854 39.9146 57.202C39.4346 58.222 38.9906 59.272 38.5826 60.352C38.1866 61.42 37.8026 62.494 37.4306 63.574C37.3346 63.85 37.2146 64.156 37.0706 64.492C36.9266 64.828 36.7406 65.116 36.5126 65.356C36.2966 65.596 36.0086 65.716 35.6486 65.716ZM46.8824 61.27C46.5464 61.27 46.1624 61.24 45.7304 61.18C45.2984 61.132 44.8784 61.036 44.4704 60.892C44.0624 60.748 43.7204 60.532 43.4444 60.244C43.1804 59.956 43.0484 59.578 43.0484 59.11C43.0484 58.798 43.1264 58.528 43.2824 58.3C43.4384 58.06 43.6904 57.94 44.0384 57.94C44.2544 57.94 44.4224 57.994 44.5424 58.102C44.6624 58.21 44.7644 58.342 44.8484 58.498C44.9444 58.654 45.0524 58.816 45.1724 58.984C45.3044 59.14 45.4784 59.272 45.6944 59.38C45.9224 59.488 46.2284 59.542 46.6124 59.542C46.8884 59.542 47.1884 59.512 47.5124 59.452C47.8484 59.38 48.1364 59.254 48.3764 59.074C48.6164 58.894 48.7364 58.648 48.7364 58.336C48.7364 58.06 48.6224 57.844 48.3944 57.688C48.1664 57.52 47.8724 57.376 47.5124 57.256C47.1524 57.136 46.7744 57.016 46.3784 56.896C45.9824 56.764 45.6044 56.602 45.2444 56.41C44.8844 56.218 44.5904 55.966 44.3624 55.654C44.1344 55.33 44.0204 54.916 44.0204 54.412C44.0204 53.944 44.1344 53.542 44.3624 53.206C44.5904 52.87 44.8844 52.594 45.2444 52.378C45.6164 52.15 46.0124 51.988 46.4324 51.892C46.8644 51.784 47.2784 51.73 47.6744 51.73C47.9024 51.73 48.1664 51.76 48.4664 51.82C48.7664 51.868 49.0604 51.952 49.3484 52.072C49.6364 52.192 49.8764 52.36 50.0684 52.576C50.2604 52.78 50.3564 53.038 50.3564 53.35C50.3564 53.902 50.0804 54.178 49.5284 54.178H49.2944C48.9344 53.974 48.6284 53.818 48.3764 53.71C48.1244 53.602 47.8364 53.548 47.5124 53.548C47.3684 53.548 47.1644 53.566 46.9004 53.602C46.6484 53.626 46.4204 53.692 46.2164 53.8C46.0124 53.908 45.9104 54.082 45.9104 54.322C45.9104 54.526 46.0244 54.694 46.2524 54.826C46.4804 54.958 46.7744 55.084 47.1344 55.204C47.4944 55.324 47.8724 55.456 48.2684 55.6C48.6644 55.744 49.0424 55.93 49.4024 56.158C49.7624 56.374 50.0564 56.65 50.2844 56.986C50.5124 57.322 50.6264 57.742 50.6264 58.246C50.6264 58.978 50.4404 59.566 50.0684 60.01C49.7084 60.454 49.2404 60.778 48.6644 60.982C48.1004 61.174 47.5064 61.27 46.8824 61.27ZM57.1591 61.27C56.2951 61.27 55.4971 61.138 54.7651 60.874C54.0451 60.598 53.4631 60.166 53.0191 59.578C52.5751 58.978 52.3531 58.204 52.3531 57.256C52.3531 56.536 52.4671 55.834 52.6951 55.15C52.9351 54.466 53.2771 53.848 53.7211 53.296C54.1651 52.732 54.6991 52.288 55.3231 51.964C55.9471 51.628 56.6491 51.46 57.4291 51.46C57.9571 51.46 58.4491 51.568 58.9051 51.784C59.3731 51.988 59.7451 52.294 60.0211 52.702C60.3091 53.098 60.4531 53.584 60.4531 54.16C60.4531 54.712 60.3391 55.24 60.1111 55.744C59.8831 56.248 59.5711 56.698 59.1751 57.094C58.7791 57.49 58.3291 57.802 57.8251 58.03C57.3331 58.246 56.8171 58.354 56.2771 58.354C56.1931 58.354 56.0071 58.336 55.7191 58.3C55.4311 58.252 55.2031 58.204 55.0351 58.156C54.9151 58.132 54.8191 58.084 54.7471 58.012C54.7231 58 54.6811 57.982 54.6211 57.958C54.5611 57.922 54.5191 57.904 54.4951 57.904C54.5791 58.252 54.7531 58.546 55.0171 58.786C55.2931 59.014 55.6051 59.182 55.9531 59.29C56.3131 59.398 56.6551 59.452 56.9791 59.452C57.2071 59.452 57.4351 59.44 57.6631 59.416C57.9031 59.38 58.1551 59.362 58.4191 59.362C58.6831 59.362 58.9111 59.434 59.1031 59.578C59.2951 59.722 59.3911 59.956 59.3911 60.28C59.3911 60.544 59.3071 60.748 59.1391 60.892C58.9831 61.036 58.7791 61.132 58.5271 61.18C58.2871 61.228 58.0411 61.252 57.7891 61.252C57.5491 61.264 57.3391 61.27 57.1591 61.27ZM56.2771 56.266C56.6371 56.266 56.9911 56.2 57.3391 56.068C57.6991 55.924 57.9931 55.714 58.2211 55.438C58.4611 55.162 58.5811 54.82 58.5811 54.412C58.5811 54.064 58.4731 53.788 58.2571 53.584C58.0531 53.38 57.7771 53.278 57.4291 53.278C57.1171 53.278 56.7871 53.362 56.4391 53.53C56.0911 53.698 55.7611 53.914 55.4491 54.178C55.1491 54.442 54.9031 54.73 54.7111 55.042C54.5191 55.342 54.4231 55.636 54.4231 55.924V55.996C54.7351 56.044 55.0471 56.104 55.3591 56.176C55.6711 56.236 55.9771 56.266 56.2771 56.266ZM64.0299 61.09C63.7539 61.09 63.5439 61 63.3999 60.82C63.2679 60.628 63.1779 60.394 63.1299 60.118C63.0939 59.842 63.0759 59.56 63.0759 59.272C63.0759 59.128 63.0759 58.99 63.0759 58.858C63.0879 58.714 63.0939 58.582 63.0939 58.462C63.0939 58.174 63.0999 57.73 63.1119 57.13C63.1239 56.53 63.1419 55.846 63.1659 55.078C63.1899 54.298 63.2199 53.488 63.2559 52.648C63.2919 51.808 63.3399 50.998 63.3999 50.218C63.4719 49.438 63.5499 48.754 63.6339 48.166C63.7179 47.626 63.8679 47.194 64.0839 46.87C64.3119 46.546 64.5399 46.384 64.7679 46.384C64.9719 46.384 65.1459 46.546 65.2899 46.87C65.4339 47.194 65.4879 47.728 65.4519 48.472C65.2239 49.852 65.0559 51.184 64.9479 52.468C64.8399 53.752 64.7859 55.078 64.7859 56.446C64.7859 57.022 64.8159 57.598 64.8759 58.174C64.9359 58.75 64.9659 59.326 64.9659 59.902C64.9659 60.274 64.8879 60.568 64.7319 60.784C64.5759 60.988 64.3419 61.09 64.0299 61.09ZM69.5873 61.72C69.3353 61.72 69.1073 61.606 68.9033 61.378C68.7113 61.15 68.6153 60.898 68.6153 60.622V59.11C68.6153 58.402 68.6273 57.712 68.6513 57.04C68.6873 56.356 68.7053 55.66 68.7053 54.952C68.7053 54.916 68.6933 54.832 68.6693 54.7C68.6573 54.568 68.6453 54.424 68.6333 54.268H68.5253C68.4053 54.268 68.2733 54.286 68.1293 54.322C67.9973 54.346 67.8653 54.358 67.7333 54.358C67.4333 54.358 67.1933 54.274 67.0133 54.106C66.8333 53.926 66.7433 53.68 66.7433 53.368C66.7433 53.08 66.8093 52.876 66.9413 52.756C67.0853 52.636 67.2593 52.558 67.4633 52.522C67.6793 52.486 67.8953 52.456 68.1113 52.432C68.3393 52.396 68.5313 52.324 68.6873 52.216C68.8433 52.108 68.9393 51.922 68.9753 51.658C69.1073 51.082 69.2453 50.536 69.3893 50.02C69.5453 49.504 69.7493 49.048 70.0013 48.652C70.2533 48.256 70.5953 47.944 71.0273 47.716C71.4593 47.488 72.0233 47.374 72.7193 47.374C72.8753 47.374 73.0853 47.398 73.3493 47.446C73.6253 47.482 73.9013 47.548 74.1773 47.644C74.4653 47.74 74.7053 47.872 74.8973 48.04C75.1013 48.196 75.2033 48.4 75.2033 48.652C75.2033 48.928 75.1073 49.168 74.9153 49.372C74.7353 49.564 74.5313 49.66 74.3033 49.66C74.0033 49.66 73.7213 49.6 73.4573 49.48C73.1933 49.36 72.9113 49.3 72.6113 49.3C72.1913 49.3 71.8673 49.444 71.6393 49.732C71.4233 50.008 71.2733 50.362 71.1893 50.794C71.1053 51.214 71.0573 51.64 71.0453 52.072H72.8093C73.0133 52.072 73.1933 52.18 73.3493 52.396C73.5173 52.6 73.6013 52.804 73.6013 53.008C73.6013 53.248 73.5353 53.428 73.4033 53.548C73.2713 53.668 73.1093 53.752 72.9173 53.8C72.7253 53.836 72.5393 53.872 72.3593 53.908C72.2513 53.908 72.0893 53.926 71.8733 53.962C71.6573 53.986 71.4353 54.01 71.2073 54.034C70.9913 54.058 70.8173 54.076 70.6853 54.088C70.6133 54.136 70.5533 54.304 70.5053 54.592C70.4693 54.868 70.4393 55.198 70.4153 55.582C70.4033 55.966 70.3973 56.35 70.3973 56.734C70.3973 57.046 70.3973 57.334 70.3973 57.598C70.4093 57.862 70.4153 58.042 70.4153 58.138C70.4153 58.498 70.4273 58.852 70.4513 59.2C70.4873 59.548 70.5053 59.878 70.5053 60.19C70.5053 60.406 70.4873 60.634 70.4513 60.874C70.4273 61.102 70.3493 61.3 70.2173 61.468C70.0973 61.636 69.8873 61.72 69.5873 61.72Z" fill="#262F42"/>
<path d="M71.6895 201.014L71.6719 198.711L69.4746 198.676L69.4395 196.039L71.6367 195.969V193.895L74.3613 193.613L74.3965 195.846L76.6992 195.775L76.7344 198.781L74.4316 198.746L74.4668 201.049L71.6895 201.014ZM83.291 190.361L82.7812 202.859L78.9492 202.684L79.1602 194.369L77.7539 195.336L76.4355 192.33L79.3008 190.186L83.291 190.361ZM96.0439 190.994L95.7275 194.703C95.5576 194.656 95.3906 194.624 95.2266 194.606C95.0625 194.589 94.8955 194.58 94.7256 194.58C94.3096 194.58 93.9111 194.633 93.5303 194.738C93.1553 194.844 92.8213 195.005 92.5283 195.222C92.2412 195.438 92.0098 195.714 91.834 196.048C91.6641 196.376 91.5791 196.766 91.5791 197.217C91.5791 197.545 91.626 197.832 91.7197 198.078C91.8193 198.318 91.957 198.521 92.1328 198.685C92.3145 198.843 92.5312 198.963 92.7832 199.045C93.041 199.127 93.3252 199.168 93.6357 199.168C93.8525 199.168 94.0752 199.147 94.3037 199.106C94.5322 199.06 94.7607 198.998 94.9893 198.922C95.2178 198.846 95.4375 198.758 95.6484 198.658C95.8594 198.559 96.0557 198.453 96.2373 198.342L96.0967 202.473C95.8682 202.59 95.6221 202.695 95.3584 202.789C95.0947 202.877 94.8223 202.953 94.541 203.018C94.2656 203.088 93.9873 203.141 93.7061 203.176C93.4307 203.211 93.167 203.229 92.915 203.229C92.083 203.229 91.3242 203.073 90.6387 202.763C89.959 202.452 89.373 202.03 88.8809 201.497C88.3945 200.958 88.0166 200.334 87.7471 199.625C87.4775 198.916 87.3428 198.16 87.3428 197.357C87.3428 196.396 87.4775 195.5 87.7471 194.668C88.0225 193.836 88.4238 193.115 88.9512 192.506C89.4844 191.891 90.1406 191.41 90.9199 191.064C91.7051 190.713 92.6045 190.537 93.6182 190.537C94.0225 190.537 94.4326 190.569 94.8486 190.634C95.2646 190.698 95.6631 190.818 96.0439 190.994ZM107.593 196.268C107.593 196.801 107.531 197.316 107.408 197.814C107.285 198.307 107.106 198.77 106.872 199.203C106.644 199.637 106.362 200.035 106.028 200.398C105.7 200.756 105.328 201.063 104.912 201.321C104.502 201.579 104.054 201.781 103.567 201.928C103.081 202.068 102.565 202.139 102.021 202.139C101.493 202.139 100.989 202.071 100.509 201.937C100.034 201.802 99.5889 201.614 99.1729 201.374C98.7568 201.128 98.3789 200.835 98.0391 200.495C97.7051 200.149 97.418 199.769 97.1777 199.353C96.9434 198.931 96.7588 198.479 96.624 197.999C96.4951 197.519 96.4307 197.018 96.4307 196.496C96.4307 195.986 96.4922 195.488 96.6152 195.002C96.7383 194.51 96.9141 194.047 97.1426 193.613C97.377 193.18 97.6582 192.781 97.9863 192.418C98.3145 192.055 98.6807 191.741 99.085 191.478C99.4951 191.214 99.9375 191.009 100.412 190.862C100.887 190.716 101.388 190.643 101.915 190.643C102.765 190.643 103.538 190.774 104.235 191.038C104.938 191.302 105.536 191.68 106.028 192.172C106.526 192.658 106.91 193.25 107.18 193.947C107.455 194.639 107.593 195.412 107.593 196.268ZM103.69 196.496C103.69 196.244 103.652 196.001 103.576 195.767C103.506 195.526 103.4 195.315 103.26 195.134C103.119 194.946 102.943 194.797 102.732 194.686C102.527 194.568 102.29 194.51 102.021 194.51C101.745 194.51 101.499 194.56 101.282 194.659C101.065 194.759 100.878 194.896 100.72 195.072C100.567 195.242 100.45 195.444 100.368 195.679C100.286 195.907 100.245 196.15 100.245 196.408C100.245 196.654 100.28 196.9 100.351 197.146C100.421 197.393 100.526 197.615 100.667 197.814C100.808 198.014 100.98 198.175 101.186 198.298C101.396 198.421 101.64 198.482 101.915 198.482C102.19 198.482 102.437 198.43 102.653 198.324C102.876 198.213 103.063 198.066 103.216 197.885C103.368 197.697 103.485 197.483 103.567 197.243C103.649 197.003 103.69 196.754 103.69 196.496ZM116.435 190.502C116.399 191.053 116.367 191.598 116.338 192.137C116.309 192.676 116.271 193.221 116.224 193.771L112.497 193.965V195.072H115.731L115.556 197.797L112.479 197.885L112.497 202.736L108.05 202.824L108.331 190.502H116.435ZM125.224 190.502C125.188 191.053 125.156 191.598 125.127 192.137C125.098 192.676 125.06 193.221 125.013 193.771L121.286 193.965V195.072H124.521L124.345 197.797L121.269 197.885L121.286 202.736L116.839 202.824L117.12 190.502H125.224ZM135.331 195.898C135.331 196.408 135.296 196.918 135.226 197.428C134.224 197.492 133.228 197.598 132.237 197.744C131.247 197.885 130.257 198.025 129.267 198.166C129.419 198.588 129.656 198.925 129.979 199.177C130.307 199.429 130.696 199.555 131.147 199.555C131.382 199.555 131.637 199.511 131.912 199.423C132.193 199.335 132.472 199.227 132.747 199.098C133.022 198.963 133.286 198.819 133.538 198.667C133.79 198.515 134.007 198.377 134.188 198.254L133.767 202.244C133.538 202.42 133.289 202.569 133.02 202.692C132.756 202.815 132.48 202.915 132.193 202.991C131.906 203.067 131.616 203.123 131.323 203.158C131.03 203.193 130.743 203.211 130.462 203.211C129.882 203.211 129.352 203.132 128.871 202.974C128.391 202.815 127.954 202.596 127.562 202.314C127.175 202.027 126.835 201.69 126.542 201.304C126.249 200.917 126.006 200.495 125.812 200.038C125.619 199.581 125.473 199.098 125.373 198.588C125.273 198.078 125.224 197.562 125.224 197.041C125.224 196.496 125.273 195.951 125.373 195.406C125.473 194.861 125.622 194.337 125.821 193.833C126.026 193.329 126.281 192.863 126.586 192.436C126.896 192.002 127.257 191.624 127.667 191.302C128.077 190.979 128.54 190.728 129.056 190.546C129.577 190.364 130.151 190.273 130.778 190.273C131.3 190.273 131.774 190.347 132.202 190.493C132.636 190.634 133.02 190.833 133.354 191.091C133.693 191.343 133.986 191.645 134.232 191.996C134.484 192.348 134.689 192.734 134.848 193.156C135.012 193.572 135.132 194.015 135.208 194.483C135.29 194.946 135.331 195.418 135.331 195.898ZM131.815 195.441C131.815 195.277 131.798 195.11 131.763 194.94C131.728 194.765 131.669 194.606 131.587 194.466C131.511 194.325 131.408 194.211 131.279 194.123C131.15 194.029 130.989 193.982 130.796 193.982C130.562 193.982 130.354 194.047 130.172 194.176C129.996 194.299 129.844 194.457 129.715 194.65C129.586 194.838 129.48 195.043 129.398 195.266C129.316 195.488 129.255 195.693 129.214 195.881L131.815 195.635V195.441ZM145.72 195.898C145.72 196.408 145.685 196.918 145.614 197.428C144.612 197.492 143.616 197.598 142.626 197.744C141.636 197.885 140.646 198.025 139.655 198.166C139.808 198.588 140.045 198.925 140.367 199.177C140.695 199.429 141.085 199.555 141.536 199.555C141.771 199.555 142.025 199.511 142.301 199.423C142.582 199.335 142.86 199.227 143.136 199.098C143.411 198.963 143.675 198.819 143.927 198.667C144.179 198.515 144.396 198.377 144.577 198.254L144.155 202.244C143.927 202.42 143.678 202.569 143.408 202.692C143.145 202.815 142.869 202.915 142.582 202.991C142.295 203.067 142.005 203.123 141.712 203.158C141.419 203.193 141.132 203.211 140.851 203.211C140.271 203.211 139.74 203.132 139.26 202.974C138.779 202.815 138.343 202.596 137.95 202.314C137.563 202.027 137.224 201.69 136.931 201.304C136.638 200.917 136.395 200.495 136.201 200.038C136.008 199.581 135.861 199.098 135.762 198.588C135.662 198.078 135.612 197.562 135.612 197.041C135.612 196.496 135.662 195.951 135.762 195.406C135.861 194.861 136.011 194.337 136.21 193.833C136.415 193.329 136.67 192.863 136.975 192.436C137.285 192.002 137.646 191.624 138.056 191.302C138.466 190.979 138.929 190.728 139.444 190.546C139.966 190.364 140.54 190.273 141.167 190.273C141.688 190.273 142.163 190.347 142.591 190.493C143.024 190.634 143.408 190.833 143.742 191.091C144.082 191.343 144.375 191.645 144.621 191.996C144.873 192.348 145.078 192.734 145.236 193.156C145.4 193.572 145.521 194.015 145.597 194.483C145.679 194.946 145.72 195.418 145.72 195.898ZM142.204 195.441C142.204 195.277 142.187 195.11 142.151 194.94C142.116 194.765 142.058 194.606 141.976 194.466C141.899 194.325 141.797 194.211 141.668 194.123C141.539 194.029 141.378 193.982 141.185 193.982C140.95 193.982 140.742 194.047 140.561 194.176C140.385 194.299 140.232 194.457 140.104 194.65C139.975 194.838 139.869 195.043 139.787 195.266C139.705 195.488 139.644 195.693 139.603 195.881L142.204 195.635V195.441Z" fill="#FA7071"/>
<path d="M47.7532 98H46.0252V93.464C44.6932 90.428 43.5292 87.782 42.5332 85.526L44.2792 85.31L46.8352 91.79H46.9432L49.4992 85.31L51.1372 85.526L47.7532 93.464V98ZM52.8389 89.864C53.1509 89.396 53.5829 89.024 54.1349 88.748C54.6989 88.472 55.3529 88.334 56.0969 88.334C56.8529 88.334 57.4829 88.478 57.9869 88.766C58.5029 89.054 58.8809 89.456 59.1209 89.972C59.5409 90.896 59.7509 92.03 59.7509 93.374C59.7509 94.67 59.4509 95.768 58.8509 96.668C58.5389 97.148 58.1009 97.526 57.5369 97.802C56.9849 98.078 56.3309 98.216 55.5749 98.216C54.8309 98.216 54.2009 98.072 53.6849 97.784C53.1809 97.496 52.8089 97.088 52.5689 96.56C52.1489 95.648 51.9389 94.52 51.9389 93.176C51.9389 91.88 52.2389 90.776 52.8389 89.864ZM57.4289 90.422C57.2729 90.23 57.0569 90.074 56.7809 89.954C56.5049 89.834 56.1689 89.774 55.7729 89.774C55.3889 89.774 55.0589 89.846 54.7829 89.99C54.5069 90.134 54.2969 90.308 54.1529 90.512C54.0089 90.704 53.9009 90.98 53.8289 91.34C53.7209 91.88 53.6669 92.462 53.6669 93.086C53.6669 93.71 53.6789 94.172 53.7029 94.472C53.7269 94.76 53.7809 95.06 53.8649 95.372C53.9609 95.684 54.0929 95.936 54.2609 96.128C54.6209 96.56 55.1729 96.776 55.9169 96.776C56.3009 96.776 56.6309 96.704 56.9069 96.56C57.1829 96.416 57.3929 96.248 57.5369 96.056C57.6809 95.852 57.7889 95.57 57.8609 95.21C57.9689 94.67 58.0229 94.088 58.0229 93.464C58.0229 92.84 58.0109 92.384 57.9869 92.096C57.9629 91.796 57.9029 91.49 57.8069 91.178C57.7229 90.866 57.5969 90.614 57.4289 90.422ZM64.7264 98.216C63.9104 98.216 63.2384 97.964 62.7104 97.46C62.1824 96.956 61.9184 96.176 61.9184 95.12V88.622L63.5384 88.46V94.922C63.5384 96.158 64.1204 96.776 65.2844 96.776C66.0524 96.776 66.7184 96.494 67.2824 95.93V88.622L68.9024 88.46V95.408L69.0464 97.91L67.7324 98.09L67.5344 96.992H67.4624C66.7784 97.808 65.8664 98.216 64.7264 98.216ZM74.8432 93.338C74.8432 91.838 75.1912 90.632 75.8872 89.72C76.5952 88.796 77.5312 88.334 78.6952 88.334C79.8712 88.334 80.6512 88.61 81.0352 89.162C81.4312 89.702 81.6292 90.494 81.6292 91.538L80.0092 91.646C80.0092 90.962 79.9072 90.482 79.7032 90.206C79.4992 89.918 79.0852 89.774 78.4612 89.774C77.2012 89.774 76.5712 90.944 76.5712 93.284C76.5712 95.612 77.3752 96.776 78.9832 96.776C79.6912 96.776 80.4412 96.578 81.2332 96.182L81.7192 97.262C81.4192 97.526 80.9932 97.754 80.4412 97.946C79.8892 98.126 79.2952 98.216 78.6592 98.216C76.1152 98.216 74.8432 96.59 74.8432 93.338ZM87.8929 91.412C87.8929 90.32 87.3949 89.774 86.3989 89.774C85.7629 89.774 84.9049 89.942 83.8249 90.278L83.2489 89.144C84.2809 88.604 85.3969 88.334 86.5969 88.334C88.0489 88.334 88.9369 88.766 89.2609 89.63C89.4289 90.074 89.5129 90.662 89.5129 91.394V95.228C89.5129 96.092 89.7589 96.776 90.2509 97.28L89.2969 98.216C89.0809 98.084 88.8589 97.892 88.6309 97.64C88.4149 97.376 88.2649 97.118 88.1809 96.866H88.1269C87.4669 97.766 86.5549 98.216 85.3909 98.216C83.6749 98.216 82.8169 97.322 82.8169 95.534C82.8169 93.95 83.9329 92.996 86.1649 92.672L87.8929 92.42V91.412ZM84.5449 95.732C84.5449 96.428 84.9709 96.776 85.8229 96.776C86.6869 96.776 87.3769 96.476 87.8929 95.876V93.68C86.3809 93.884 85.4509 94.124 85.1029 94.4C84.7309 94.7 84.5449 95.144 84.5449 95.732ZM96.4689 88.334C97.3569 88.334 98.0649 88.592 98.5929 89.108C99.1209 89.612 99.3849 90.416 99.3849 91.52V98H97.7649V91.628C97.7649 90.392 97.1469 89.774 95.9109 89.774C95.5509 89.774 95.1969 89.864 94.8489 90.044C94.5009 90.212 94.2249 90.41 94.0209 90.638V98H92.4009V91.142L92.2569 88.64L93.5709 88.46L93.8049 89.522H93.8769C94.0929 89.246 94.4169 88.982 94.8489 88.73C95.2929 88.466 95.8329 88.334 96.4689 88.334ZM105.146 91.052C105.146 90.224 105.434 89.564 106.01 89.072C106.598 88.58 107.354 88.334 108.278 88.334C109.202 88.334 109.922 88.562 110.438 89.018C110.954 89.462 111.248 90.062 111.32 90.818L109.646 91.16C109.622 90.716 109.478 90.368 109.214 90.116C108.95 89.864 108.608 89.738 108.188 89.738C107.768 89.738 107.444 89.84 107.216 90.044C106.988 90.236 106.874 90.476 106.874 90.764C106.874 91.052 106.922 91.286 107.018 91.466C107.114 91.646 107.27 91.808 107.486 91.952C107.774 92.156 108.176 92.366 108.692 92.582C109.208 92.786 109.586 92.954 109.826 93.086C110.066 93.206 110.342 93.38 110.654 93.608C111.242 94.028 111.536 94.634 111.536 95.426C111.536 96.206 111.224 96.866 110.6 97.406C109.976 97.946 109.154 98.216 108.134 98.216C107.114 98.216 106.1 97.892 105.092 97.244L105.722 96.056C106.85 96.536 107.72 96.776 108.332 96.776C109.316 96.776 109.808 96.392 109.808 95.624C109.808 95.276 109.652 94.988 109.34 94.76C109.04 94.52 108.632 94.292 108.116 94.076C107.6 93.848 107.216 93.674 106.964 93.554C106.724 93.422 106.442 93.236 106.118 92.996C105.47 92.516 105.146 91.868 105.146 91.052ZM115.077 95.12C115.077 95.708 115.125 96.158 115.221 96.47C115.317 96.77 115.533 97.094 115.869 97.442L114.663 98.396C114.171 97.88 113.847 97.442 113.691 97.082C113.535 96.722 113.457 96.11 113.457 95.246V84.59L115.077 84.41V95.12ZM121.397 88.334C122.429 88.334 123.191 88.646 123.683 89.27C124.091 89.774 124.343 90.62 124.439 91.808C124.475 92.276 124.493 92.858 124.493 93.554L123.755 93.662H119.093C119.093 95.174 119.495 96.128 120.299 96.524C120.635 96.692 121.097 96.776 121.685 96.776C122.273 96.776 122.951 96.584 123.719 96.2L124.223 97.316C123.227 97.916 122.225 98.216 121.217 98.216C118.649 98.216 117.365 96.596 117.365 93.356C117.365 91.82 117.701 90.602 118.373 89.702C119.057 88.79 120.065 88.334 121.397 88.334ZM122.765 92.384C122.765 91.424 122.669 90.752 122.477 90.368C122.285 89.972 121.841 89.774 121.145 89.774C120.461 89.774 119.975 90.008 119.687 90.476C119.399 90.932 119.219 91.568 119.147 92.384H122.765ZM130.063 88.334C131.095 88.334 131.857 88.646 132.349 89.27C132.757 89.774 133.009 90.62 133.105 91.808C133.141 92.276 133.159 92.858 133.159 93.554L132.421 93.662H127.759C127.759 95.174 128.161 96.128 128.965 96.524C129.301 96.692 129.763 96.776 130.351 96.776C130.939 96.776 131.617 96.584 132.385 96.2L132.889 97.316C131.893 97.916 130.891 98.216 129.883 98.216C127.315 98.216 126.031 96.596 126.031 93.356C126.031 91.82 126.367 90.602 127.039 89.702C127.723 88.79 128.731 88.334 130.063 88.334ZM131.431 92.384C131.431 91.424 131.335 90.752 131.143 90.368C130.951 89.972 130.507 89.774 129.811 89.774C129.127 89.774 128.641 90.008 128.353 90.476C128.065 90.932 127.885 91.568 127.813 92.384H131.431ZM136.749 89.558C137.433 88.742 138.297 88.334 139.341 88.334C140.385 88.334 141.195 88.706 141.771 89.45C142.359 90.182 142.653 91.46 142.653 93.284C142.653 94.208 142.527 95.012 142.275 95.696C142.035 96.368 141.717 96.878 141.321 97.226C140.565 97.886 139.749 98.216 138.873 98.216C137.997 98.216 137.355 98.024 136.947 97.64L136.893 97.658L136.947 98.108V101.312L135.327 101.492V91.142L135.183 88.64L136.497 88.46L136.677 89.558H136.749ZM136.947 96.308C137.463 96.62 138.063 96.776 138.747 96.776C139.431 96.776 139.965 96.524 140.349 96.02C140.733 95.504 140.925 94.556 140.925 93.176C140.925 91.508 140.613 90.464 139.989 90.044C139.725 89.864 139.401 89.774 139.017 89.774C138.105 89.774 137.415 90.074 136.947 90.674V96.308ZM44.3774 115.12C44.3774 115.708 44.4254 116.158 44.5214 116.47C44.6174 116.77 44.8334 117.094 45.1694 117.442L43.9634 118.396C43.4714 117.88 43.1474 117.442 42.9914 117.082C42.8354 116.722 42.7574 116.11 42.7574 115.246V104.59L44.3774 104.41V115.12ZM51.4535 111.412C51.4535 110.32 50.9555 109.774 49.9595 109.774C49.3235 109.774 48.4655 109.942 47.3855 110.278L46.8095 109.144C47.8415 108.604 48.9575 108.334 50.1575 108.334C51.6095 108.334 52.4975 108.766 52.8215 109.63C52.9895 110.074 53.0735 110.662 53.0735 111.394V115.228C53.0735 116.092 53.3195 116.776 53.8115 117.28L52.8575 118.216C52.6415 118.084 52.4195 117.892 52.1915 117.64C51.9755 117.376 51.8255 117.118 51.7415 116.866H51.6875C51.0275 117.766 50.1155 118.216 48.9515 118.216C47.2355 118.216 46.3775 117.322 46.3775 115.534C46.3775 113.95 47.4935 112.996 49.7255 112.672L51.4535 112.42V111.412ZM48.1055 115.732C48.1055 116.428 48.5315 116.776 49.3835 116.776C50.2475 116.776 50.9375 116.476 51.4535 115.876V113.68C49.9415 113.884 49.0115 114.124 48.6635 114.4C48.2915 114.7 48.1055 115.144 48.1055 115.732ZM57.8515 108.55H60.4255L60.2095 109.918H57.8515V114.31C57.8515 115.246 57.9295 115.9 58.0855 116.272C58.2535 116.632 58.6255 116.812 59.2015 116.812C59.5255 116.812 59.8435 116.746 60.1555 116.614L60.6235 117.64C60.4795 117.784 60.2155 117.916 59.8315 118.036C59.4475 118.156 59.0995 118.216 58.7875 118.216C57.7315 118.216 57.0415 117.922 56.7175 117.334C56.3935 116.746 56.2315 115.774 56.2315 114.418V109.918H54.6835L54.8635 108.658L56.2315 108.55L56.3215 106.57L57.8515 106.12V108.55ZM65.6565 108.334C66.6885 108.334 67.4505 108.646 67.9425 109.27C68.3505 109.774 68.6025 110.62 68.6985 111.808C68.7345 112.276 68.7525 112.858 68.7525 113.554L68.0145 113.662H63.3525C63.3525 115.174 63.7545 116.128 64.5585 116.524C64.8945 116.692 65.3565 116.776 65.9445 116.776C66.5325 116.776 67.2105 116.584 67.9785 116.2L68.4825 117.316C67.4865 117.916 66.4845 118.216 65.4765 118.216C62.9085 118.216 61.6245 116.596 61.6245 113.356C61.6245 111.82 61.9605 110.602 62.6325 109.702C63.3165 108.79 64.3245 108.334 65.6565 108.334ZM67.0245 112.384C67.0245 111.424 66.9285 110.752 66.7365 110.368C66.5445 109.972 66.1005 109.774 65.4045 109.774C64.7205 109.774 64.2345 110.008 63.9465 110.476C63.6585 110.932 63.4785 111.568 63.4065 112.384H67.0245ZM74.7545 108.334C75.0665 108.334 75.3005 108.364 75.4565 108.424C75.6245 108.472 75.7625 108.514 75.8705 108.55C75.9785 108.574 76.0445 108.592 76.0685 108.604L75.7805 110.224C75.4205 110.104 74.9885 110.044 74.4845 110.044C73.9925 110.044 73.5425 110.26 73.1345 110.692C72.7385 111.112 72.5405 111.622 72.5405 112.222V118H70.9205V111.142L70.7765 108.64L72.0905 108.46L72.2885 110.278H72.3605C72.5645 109.69 72.8705 109.222 73.2785 108.874C73.6985 108.514 74.1905 108.334 74.7545 108.334ZM78.2327 118.216C77.5007 118.216 77.1347 117.808 77.1347 116.992C77.1347 116.692 77.2307 116.434 77.4227 116.218C77.6267 116.002 77.9387 115.894 78.3587 115.894C79.0907 115.894 79.4567 116.302 79.4567 117.118C79.4567 117.418 79.3547 117.676 79.1507 117.892C78.9587 118.108 78.6527 118.216 78.2327 118.216ZM87.5765 105.4V116.308C87.5765 117.448 87.3605 118.396 86.9285 119.152C86.5085 119.908 85.6685 120.568 84.4085 121.132L83.3465 119.926C83.9945 119.602 84.4805 119.284 84.8045 118.972C85.5005 118.336 85.8485 117.208 85.8485 115.588V105.4H87.5765ZM93.3611 118.216C92.5451 118.216 91.8731 117.964 91.3451 117.46C90.8171 116.956 90.5531 116.176 90.5531 115.12V108.622L92.1731 108.46V114.922C92.1731 116.158 92.7551 116.776 93.9191 116.776C94.6871 116.776 95.3531 116.494 95.9171 115.93V108.622L97.5371 108.46V115.408L97.6811 117.91L96.3671 118.09L96.1691 116.992H96.0971C95.4131 117.808 94.5011 118.216 93.3611 118.216ZM99.6966 111.052C99.6966 110.224 99.9846 109.564 100.561 109.072C101.149 108.58 101.905 108.334 102.829 108.334C103.753 108.334 104.473 108.562 104.989 109.018C105.505 109.462 105.799 110.062 105.871 110.818L104.197 111.16C104.173 110.716 104.029 110.368 103.765 110.116C103.501 109.864 103.159 109.738 102.739 109.738C102.319 109.738 101.995 109.84 101.767 110.044C101.539 110.236 101.425 110.476 101.425 110.764C101.425 111.052 101.473 111.286 101.569 111.466C101.665 111.646 101.821 111.808 102.037 111.952C102.325 112.156 102.727 112.366 103.243 112.582C103.759 112.786 104.137 112.954 104.377 113.086C104.617 113.206 104.893 113.38 105.205 113.608C105.793 114.028 106.087 114.634 106.087 115.426C106.087 116.206 105.775 116.866 105.151 117.406C104.527 117.946 103.705 118.216 102.685 118.216C101.665 118.216 100.651 117.892 99.6426 117.244L100.273 116.056C101.401 116.536 102.271 116.776 102.883 116.776C103.867 116.776 104.359 116.392 104.359 115.624C104.359 115.276 104.203 114.988 103.891 114.76C103.591 114.52 103.183 114.292 102.667 114.076C102.151 113.848 101.767 113.674 101.515 113.554C101.275 113.422 100.993 113.236 100.669 112.996C100.021 112.516 99.6966 111.868 99.6966 111.052ZM110.023 108.55H112.597L112.381 109.918H110.023V114.31C110.023 115.246 110.101 115.9 110.257 116.272C110.425 116.632 110.797 116.812 111.373 116.812C111.697 116.812 112.015 116.746 112.327 116.614L112.795 117.64C112.651 117.784 112.387 117.916 112.003 118.036C111.619 118.156 111.271 118.216 110.959 118.216C109.903 118.216 109.213 117.922 108.889 117.334C108.565 116.746 108.403 115.774 108.403 114.418V109.918H106.855L107.035 108.658L108.403 108.55L108.493 106.57L110.023 106.12V108.55ZM118.388 109.864C118.7 109.396 119.132 109.024 119.684 108.748C120.248 108.472 120.902 108.334 121.646 108.334C122.402 108.334 123.032 108.478 123.536 108.766C124.052 109.054 124.43 109.456 124.67 109.972C125.09 110.896 125.3 112.03 125.3 113.374C125.3 114.67 125 115.768 124.4 116.668C124.088 117.148 123.65 117.526 123.086 117.802C122.534 118.078 121.88 118.216 121.124 118.216C120.38 118.216 119.75 118.072 119.234 117.784C118.73 117.496 118.358 117.088 118.118 116.56C117.698 115.648 117.488 114.52 117.488 113.176C117.488 111.88 117.788 110.776 118.388 109.864ZM122.978 110.422C122.822 110.23 122.606 110.074 122.33 109.954C122.054 109.834 121.718 109.774 121.322 109.774C120.938 109.774 120.608 109.846 120.332 109.99C120.056 110.134 119.846 110.308 119.702 110.512C119.558 110.704 119.45 110.98 119.378 111.34C119.27 111.88 119.216 112.462 119.216 113.086C119.216 113.71 119.228 114.172 119.252 114.472C119.276 114.76 119.33 115.06 119.414 115.372C119.51 115.684 119.642 115.936 119.81 116.128C120.17 116.56 120.722 116.776 121.466 116.776C121.85 116.776 122.18 116.704 122.456 116.56C122.732 116.416 122.942 116.248 123.086 116.056C123.23 115.852 123.338 115.57 123.41 115.21C123.518 114.67 123.572 114.088 123.572 113.464C123.572 112.84 123.56 112.384 123.536 112.096C123.512 111.796 123.452 111.49 123.356 111.178C123.272 110.866 123.146 110.614 122.978 110.422ZM131.625 108.334C132.513 108.334 133.221 108.592 133.749 109.108C134.277 109.612 134.541 110.416 134.541 111.52V118H132.921V111.628C132.921 110.392 132.303 109.774 131.067 109.774C130.707 109.774 130.353 109.864 130.005 110.044C129.657 110.212 129.381 110.41 129.177 110.638V118H127.557V111.142L127.413 108.64L128.727 108.46L128.961 109.522H129.033C129.249 109.246 129.573 108.982 130.005 108.73C130.449 108.466 130.989 108.334 131.625 108.334ZM140.733 108.334C141.765 108.334 142.527 108.646 143.019 109.27C143.427 109.774 143.679 110.62 143.775 111.808C143.811 112.276 143.829 112.858 143.829 113.554L143.091 113.662H138.429C138.429 115.174 138.831 116.128 139.635 116.524C139.971 116.692 140.433 116.776 141.021 116.776C141.609 116.776 142.287 116.584 143.055 116.2L143.559 117.316C142.563 117.916 141.561 118.216 140.553 118.216C137.985 118.216 136.701 116.596 136.701 113.356C136.701 111.82 137.037 110.602 137.709 109.702C138.393 108.79 139.401 108.334 140.733 108.334ZM142.101 112.384C142.101 111.424 142.005 110.752 141.813 110.368C141.621 109.972 141.177 109.774 140.481 109.774C139.797 109.774 139.311 110.008 139.023 110.476C138.735 110.932 138.555 111.568 138.483 112.384H142.101ZM56.7256 129.522C57.2656 128.73 58.0756 128.334 59.1556 128.334C60.2476 128.334 61.0216 128.748 61.4776 129.576C62.1136 128.748 63.0136 128.334 64.1776 128.334C65.0656 128.334 65.7436 128.616 66.2116 129.18C66.6796 129.744 66.9136 130.524 66.9136 131.52V138H65.2936V131.628C65.2936 130.392 64.7596 129.774 63.6916 129.774C62.8876 129.774 62.2876 130.062 61.8916 130.638V138H60.2716V131.628C60.2716 130.392 59.7376 129.774 58.6696 129.774C57.8656 129.774 57.2656 130.062 56.8696 130.638V138H55.2496V131.142L55.1056 128.64L56.4196 128.46L56.6536 129.522H56.7256ZM69.9688 129.864C70.2808 129.396 70.7128 129.024 71.2648 128.748C71.8288 128.472 72.4828 128.334 73.2268 128.334C73.9828 128.334 74.6128 128.478 75.1168 128.766C75.6328 129.054 76.0108 129.456 76.2508 129.972C76.6708 130.896 76.8808 132.03 76.8808 133.374C76.8808 134.67 76.5808 135.768 75.9808 136.668C75.6688 137.148 75.2308 137.526 74.6668 137.802C74.1148 138.078 73.4608 138.216 72.7048 138.216C71.9608 138.216 71.3308 138.072 70.8148 137.784C70.3108 137.496 69.9388 137.088 69.6988 136.56C69.2788 135.648 69.0688 134.52 69.0688 133.176C69.0688 131.88 69.3688 130.776 69.9688 129.864ZM74.5588 130.422C74.4028 130.23 74.1868 130.074 73.9108 129.954C73.6348 129.834 73.2988 129.774 72.9028 129.774C72.5188 129.774 72.1888 129.846 71.9128 129.99C71.6368 130.134 71.4268 130.308 71.2828 130.512C71.1388 130.704 71.0308 130.98 70.9588 131.34C70.8508 131.88 70.7968 132.462 70.7968 133.086C70.7968 133.71 70.8088 134.172 70.8328 134.472C70.8568 134.76 70.9108 135.06 70.9948 135.372C71.0908 135.684 71.2228 135.936 71.3908 136.128C71.7508 136.56 72.3028 136.776 73.0468 136.776C73.4308 136.776 73.7608 136.704 74.0368 136.56C74.3128 136.416 74.5228 136.248 74.6668 136.056C74.8108 135.852 74.9188 135.57 74.9908 135.21C75.0988 134.67 75.1528 134.088 75.1528 133.464C75.1528 132.84 75.1408 132.384 75.1168 132.096C75.0928 131.796 75.0328 131.49 74.9368 131.178C74.8528 130.866 74.7268 130.614 74.5588 130.422ZM82.9722 128.334C83.2842 128.334 83.5182 128.364 83.6742 128.424C83.8422 128.472 83.9802 128.514 84.0882 128.55C84.1962 128.574 84.2622 128.592 84.2862 128.604L83.9982 130.224C83.6382 130.104 83.2062 130.044 82.7022 130.044C82.2102 130.044 81.7602 130.26 81.3522 130.692C80.9562 131.112 80.7582 131.622 80.7582 132.222V138H79.1382V131.142L78.9942 128.64L80.3082 128.46L80.5062 130.278H80.5782C80.7822 129.69 81.0882 129.222 81.4962 128.874C81.9162 128.514 82.4082 128.334 82.9722 128.334ZM89.1145 128.334C90.1465 128.334 90.9085 128.646 91.4005 129.27C91.8085 129.774 92.0605 130.62 92.1565 131.808C92.1925 132.276 92.2105 132.858 92.2105 133.554L91.4725 133.662H86.8105C86.8105 135.174 87.2125 136.128 88.0165 136.524C88.3525 136.692 88.8145 136.776 89.4025 136.776C89.9905 136.776 90.6685 136.584 91.4365 136.2L91.9405 137.316C90.9445 137.916 89.9425 138.216 88.9345 138.216C86.3665 138.216 85.0825 136.596 85.0825 133.356C85.0825 131.82 85.4185 130.602 86.0905 129.702C86.7745 128.79 87.7825 128.334 89.1145 128.334ZM90.4825 132.384C90.4825 131.424 90.3865 130.752 90.1945 130.368C90.0025 129.972 89.5585 129.774 88.8625 129.774C88.1785 129.774 87.6925 130.008 87.4045 130.476C87.1165 130.932 86.9365 131.568 86.8645 132.384H90.4825ZM99.9599 128.55H102.534L102.318 129.918H99.9599V134.31C99.9599 135.246 100.038 135.9 100.194 136.272C100.362 136.632 100.734 136.812 101.31 136.812C101.634 136.812 101.952 136.746 102.264 136.614L102.732 137.64C102.588 137.784 102.324 137.916 101.94 138.036C101.556 138.156 101.208 138.216 100.896 138.216C99.8399 138.216 99.1499 137.922 98.8259 137.334C98.5019 136.746 98.3399 135.774 98.3399 134.418V129.918H96.7919L96.9719 128.658L98.3399 128.55L98.4299 126.57L99.9599 126.12V128.55ZM108.521 131.412C108.521 130.32 108.023 129.774 107.027 129.774C106.391 129.774 105.533 129.942 104.453 130.278L103.877 129.144C104.909 128.604 106.025 128.334 107.225 128.334C108.677 128.334 109.565 128.766 109.889 129.63C110.057 130.074 110.141 130.662 110.141 131.394V135.228C110.141 136.092 110.387 136.776 110.879 137.28L109.925 138.216C109.709 138.084 109.487 137.892 109.259 137.64C109.043 137.376 108.893 137.118 108.809 136.866H108.755C108.095 137.766 107.183 138.216 106.019 138.216C104.303 138.216 103.445 137.322 103.445 135.534C103.445 133.95 104.561 132.996 106.793 132.672L108.521 132.42V131.412ZM105.173 135.732C105.173 136.428 105.599 136.776 106.451 136.776C107.315 136.776 108.005 136.476 108.521 135.876V133.68C107.009 133.884 106.079 134.124 105.731 134.4C105.359 134.7 105.173 135.144 105.173 135.732ZM112.309 131.052C112.309 130.224 112.597 129.564 113.173 129.072C113.761 128.58 114.517 128.334 115.441 128.334C116.365 128.334 117.085 128.562 117.601 129.018C118.117 129.462 118.411 130.062 118.483 130.818L116.809 131.16C116.785 130.716 116.641 130.368 116.377 130.116C116.113 129.864 115.771 129.738 115.351 129.738C114.931 129.738 114.607 129.84 114.379 130.044C114.151 130.236 114.037 130.476 114.037 130.764C114.037 131.052 114.085 131.286 114.181 131.466C114.277 131.646 114.433 131.808 114.649 131.952C114.937 132.156 115.339 132.366 115.855 132.582C116.371 132.786 116.749 132.954 116.989 133.086C117.229 133.206 117.505 133.38 117.817 133.608C118.405 134.028 118.699 134.634 118.699 135.426C118.699 136.206 118.387 136.866 117.763 137.406C117.139 137.946 116.317 138.216 115.297 138.216C114.277 138.216 113.263 137.892 112.255 137.244L112.885 136.056C114.013 136.536 114.883 136.776 115.495 136.776C116.479 136.776 116.971 136.392 116.971 135.624C116.971 135.276 116.815 134.988 116.503 134.76C116.203 134.52 115.795 134.292 115.279 134.076C114.763 133.848 114.379 133.674 114.127 133.554C113.887 133.422 113.605 133.236 113.281 132.996C112.633 132.516 112.309 131.868 112.309 131.052ZM122.276 138H120.656V124.59L122.276 124.41V138ZM127.82 138H125.768L122.33 133.212L125.804 128.46L127.406 128.946L124.058 133.23L127.82 138ZM129.886 138.216C129.154 138.216 128.788 137.808 128.788 136.992C128.788 136.692 128.884 136.434 129.076 136.218C129.28 136.002 129.592 135.894 130.012 135.894C130.744 135.894 131.11 136.302 131.11 137.118C131.11 137.418 131.008 137.676 130.804 137.892C130.612 138.108 130.306 138.216 129.886 138.216Z" fill="#272F42"/>
</svg>
