<svg width="199" height="262" viewBox="0 0 199 262" fill="none" xmlns="http://www.w3.org/2000/svg">
<path d="M1.40584 13.8729C1.49488 6.80239 7.2589 1.18457 14.3508 1.18457H169.35C176.367 1.18457 182.113 6.64892 182.397 13.6453C184.015 53.5562 189.187 172.205 196.218 245.149C196.956 252.803 191.013 259.492 183.333 259.624C98.0822 261.092 48.7659 261.806 22.6125 258.111C18.0207 257.462 14.396 254.112 13.3543 249.584C6.84371 221.285 3.71168 173.326 2.28297 126.888C0.855355 80.4848 1.13071 35.7199 1.40584 13.8729Z" fill="#FCFCF5" stroke="#272F42" stroke-width="2.36905"/>
<path d="M2 22.2715H184" stroke="#272F42" stroke-opacity="0.35" stroke-width="0.7"/>
<path d="M11 238.116H196" stroke="#272F42" stroke-opacity="0.35" stroke-width="0.7"/>
<path d="M2 40.1797H184" stroke="#272F42" stroke-opacity="0.35" stroke-width="0.7"/>
<path d="M3 60.916H185" stroke="#272F42" stroke-opacity="0.35" stroke-width="0.7"/>
<path d="M3 80.71H186" stroke="#272F42" stroke-opacity="0.35" stroke-width="0.7"/>
<path d="M3 100.503H187" stroke="#272F42" stroke-opacity="0.35" stroke-width="0.7"/>
<path d="M3 120.297H188" stroke="#272F42" stroke-opacity="0.35" stroke-width="0.7"/>
<path d="M4 139.148H189" stroke="#272F42" stroke-opacity="0.35" stroke-width="0.7"/>
<path d="M4 158.942H190" stroke="#272F42" stroke-opacity="0.35" stroke-width="0.7"/>
<path d="M4 178.735H191" stroke="#272F42" stroke-opacity="0.35" stroke-width="0.7"/>
<path d="M6 198.529H193" stroke="#272F42" stroke-opacity="0.35" stroke-width="0.7"/>
<path d="M8 218.322H194" stroke="#272F42" stroke-opacity="0.35" stroke-width="0.7"/>
<path d="M20.4453 39V29.25H17.1094V27.5547H25.8906V29.25H22.5703V39H20.4453ZM30.4219 37.6094C31.1146 37.6094 31.6354 37.3568 31.9844 36.8516C32.3333 36.3464 32.5078 35.6224 32.5078 34.6797C32.5078 33.7266 32.3333 33 31.9844 32.5C31.6354 32 31.1094 31.75 30.4062 31.75C29.7135 31.75 29.1901 32.0026 28.8359 32.5078C28.487 33.0078 28.3125 33.7344 28.3125 34.6875C28.3125 35.625 28.4896 36.3464 28.8438 36.8516C29.1979 37.3568 29.724 37.6094 30.4219 37.6094ZM30.3672 39.1641C29.0964 39.1641 28.0964 38.7526 27.3672 37.9297C26.638 37.1068 26.2734 36.0234 26.2734 34.6797C26.2734 33.2943 26.638 32.2031 27.3672 31.4062C28.0964 30.6042 29.125 30.2031 30.4531 30.2031C31.7344 30.2031 32.737 30.612 33.4609 31.4297C34.1901 32.2422 34.5547 33.3255 34.5547 34.6797C34.5547 36.0495 34.1875 37.1406 33.4531 37.9531C32.7188 38.7604 31.6901 39.1641 30.3672 39.1641ZM35.9688 39.0469V36.9766H38.0391V39.0469H35.9688ZM35.9688 32.4297V30.3594H38.0391V32.4297H35.9688Z" fill="#272F42"/>
<path d="M164.294 182H49V215.167H164.294V182Z" stroke="#FA7070" stroke-width="2.36905"/>
<path d="M21.014 61.36C20.642 61.36 20.366 61.246 20.186 61.018C20.006 60.79 19.886 60.514 19.826 60.19C19.778 59.854 19.754 59.548 19.754 59.272V58.588C19.754 57.832 19.766 57.07 19.79 56.302C19.826 55.534 19.85 54.706 19.862 53.818C19.562 53.83 19.304 53.848 19.088 53.872C18.884 53.896 18.674 53.908 18.458 53.908C17.906 53.908 17.63 53.638 17.63 53.098C17.63 52.894 17.666 52.702 17.738 52.522C17.81 52.33 17.96 52.21 18.188 52.162L19.772 51.802C19.976 51.754 20.108 51.628 20.168 51.424C20.24 51.208 20.276 50.962 20.276 50.686C20.288 50.398 20.306 50.116 20.33 49.84C20.366 49.564 20.456 49.336 20.6 49.156C20.756 48.976 21.014 48.886 21.374 48.886C21.626 48.886 21.812 48.958 21.932 49.102C22.064 49.234 22.154 49.396 22.202 49.588C22.25 49.78 22.274 49.966 22.274 50.146C22.274 50.17 22.268 50.254 22.256 50.398C22.244 50.53 22.226 50.662 22.202 50.794C22.19 50.926 22.184 51.01 22.184 51.046V51.622H24.38C24.644 51.622 24.848 51.748 24.992 52C25.136 52.24 25.208 52.486 25.208 52.738C25.208 52.786 25.19 52.876 25.154 53.008C25.118 53.14 25.052 53.266 24.956 53.386C24.86 53.494 24.728 53.548 24.56 53.548H22.256C22.244 53.548 22.22 53.56 22.184 53.584C22.148 53.596 22.106 53.632 22.058 53.692L22.022 53.746C21.962 54.07 21.92 54.334 21.896 54.538C21.872 54.73 21.854 54.91 21.842 55.078C21.842 55.234 21.842 55.426 21.842 55.654C21.842 56.314 21.854 56.974 21.878 57.634C21.914 58.294 21.932 58.99 21.932 59.722C21.932 59.962 21.914 60.208 21.878 60.46C21.842 60.712 21.758 60.922 21.626 61.09C21.494 61.27 21.29 61.36 21.014 61.36ZM27.7883 60.91C27.4523 60.91 27.2003 60.796 27.0323 60.568C26.8763 60.328 26.7983 60.052 26.7983 59.74C26.7983 59.02 26.8403 58.288 26.9243 57.544C27.0203 56.8 27.0683 56.08 27.0683 55.384C27.0683 54.184 27.0203 53.014 26.9243 51.874C26.8403 50.734 26.7983 49.564 26.7983 48.364V47.896C26.8823 47.704 26.9963 47.572 27.1403 47.5C27.2963 47.416 27.4583 47.374 27.6263 47.374C27.9023 47.374 28.1243 47.47 28.2923 47.662C28.4723 47.854 28.6103 48.088 28.7063 48.364C28.8023 48.64 28.8683 48.916 28.9043 49.192C28.9523 49.468 28.9763 49.696 28.9763 49.876V55.852L29.0843 55.96L29.1023 55.942C29.4263 55.618 29.7323 55.252 30.0203 54.844C30.3203 54.436 30.6263 54.046 30.9383 53.674C31.2623 53.29 31.6163 52.972 32.0003 52.72C32.3963 52.468 32.8523 52.342 33.3683 52.342C33.8243 52.342 34.2143 52.462 34.5383 52.702C34.8743 52.942 35.1383 53.254 35.3303 53.638C35.5223 54.022 35.6483 54.424 35.7083 54.844L36.2483 58.66V59.2C36.2483 59.392 36.2363 59.596 36.2123 59.812C36.1883 60.016 36.1163 60.19 35.9963 60.334C35.8883 60.478 35.6963 60.55 35.4203 60.55C35.1083 60.55 34.8623 60.43 34.6823 60.19C34.5143 59.938 34.3943 59.632 34.3223 59.272C34.2503 58.912 34.2023 58.558 34.1783 58.21C34.1543 57.862 34.1303 57.586 34.1063 57.382C34.0943 57.298 34.0763 57.142 34.0523 56.914C34.0403 56.686 34.0163 56.422 33.9803 56.122C33.9443 55.822 33.8963 55.534 33.8363 55.258C33.7763 54.97 33.6983 54.736 33.6023 54.556C33.5183 54.364 33.4103 54.268 33.2783 54.268C33.0743 54.268 32.8703 54.352 32.6663 54.52C32.4623 54.688 32.2943 54.862 32.1623 55.042C31.5383 55.858 30.9383 56.722 30.3623 57.634C29.7983 58.534 29.2343 59.416 28.6703 60.28C28.5743 60.436 28.4543 60.58 28.3103 60.712C28.1663 60.844 27.9923 60.91 27.7883 60.91ZM42.5869 61.27C41.7229 61.27 40.9249 61.138 40.1929 60.874C39.4729 60.598 38.8909 60.166 38.4469 59.578C38.0029 58.978 37.7809 58.204 37.7809 57.256C37.7809 56.536 37.8949 55.834 38.1229 55.15C38.3629 54.466 38.7049 53.848 39.1489 53.296C39.5929 52.732 40.1269 52.288 40.7509 51.964C41.3749 51.628 42.0769 51.46 42.8569 51.46C43.3849 51.46 43.8769 51.568 44.3329 51.784C44.8009 51.988 45.1729 52.294 45.4489 52.702C45.7369 53.098 45.8809 53.584 45.8809 54.16C45.8809 54.712 45.7669 55.24 45.5389 55.744C45.3109 56.248 44.9989 56.698 44.6029 57.094C44.2069 57.49 43.7569 57.802 43.2529 58.03C42.7609 58.246 42.2449 58.354 41.7049 58.354C41.6209 58.354 41.4349 58.336 41.1469 58.3C40.8589 58.252 40.6309 58.204 40.4629 58.156C40.3429 58.132 40.2469 58.084 40.1749 58.012C40.1509 58 40.1089 57.982 40.0489 57.958C39.9889 57.922 39.9469 57.904 39.9229 57.904C40.0069 58.252 40.1809 58.546 40.4449 58.786C40.7209 59.014 41.0329 59.182 41.3809 59.29C41.7409 59.398 42.0829 59.452 42.4069 59.452C42.6349 59.452 42.8629 59.44 43.0909 59.416C43.3309 59.38 43.5829 59.362 43.8469 59.362C44.1109 59.362 44.3389 59.434 44.5309 59.578C44.7229 59.722 44.8189 59.956 44.8189 60.28C44.8189 60.544 44.7349 60.748 44.5669 60.892C44.4109 61.036 44.2069 61.132 43.9549 61.18C43.7149 61.228 43.4689 61.252 43.2169 61.252C42.9769 61.264 42.7669 61.27 42.5869 61.27ZM41.7049 56.266C42.0649 56.266 42.4189 56.2 42.7669 56.068C43.1269 55.924 43.4209 55.714 43.6489 55.438C43.8889 55.162 44.0089 54.82 44.0089 54.412C44.0089 54.064 43.9009 53.788 43.6849 53.584C43.4809 53.38 43.2049 53.278 42.8569 53.278C42.5449 53.278 42.2149 53.362 41.8669 53.53C41.5189 53.698 41.1889 53.914 40.8769 54.178C40.5769 54.442 40.3309 54.73 40.1389 55.042C39.9469 55.342 39.8509 55.636 39.8509 55.924V55.996C40.1629 56.044 40.4749 56.104 40.7869 56.176C41.0989 56.236 41.4049 56.266 41.7049 56.266ZM56.0209 66.076C55.8289 66.076 55.6729 66.022 55.5529 65.914C55.4329 65.806 55.3189 65.644 55.2109 65.428V64.186C55.2109 63.022 55.2829 61.876 55.4269 60.748C55.5829 59.62 55.6609 58.456 55.6609 57.256V55.33C55.5769 55.198 55.4749 55.096 55.3549 55.024C55.2469 54.952 55.1509 54.868 55.0669 54.772C54.9829 54.676 54.9409 54.532 54.9409 54.34C54.9409 54.112 54.9709 53.932 55.0309 53.8C55.1029 53.668 55.2829 53.452 55.5709 53.152V51.316C55.5709 51.124 55.6789 50.968 55.8949 50.848C56.1229 50.728 56.3149 50.668 56.4709 50.668C56.6749 50.668 56.8309 50.728 56.9389 50.848C57.0469 50.956 57.1309 51.088 57.1909 51.244C57.2509 51.4 57.3049 51.538 57.3529 51.658C57.4009 51.766 57.4669 51.82 57.5509 51.82C57.6709 51.82 57.7969 51.784 57.9289 51.712C58.0729 51.64 58.2049 51.586 58.3249 51.55C58.4209 51.514 58.5469 51.478 58.7029 51.442C58.8589 51.394 59.0089 51.358 59.1529 51.334C59.2969 51.298 59.3809 51.28 59.4049 51.28H60.1969C60.9409 51.28 61.6369 51.412 62.2849 51.676C62.9329 51.928 63.4609 52.318 63.8689 52.846C64.2769 53.374 64.4809 54.046 64.4809 54.862C64.4809 55.582 64.3369 56.302 64.0489 57.022C63.7609 57.73 63.3649 58.384 62.8609 58.984C62.3569 59.572 61.7749 60.046 61.1149 60.406C60.4669 60.754 59.7769 60.928 59.0449 60.928C58.8169 60.928 58.5829 60.898 58.3429 60.838C58.1149 60.778 57.8809 60.748 57.6409 60.748H57.4789C57.4669 61.048 57.4429 61.384 57.4069 61.756C57.3829 62.14 57.3589 62.488 57.3349 62.8C57.3109 63.112 57.2989 63.334 57.2989 63.466C57.2989 63.514 57.2929 63.556 57.2809 63.592L57.2629 63.7C57.2389 63.868 57.2089 64.036 57.1729 64.204C57.1489 64.384 57.1309 64.558 57.1189 64.726C57.0829 64.906 57.0229 65.098 56.9389 65.302C56.8669 65.518 56.7529 65.698 56.5969 65.842C56.4529 65.998 56.2609 66.076 56.0209 66.076ZM58.9549 59.002C59.4469 59.002 59.9089 58.882 60.3409 58.642C60.7729 58.39 61.1569 58.066 61.4929 57.67C61.8289 57.262 62.0929 56.824 62.2849 56.356C62.4769 55.876 62.5729 55.408 62.5729 54.952C62.5729 54.304 62.3449 53.836 61.8889 53.548C61.4449 53.26 60.9109 53.116 60.2869 53.116C60.0589 53.116 59.8429 53.128 59.6389 53.152C59.4349 53.164 59.2429 53.212 59.0629 53.296C58.4029 53.584 57.9829 53.908 57.8029 54.268C57.6229 54.616 57.5329 55.024 57.5329 55.492C57.5329 55.684 57.5389 55.894 57.5509 56.122C57.5629 56.338 57.5689 56.566 57.5689 56.806V58.228C57.5689 58.432 57.6469 58.594 57.8029 58.714C57.9589 58.822 58.1449 58.9 58.3609 58.948C58.5889 58.984 58.7869 59.002 58.9549 59.002ZM66.8954 61.18C66.6794 61.18 66.5174 61.108 66.4094 60.964C66.3014 60.82 66.2294 60.652 66.1934 60.46C66.1574 60.256 66.1214 60.076 66.0854 59.92V58.588C66.0854 57.916 66.1154 57.238 66.1754 56.554C66.2354 55.858 66.2654 55.18 66.2654 54.52C66.2654 54.208 66.2354 53.908 66.1754 53.62C66.1154 53.332 66.0854 53.038 66.0854 52.738V52.252C66.1814 52.072 66.3074 51.94 66.4634 51.856C66.6314 51.772 66.8054 51.73 66.9854 51.73C67.2494 51.73 67.4474 51.808 67.5794 51.964C67.7114 52.108 67.8014 52.282 67.8494 52.486C67.9094 52.69 67.9634 52.876 68.0114 53.044C68.0594 53.2 68.1374 53.29 68.2454 53.314C68.5934 53.086 68.9234 52.864 69.2354 52.648C69.5594 52.432 69.8954 52.258 70.2434 52.126C70.6034 51.982 70.9994 51.91 71.4314 51.91C71.6474 51.91 71.8754 51.958 72.1154 52.054C72.3674 52.15 72.5834 52.288 72.7634 52.468C72.9434 52.636 73.0334 52.846 73.0334 53.098C73.0334 53.41 72.9074 53.638 72.6554 53.782C72.4154 53.926 72.1874 53.998 71.9714 53.998C71.8274 53.998 71.6894 53.968 71.5574 53.908C71.4254 53.848 71.2874 53.818 71.1434 53.818C70.7234 53.818 70.3274 53.926 69.9554 54.142C69.5954 54.346 69.2774 54.592 69.0014 54.88C68.7254 55.168 68.5034 55.438 68.3354 55.69C68.2874 55.798 68.2514 55.978 68.2274 56.23C68.2034 56.482 68.1854 56.77 68.1734 57.094C68.1614 57.406 68.1494 57.712 68.1374 58.012C68.1374 58.312 68.1314 58.57 68.1194 58.786C68.1074 59.182 68.0654 59.566 67.9934 59.938C67.9334 60.298 67.8194 60.598 67.6514 60.838C67.4834 61.066 67.2314 61.18 66.8954 61.18ZM78.1144 61C77.2504 61 76.4464 60.814 75.7024 60.442C74.9584 60.07 74.3584 59.542 73.9024 58.858C73.4464 58.174 73.2184 57.376 73.2184 56.464C73.2184 55.84 73.3444 55.264 73.5964 54.736C73.8604 54.196 74.1904 53.692 74.5864 53.224C74.9944 52.756 75.4024 52.318 75.8104 51.91C76.0264 51.694 76.2844 51.538 76.5844 51.442C76.8844 51.334 77.1904 51.28 77.5024 51.28C78.2824 51.28 79.0324 51.364 79.7524 51.532C80.4724 51.7 81.1144 51.976 81.6784 52.36C82.2544 52.732 82.7104 53.23 83.0464 53.854C83.3824 54.466 83.5504 55.216 83.5504 56.104C83.5504 56.836 83.3944 57.502 83.0824 58.102C82.7704 58.702 82.3504 59.218 81.8224 59.65C81.3064 60.082 80.7244 60.418 80.0764 60.658C79.4404 60.886 78.7864 61 78.1144 61ZM77.7544 59.002C78.4144 59.002 79.0384 58.888 79.6264 58.66C80.2144 58.42 80.6944 58.066 81.0664 57.598C81.4504 57.118 81.6424 56.53 81.6424 55.834C81.6424 55.222 81.4624 54.712 81.1024 54.304C80.7544 53.896 80.3104 53.596 79.7704 53.404C79.2304 53.2 78.6784 53.098 78.1144 53.098C77.8264 53.098 77.5924 53.14 77.4124 53.224C77.2324 53.308 77.0704 53.422 76.9264 53.566C76.7824 53.71 76.6144 53.878 76.4224 54.07C76.0864 54.418 75.7864 54.802 75.5224 55.222C75.2584 55.63 75.1264 56.098 75.1264 56.626C75.1264 57.466 75.3784 58.072 75.8824 58.444C76.3864 58.816 77.0104 59.002 77.7544 59.002ZM87.7576 61.27C87.1576 61.114 86.6536 60.85 86.2456 60.478C85.8496 60.094 85.5496 59.644 85.3456 59.128C85.1536 58.612 85.0576 58.072 85.0576 57.508C85.0576 56.728 85.2256 55.978 85.5616 55.258C85.8976 54.526 86.3476 53.878 86.9116 53.314C87.4876 52.738 88.1356 52.282 88.8556 51.946C89.5876 51.61 90.3436 51.442 91.1236 51.442C91.3996 51.442 91.6636 51.484 91.9156 51.568C92.1796 51.64 92.4436 51.682 92.7076 51.694L92.7796 51.46C92.7916 51.244 92.8096 50.974 92.8336 50.65C92.8576 50.326 92.8876 49.99 92.9236 49.642C92.9716 49.282 93.0196 48.94 93.0676 48.616C93.1276 48.292 93.1936 48.034 93.2656 47.842C93.3616 47.566 93.4996 47.332 93.6796 47.14C93.8596 46.936 94.0996 46.834 94.3996 46.834C94.6996 46.834 94.8916 46.93 94.9756 47.122C95.0716 47.314 95.1196 47.554 95.1196 47.842V48.292C94.9516 49.672 94.8196 51.034 94.7236 52.378C94.6396 53.71 94.5976 55.042 94.5976 56.374C94.5976 56.986 94.6276 57.586 94.6876 58.174C94.7476 58.75 94.7776 59.356 94.7776 59.992C94.7776 60.22 94.7416 60.448 94.6696 60.676C94.6096 60.892 94.4296 61 94.1296 61C93.8176 61 93.5776 60.916 93.4096 60.748C93.2416 60.568 93.1216 60.346 93.0496 60.082C92.9776 59.818 92.9176 59.566 92.8696 59.326C92.8456 59.146 92.8216 59.056 92.7976 59.056H92.7256C92.1016 59.74 91.4596 60.28 90.7996 60.676C90.1516 61.072 89.4016 61.27 88.5496 61.27H87.7576ZM88.4416 59.434C88.9096 59.434 89.3596 59.308 89.7916 59.056C90.2236 58.804 90.6076 58.474 90.9436 58.066C91.2916 57.658 91.5616 57.22 91.7536 56.752C91.9576 56.272 92.0596 55.816 92.0596 55.384C92.0596 55.276 92.0356 55.114 91.9876 54.898C91.9396 54.682 91.8796 54.454 91.8076 54.214C91.7356 53.974 91.6576 53.776 91.5736 53.62C91.5016 53.452 91.4356 53.368 91.3756 53.368C90.7996 53.368 90.2536 53.488 89.7376 53.728C89.2216 53.956 88.7596 54.268 88.3516 54.664C87.9556 55.06 87.6376 55.51 87.3976 56.014C87.1696 56.518 87.0556 57.046 87.0556 57.598V58.318C87.1516 58.666 87.3136 58.942 87.5416 59.146C87.7696 59.338 88.0696 59.434 88.4416 59.434ZM99.879 60.82C99.363 60.82 98.931 60.712 98.583 60.496C98.247 60.268 97.983 59.974 97.791 59.614C97.599 59.254 97.461 58.864 97.377 58.444C97.305 58.012 97.269 57.586 97.269 57.166V56.284C97.269 56.248 97.287 56.11 97.323 55.87C97.359 55.618 97.395 55.348 97.431 55.06C97.479 54.772 97.515 54.556 97.539 54.412C97.575 54.244 97.617 54.034 97.665 53.782C97.725 53.518 97.797 53.26 97.881 53.008C97.977 52.744 98.097 52.528 98.241 52.36C98.397 52.18 98.583 52.09 98.799 52.09C99.123 52.09 99.369 52.186 99.537 52.378C99.717 52.57 99.807 52.804 99.807 53.08C99.807 53.308 99.771 53.53 99.699 53.746C99.639 53.962 99.585 54.184 99.537 54.412C99.453 54.868 99.369 55.324 99.285 55.78C99.213 56.236 99.177 56.698 99.177 57.166C99.177 57.334 99.189 57.55 99.213 57.814C99.237 58.078 99.303 58.312 99.411 58.516C99.519 58.72 99.705 58.822 99.969 58.822C100.173 58.822 100.413 58.69 100.689 58.426C100.977 58.162 101.277 57.82 101.589 57.4C101.913 56.98 102.237 56.524 102.561 56.032C102.885 55.528 103.185 55.042 103.461 54.574C103.749 54.094 103.995 53.674 104.199 53.314C104.403 52.942 104.547 52.684 104.631 52.54C104.727 52.408 104.829 52.3 104.937 52.216C105.045 52.132 105.183 52.09 105.351 52.09C105.915 52.09 106.251 52.354 106.359 52.882V53.53C106.359 54.058 106.341 54.586 106.305 55.114C106.281 55.63 106.269 56.134 106.269 56.626V57.688C106.305 57.88 106.383 58.054 106.503 58.21C106.623 58.366 106.731 58.522 106.827 58.678C106.935 58.822 106.989 58.996 106.989 59.2C106.989 59.476 106.905 59.71 106.737 59.902C106.569 60.094 106.347 60.19 106.071 60.19C105.711 60.19 105.423 60.07 105.207 59.83C104.991 59.578 104.823 59.284 104.703 58.948C104.631 58.732 104.547 58.456 104.451 58.12C104.367 57.772 104.283 57.43 104.199 57.094C104.019 57.406 103.815 57.718 103.587 58.03C103.371 58.33 103.143 58.624 102.903 58.912C102.519 59.392 102.069 59.83 101.553 60.226C101.037 60.622 100.479 60.82 99.879 60.82ZM112.863 60.73C111.999 60.73 111.273 60.52 110.685 60.1C110.109 59.668 109.671 59.11 109.371 58.426C109.083 57.73 108.939 56.986 108.939 56.194C108.939 55.294 109.137 54.466 109.533 53.71C109.941 52.954 110.499 52.348 111.207 51.892C111.927 51.424 112.743 51.19 113.655 51.19C113.931 51.19 114.237 51.22 114.573 51.28C114.921 51.328 115.257 51.424 115.581 51.568C115.905 51.7 116.169 51.88 116.373 52.108C116.589 52.336 116.697 52.63 116.697 52.99C116.697 53.254 116.601 53.458 116.409 53.602C116.217 53.746 115.983 53.818 115.707 53.818C115.419 53.818 115.161 53.746 114.933 53.602C114.705 53.446 114.477 53.296 114.249 53.152C114.021 52.996 113.763 52.918 113.475 52.918C113.079 52.918 112.719 53.038 112.395 53.278C112.071 53.518 111.795 53.824 111.567 54.196C111.339 54.568 111.159 54.964 111.027 55.384C110.907 55.792 110.847 56.176 110.847 56.536C110.847 57.148 110.967 57.622 111.207 57.958C111.459 58.282 111.795 58.51 112.215 58.642C112.647 58.762 113.127 58.822 113.655 58.822C114.147 58.822 114.603 58.726 115.023 58.534C115.455 58.342 115.887 58.144 116.319 57.94H116.679C117.219 57.94 117.489 58.21 117.489 58.75C117.489 59.074 117.363 59.35 117.111 59.578C116.871 59.806 116.559 59.998 116.175 60.154C115.791 60.298 115.383 60.412 114.951 60.496C114.519 60.58 114.117 60.64 113.745 60.676C113.373 60.712 113.079 60.73 112.863 60.73ZM122.405 61.36C122.033 61.36 121.757 61.246 121.577 61.018C121.397 60.79 121.277 60.514 121.217 60.19C121.169 59.854 121.145 59.548 121.145 59.272V58.588C121.145 57.832 121.157 57.07 121.181 56.302C121.217 55.534 121.241 54.706 121.253 53.818C120.953 53.83 120.695 53.848 120.479 53.872C120.275 53.896 120.065 53.908 119.849 53.908C119.297 53.908 119.021 53.638 119.021 53.098C119.021 52.894 119.057 52.702 119.129 52.522C119.201 52.33 119.351 52.21 119.579 52.162L121.163 51.802C121.367 51.754 121.499 51.628 121.559 51.424C121.631 51.208 121.667 50.962 121.667 50.686C121.679 50.398 121.697 50.116 121.721 49.84C121.757 49.564 121.847 49.336 121.991 49.156C122.147 48.976 122.405 48.886 122.765 48.886C123.017 48.886 123.203 48.958 123.323 49.102C123.455 49.234 123.545 49.396 123.593 49.588C123.641 49.78 123.665 49.966 123.665 50.146C123.665 50.17 123.659 50.254 123.647 50.398C123.635 50.53 123.617 50.662 123.593 50.794C123.581 50.926 123.575 51.01 123.575 51.046V51.622H125.771C126.035 51.622 126.239 51.748 126.383 52C126.527 52.24 126.599 52.486 126.599 52.738C126.599 52.786 126.581 52.876 126.545 53.008C126.509 53.14 126.443 53.266 126.347 53.386C126.251 53.494 126.119 53.548 125.951 53.548H123.647C123.635 53.548 123.611 53.56 123.575 53.584C123.539 53.596 123.497 53.632 123.449 53.692L123.413 53.746C123.353 54.07 123.311 54.334 123.287 54.538C123.263 54.73 123.245 54.91 123.233 55.078C123.233 55.234 123.233 55.426 123.233 55.654C123.233 56.314 123.245 56.974 123.269 57.634C123.305 58.294 123.323 58.99 123.323 59.722C123.323 59.962 123.305 60.208 123.269 60.46C123.233 60.712 123.149 60.922 123.017 61.09C122.885 61.27 122.681 61.36 122.405 61.36ZM19.412 83.82C19.148 83.82 18.914 83.736 18.71 83.568C18.518 83.388 18.422 83.166 18.422 82.902C18.422 82.506 18.434 82.122 18.458 81.75C18.494 81.378 18.512 81 18.512 80.616V79.428C18.512 78.936 18.494 78.45 18.458 77.97C18.434 77.478 18.356 76.992 18.224 76.512C18.176 76.368 18.134 76.218 18.098 76.062C18.074 75.894 18.062 75.726 18.062 75.558C18.062 75.318 18.122 75.078 18.242 74.838C18.362 74.586 18.578 74.46 18.89 74.46C19.142 74.46 19.346 74.556 19.502 74.748C19.658 74.928 19.778 75.156 19.862 75.432C19.946 75.696 20.006 75.966 20.042 76.242C20.09 76.506 20.132 76.728 20.168 76.908C20.192 77.064 20.228 77.232 20.276 77.412C20.324 77.592 20.348 77.766 20.348 77.934C20.348 77.946 20.36 77.982 20.384 78.042C20.408 78.102 20.432 78.162 20.456 78.222C20.612 77.946 20.786 77.646 20.978 77.322C21.182 76.986 21.404 76.674 21.644 76.386C21.896 76.086 22.172 75.84 22.472 75.648C22.784 75.456 23.126 75.36 23.498 75.36C23.882 75.36 24.17 75.456 24.362 75.648C24.566 75.828 24.728 76.056 24.848 76.332C24.968 76.596 25.088 76.86 25.208 77.124C25.256 77.244 25.286 77.37 25.298 77.502C25.31 77.622 25.34 77.748 25.388 77.88L25.586 77.592C25.826 77.256 26.096 76.89 26.396 76.494C26.708 76.086 27.056 75.738 27.44 75.45C27.824 75.15 28.256 75 28.736 75C29.12 75 29.444 75.114 29.708 75.342C29.984 75.558 30.206 75.84 30.374 76.188C30.554 76.536 30.686 76.896 30.77 77.268C30.854 77.64 30.896 77.982 30.896 78.294V82.11C30.896 82.29 30.866 82.488 30.806 82.704C30.758 82.908 30.668 83.088 30.536 83.244C30.404 83.388 30.218 83.46 29.978 83.46C29.702 83.46 29.48 83.364 29.312 83.172C29.144 82.98 29.06 82.776 29.06 82.56V79.284C29.06 79.248 29.054 79.17 29.042 79.05C29.03 78.93 29.012 78.804 28.988 78.672C28.976 78.54 28.97 78.444 28.97 78.384C28.97 78.288 28.958 78.138 28.934 77.934C28.91 77.73 28.862 77.538 28.79 77.358C28.718 77.178 28.61 77.088 28.466 77.088H28.304C27.944 77.4 27.674 77.7 27.494 77.988C27.314 78.264 27.176 78.54 27.08 78.816C26.984 79.092 26.894 79.386 26.81 79.698C26.726 79.998 26.606 80.328 26.45 80.688C26.366 81 26.228 81.294 26.036 81.57C25.856 81.834 25.604 81.966 25.28 81.966C24.968 81.966 24.728 81.882 24.56 81.714C24.404 81.534 24.284 81.318 24.2 81.066C24.128 80.814 24.068 80.574 24.02 80.346C23.996 80.238 23.954 80.058 23.894 79.806C23.834 79.554 23.768 79.278 23.696 78.978C23.636 78.678 23.576 78.396 23.516 78.132C23.456 77.856 23.414 77.652 23.39 77.52C23.318 77.412 23.246 77.358 23.174 77.358C23.066 77.358 22.952 77.436 22.832 77.592C22.712 77.748 22.622 77.898 22.562 78.042C22.49 78.15 22.388 78.342 22.256 78.618C22.124 78.882 21.998 79.14 21.878 79.392C21.77 79.644 21.698 79.812 21.662 79.896C21.638 79.968 21.566 80.142 21.446 80.418C21.338 80.694 21.212 81.012 21.068 81.372C20.924 81.72 20.792 82.038 20.672 82.326C20.552 82.614 20.474 82.806 20.438 82.902C20.318 83.13 20.192 83.34 20.06 83.532C19.94 83.724 19.724 83.82 19.412 83.82ZM36.2606 84.18C35.7086 84.18 35.1926 84.054 34.7126 83.802C34.2326 83.55 33.8306 83.214 33.5066 82.794C33.1826 82.362 32.9726 81.876 32.8766 81.336V80.418C32.8766 79.746 32.9966 79.068 33.2366 78.384C33.4766 77.7 33.8186 77.07 34.2626 76.494C34.7066 75.906 35.2346 75.438 35.8466 75.09C36.4586 74.73 37.1306 74.55 37.8626 74.55C38.1626 74.55 38.4206 74.604 38.6366 74.712C38.8646 74.82 39.0686 74.934 39.2486 75.054C39.4406 75.162 39.6266 75.228 39.8066 75.252C39.9026 74.76 40.0346 74.436 40.2026 74.28C40.3706 74.112 40.5986 74.028 40.8866 74.028C41.2346 74.028 41.4686 74.142 41.5886 74.37C41.7206 74.586 41.7866 74.862 41.7866 75.198C41.7866 75.858 41.7686 76.506 41.7326 77.142C41.7086 77.778 41.6966 78.432 41.6966 79.104C41.6966 79.632 41.7266 80.178 41.7866 80.742C41.8466 81.306 41.8766 81.852 41.8766 82.38V82.758C41.8766 83.022 41.8226 83.268 41.7146 83.496C41.6186 83.712 41.3966 83.82 41.0486 83.82C40.7246 83.82 40.4906 83.724 40.3466 83.532C40.2146 83.328 40.1246 83.088 40.0766 82.812C40.0406 82.524 40.0046 82.266 39.9686 82.038L39.8966 81.966C39.4886 82.374 39.1226 82.746 38.7986 83.082C38.4866 83.418 38.1386 83.688 37.7546 83.892C37.3706 84.084 36.8726 84.18 36.2606 84.18ZM36.0806 82.362C36.5006 82.362 36.8966 82.236 37.2686 81.984C37.6526 81.72 37.9946 81.384 38.2946 80.976C38.5946 80.556 38.8286 80.118 38.9966 79.662C39.1646 79.206 39.2486 78.78 39.2486 78.384C39.2486 78.084 39.2066 77.784 39.1226 77.484C39.0386 77.172 38.8946 76.908 38.6906 76.692C38.4986 76.476 38.2226 76.368 37.8626 76.368C37.4666 76.368 37.0766 76.506 36.6926 76.782C36.3206 77.058 35.9846 77.412 35.6846 77.844C35.3846 78.264 35.1446 78.708 34.9646 79.176C34.7846 79.632 34.6946 80.046 34.6946 80.418C34.6946 80.718 34.7366 81.018 34.8206 81.318C34.9166 81.618 35.0666 81.87 35.2706 82.074C35.4746 82.266 35.7446 82.362 36.0806 82.362ZM45.2673 83.64C44.9673 83.64 44.7453 83.556 44.6013 83.388C44.4573 83.208 44.3673 82.992 44.3313 82.74C44.2953 82.476 44.2773 82.224 44.2773 81.984C44.2773 81.432 44.2893 80.88 44.3133 80.328C44.3493 79.776 44.3673 79.248 44.3673 78.744C44.3673 78.204 44.3073 77.688 44.1873 77.196C44.0673 76.704 44.0073 76.212 44.0073 75.72V75.018C44.1153 74.766 44.2293 74.598 44.3493 74.514C44.4693 74.418 44.6313 74.37 44.8353 74.37C45.2073 74.37 45.4773 74.49 45.6453 74.73C45.8133 74.958 45.9213 75.234 45.9693 75.558C46.0293 75.87 46.0713 76.158 46.0953 76.422C46.1073 76.554 46.1313 76.812 46.1673 77.196C46.2153 77.58 46.2453 77.94 46.2573 78.276H46.3293L46.4013 78.204C46.6293 77.868 46.8693 77.508 47.1213 77.124C47.3733 76.74 47.6493 76.38 47.9493 76.044C48.2613 75.708 48.6033 75.438 48.9753 75.234C49.3473 75.018 49.7673 74.91 50.2353 74.91C50.8353 74.91 51.3453 75.084 51.7653 75.432C52.1853 75.768 52.5393 76.212 52.8273 76.764C53.1153 77.304 53.3493 77.892 53.5293 78.528C53.7093 79.164 53.8533 79.782 53.9613 80.382C54.0693 80.982 54.1653 81.498 54.2493 81.93V82.38C54.2493 82.644 54.1773 82.908 54.0333 83.172C53.8893 83.424 53.6613 83.55 53.3493 83.55C53.0253 83.55 52.7853 83.466 52.6293 83.298C52.4853 83.13 52.3893 82.914 52.3413 82.65C52.3173 82.542 52.2873 82.368 52.2513 82.128C52.2153 81.876 52.1733 81.606 52.1253 81.318C52.0773 81.018 52.0353 80.742 51.9993 80.49C51.9633 80.226 51.9333 80.034 51.9093 79.914C51.8733 79.674 51.7893 79.392 51.6573 79.068C51.5373 78.732 51.4233 78.444 51.3153 78.204C51.2073 77.952 51.0693 77.688 50.9013 77.412C50.7333 77.136 50.4873 76.998 50.1633 76.998C49.8753 76.998 49.6113 77.1 49.3713 77.304C49.1433 77.508 48.9393 77.748 48.7593 78.024C48.5913 78.3 48.4413 78.546 48.3093 78.762C48.0093 79.242 47.7393 79.722 47.4993 80.202C47.2593 80.682 47.0013 81.204 46.7253 81.768C46.6173 81.996 46.5153 82.26 46.4193 82.56C46.3233 82.848 46.1913 83.1 46.0233 83.316C45.8553 83.532 45.6033 83.64 45.2673 83.64ZM59.3582 84.18C58.8062 84.18 58.2902 84.054 57.8102 83.802C57.3302 83.55 56.9282 83.214 56.6042 82.794C56.2802 82.362 56.0702 81.876 55.9742 81.336V80.418C55.9742 79.746 56.0942 79.068 56.3342 78.384C56.5742 77.7 56.9162 77.07 57.3602 76.494C57.8042 75.906 58.3322 75.438 58.9442 75.09C59.5562 74.73 60.2282 74.55 60.9602 74.55C61.2602 74.55 61.5182 74.604 61.7342 74.712C61.9622 74.82 62.1662 74.934 62.3462 75.054C62.5382 75.162 62.7242 75.228 62.9042 75.252C63.0002 74.76 63.1322 74.436 63.3002 74.28C63.4682 74.112 63.6962 74.028 63.9842 74.028C64.3322 74.028 64.5662 74.142 64.6862 74.37C64.8182 74.586 64.8842 74.862 64.8842 75.198C64.8842 75.858 64.8662 76.506 64.8302 77.142C64.8062 77.778 64.7942 78.432 64.7942 79.104C64.7942 79.632 64.8242 80.178 64.8842 80.742C64.9442 81.306 64.9742 81.852 64.9742 82.38V82.758C64.9742 83.022 64.9202 83.268 64.8122 83.496C64.7162 83.712 64.4942 83.82 64.1462 83.82C63.8222 83.82 63.5882 83.724 63.4442 83.532C63.3122 83.328 63.2222 83.088 63.1742 82.812C63.1382 82.524 63.1022 82.266 63.0662 82.038L62.9942 81.966C62.5862 82.374 62.2202 82.746 61.8962 83.082C61.5842 83.418 61.2362 83.688 60.8522 83.892C60.4682 84.084 59.9702 84.18 59.3582 84.18ZM59.1782 82.362C59.5982 82.362 59.9942 82.236 60.3662 81.984C60.7502 81.72 61.0922 81.384 61.3922 80.976C61.6922 80.556 61.9262 80.118 62.0942 79.662C62.2622 79.206 62.3462 78.78 62.3462 78.384C62.3462 78.084 62.3042 77.784 62.2202 77.484C62.1362 77.172 61.9922 76.908 61.7882 76.692C61.5962 76.476 61.3202 76.368 60.9602 76.368C60.5642 76.368 60.1742 76.506 59.7902 76.782C59.4182 77.058 59.0822 77.412 58.7822 77.844C58.4822 78.264 58.2422 78.708 58.0622 79.176C57.8822 79.632 57.7922 80.046 57.7922 80.418C57.7922 80.718 57.8342 81.018 57.9182 81.318C58.0142 81.618 58.1642 81.87 58.3682 82.074C58.5722 82.266 58.8422 82.362 59.1782 82.362ZM70.507 89.076C70.159 88.956 69.823 88.794 69.499 88.59C69.187 88.398 68.929 88.17 68.725 87.906C68.533 87.654 68.437 87.378 68.437 87.078C68.437 86.802 68.533 86.598 68.725 86.466C68.929 86.334 69.145 86.268 69.373 86.268C69.637 86.268 69.853 86.346 70.021 86.502C70.201 86.67 70.387 86.832 70.579 86.988C70.783 87.156 71.029 87.24 71.317 87.24C71.665 87.24 71.971 87.126 72.235 86.898C72.499 86.67 72.721 86.376 72.901 86.016C73.081 85.656 73.219 85.272 73.315 84.864C73.423 84.456 73.483 84.072 73.495 83.712C73.507 83.628 73.525 83.448 73.549 83.172C73.573 82.884 73.597 82.584 73.621 82.272C73.657 81.96 73.675 81.732 73.675 81.588V81.408C73.675 81.312 73.651 81.264 73.603 81.264H73.531C73.171 81.684 72.799 82.116 72.415 82.56C72.043 83.004 71.623 83.376 71.155 83.676C70.687 83.964 70.147 84.108 69.535 84.108C69.067 84.108 68.629 83.988 68.221 83.748C67.813 83.508 67.483 83.184 67.231 82.776C66.979 82.368 66.853 81.912 66.853 81.408C66.853 80.58 67.015 79.758 67.339 78.942C67.663 78.114 68.113 77.364 68.689 76.692C69.265 76.02 69.931 75.48 70.687 75.072C71.455 74.664 72.283 74.46 73.171 74.46C73.411 74.46 73.663 74.502 73.927 74.586C74.191 74.67 74.413 74.808 74.593 75C74.785 75.18 74.881 75.426 74.881 75.738C74.881 76.014 74.779 76.236 74.575 76.404C74.383 76.572 74.149 76.656 73.873 76.656C73.681 76.656 73.489 76.626 73.297 76.566C73.117 76.506 72.931 76.476 72.739 76.476H72.379C71.719 76.668 71.119 77.01 70.579 77.502C70.051 77.982 69.631 78.546 69.319 79.194C69.007 79.83 68.851 80.478 68.851 81.138V81.75C68.947 82.098 69.145 82.272 69.445 82.272C69.721 82.272 69.997 82.17 70.273 81.966C70.549 81.762 70.819 81.51 71.083 81.21C71.347 80.898 71.593 80.592 71.821 80.292C72.049 79.98 72.259 79.722 72.451 79.518C72.631 79.206 72.835 78.912 73.063 78.636C73.291 78.348 73.501 78.048 73.693 77.736C73.825 77.568 73.951 77.454 74.071 77.394C74.191 77.334 74.335 77.304 74.503 77.304C74.803 77.304 75.019 77.388 75.151 77.556C75.295 77.712 75.397 77.91 75.457 78.15C75.517 78.39 75.559 78.618 75.583 78.834V80.184C75.583 80.676 75.565 81.234 75.529 81.858C75.505 82.482 75.445 83.13 75.349 83.802C75.265 84.462 75.127 85.104 74.935 85.728C74.743 86.352 74.485 86.916 74.161 87.42C73.849 87.924 73.453 88.326 72.973 88.626C72.493 88.926 71.911 89.076 71.227 89.076H70.507ZM82.2607 84.27C81.3967 84.27 80.5987 84.138 79.8667 83.874C79.1467 83.598 78.5647 83.166 78.1207 82.578C77.6767 81.978 77.4547 81.204 77.4547 80.256C77.4547 79.536 77.5687 78.834 77.7967 78.15C78.0367 77.466 78.3787 76.848 78.8227 76.296C79.2667 75.732 79.8007 75.288 80.4247 74.964C81.0487 74.628 81.7507 74.46 82.5307 74.46C83.0587 74.46 83.5507 74.568 84.0067 74.784C84.4747 74.988 84.8467 75.294 85.1227 75.702C85.4107 76.098 85.5547 76.584 85.5547 77.16C85.5547 77.712 85.4407 78.24 85.2127 78.744C84.9847 79.248 84.6727 79.698 84.2767 80.094C83.8807 80.49 83.4307 80.802 82.9267 81.03C82.4347 81.246 81.9187 81.354 81.3787 81.354C81.2947 81.354 81.1087 81.336 80.8207 81.3C80.5327 81.252 80.3047 81.204 80.1367 81.156C80.0167 81.132 79.9207 81.084 79.8487 81.012C79.8247 81 79.7827 80.982 79.7227 80.958C79.6627 80.922 79.6207 80.904 79.5967 80.904C79.6807 81.252 79.8547 81.546 80.1187 81.786C80.3947 82.014 80.7067 82.182 81.0547 82.29C81.4147 82.398 81.7567 82.452 82.0807 82.452C82.3087 82.452 82.5367 82.44 82.7647 82.416C83.0047 82.38 83.2567 82.362 83.5207 82.362C83.7847 82.362 84.0127 82.434 84.2047 82.578C84.3967 82.722 84.4927 82.956 84.4927 83.28C84.4927 83.544 84.4087 83.748 84.2407 83.892C84.0847 84.036 83.8807 84.132 83.6287 84.18C83.3887 84.228 83.1427 84.252 82.8907 84.252C82.6507 84.264 82.4407 84.27 82.2607 84.27ZM81.3787 79.266C81.7387 79.266 82.0927 79.2 82.4407 79.068C82.8007 78.924 83.0947 78.714 83.3227 78.438C83.5627 78.162 83.6827 77.82 83.6827 77.412C83.6827 77.064 83.5747 76.788 83.3587 76.584C83.1547 76.38 82.8787 76.278 82.5307 76.278C82.2187 76.278 81.8887 76.362 81.5407 76.53C81.1927 76.698 80.8627 76.914 80.5507 77.178C80.2507 77.442 80.0047 77.73 79.8127 78.042C79.6207 78.342 79.5247 78.636 79.5247 78.924V78.996C79.8367 79.044 80.1487 79.104 80.4607 79.176C80.7727 79.236 81.0787 79.266 81.3787 79.266ZM88.3935 84.18C88.1775 84.18 88.0155 84.108 87.9075 83.964C87.7995 83.82 87.7275 83.652 87.6915 83.46C87.6555 83.256 87.6195 83.076 87.5835 82.92V81.588C87.5835 80.916 87.6135 80.238 87.6735 79.554C87.7335 78.858 87.7635 78.18 87.7635 77.52C87.7635 77.208 87.7335 76.908 87.6735 76.62C87.6135 76.332 87.5835 76.038 87.5835 75.738V75.252C87.6795 75.072 87.8055 74.94 87.9615 74.856C88.1295 74.772 88.3035 74.73 88.4835 74.73C88.7475 74.73 88.9455 74.808 89.0775 74.964C89.2095 75.108 89.2995 75.282 89.3475 75.486C89.4075 75.69 89.4615 75.876 89.5095 76.044C89.5575 76.2 89.6355 76.29 89.7435 76.314C90.0915 76.086 90.4215 75.864 90.7335 75.648C91.0575 75.432 91.3935 75.258 91.7415 75.126C92.1015 74.982 92.4975 74.91 92.9295 74.91C93.1455 74.91 93.3735 74.958 93.6135 75.054C93.8655 75.15 94.0815 75.288 94.2615 75.468C94.4415 75.636 94.5315 75.846 94.5315 76.098C94.5315 76.41 94.4055 76.638 94.1535 76.782C93.9135 76.926 93.6855 76.998 93.4695 76.998C93.3255 76.998 93.1875 76.968 93.0555 76.908C92.9235 76.848 92.7855 76.818 92.6415 76.818C92.2215 76.818 91.8255 76.926 91.4535 77.142C91.0935 77.346 90.7755 77.592 90.4995 77.88C90.2235 78.168 90.0015 78.438 89.8335 78.69C89.7855 78.798 89.7495 78.978 89.7255 79.23C89.7015 79.482 89.6835 79.77 89.6715 80.094C89.6595 80.406 89.6475 80.712 89.6355 81.012C89.6355 81.312 89.6295 81.57 89.6175 81.786C89.6055 82.182 89.5635 82.566 89.4915 82.938C89.4315 83.298 89.3175 83.598 89.1495 83.838C88.9815 84.066 88.7295 84.18 88.3935 84.18Z" fill="#262F42"/>
<path d="M60.6064 199.148L60.5713 196.512L66.249 196.248L66.2842 199.254L60.6064 199.148ZM73.1836 191.361L72.6738 203.859L68.8418 203.684L69.0527 195.369L67.6465 196.336L66.3281 193.33L69.1934 191.186L73.1836 191.361ZM93.4072 191.801L91.3506 203.982L86.3584 204.088L85.2861 197.777L84.2139 203.631L79.2217 203.807L77.1475 191.801L81.5068 191.414L82.3857 198.709L83.5635 191.414H86.9912L88.3623 198.797L89.0654 191.414L93.4072 191.801ZM102.135 191.326C102.1 191.877 102.067 192.422 102.038 192.961C102.009 193.5 101.971 194.045 101.924 194.596L98.1973 194.789L98.1094 195.896H100.729L100.535 198.621L97.8984 198.709L97.8105 199.992H99.9902H101.537C101.502 200.637 101.464 201.278 101.423 201.917C101.388 202.55 101.355 203.186 101.326 203.824L93.75 204L94.0312 191.326H102.135ZM110.766 191.326C110.73 191.877 110.698 192.422 110.669 192.961C110.64 193.5 110.602 194.045 110.555 194.596L106.828 194.789L106.74 195.896H109.359L109.166 198.621L106.529 198.709L106.441 199.992H108.621H110.168C110.133 200.637 110.095 201.278 110.054 201.917C110.019 202.55 109.986 203.186 109.957 203.824L102.381 204L102.662 191.326H110.766ZM122.218 191.414L117.981 197.268L121.55 203.49L117.472 204.211L114.8 200.414L114.659 204.387L111.003 204.527L111.284 191.062L115.38 191.291L115.063 195.264L117.788 191.062L122.218 191.414ZM130.453 191.326C130.418 191.877 130.386 192.422 130.356 192.961C130.327 193.5 130.289 194.045 130.242 194.596L126.516 194.789L126.428 195.896H129.047L128.854 198.621L126.217 198.709L126.129 199.992H128.309H129.855C129.82 200.637 129.782 201.278 129.741 201.917C129.706 202.55 129.674 203.186 129.645 203.824L122.068 204L122.35 191.326H130.453ZM142.714 191.396L142.081 203.314L137.476 203.736L135.015 197.355L134.628 203.859H130.673L130.989 191.396L135.384 191.186L138.425 197.514L138.565 191.537L142.714 191.396ZM153.393 197.021C153.393 197.842 153.287 198.583 153.076 199.245C152.865 199.901 152.569 200.487 152.188 201.003C151.813 201.513 151.365 201.952 150.844 202.321C150.322 202.69 149.751 202.995 149.13 203.235C148.509 203.47 147.847 203.646 147.144 203.763C146.446 203.874 145.729 203.93 144.99 203.93C144.715 203.93 144.445 203.924 144.182 203.912C143.918 203.895 143.648 203.871 143.373 203.842L143.619 192.047C144.264 191.842 144.926 191.698 145.605 191.616C146.291 191.528 146.971 191.484 147.645 191.484C148.482 191.484 149.253 191.61 149.956 191.862C150.659 192.114 151.266 192.478 151.775 192.952C152.285 193.427 152.681 194.007 152.962 194.692C153.249 195.378 153.393 196.154 153.393 197.021ZM149.789 197.584C149.795 197.268 149.76 196.963 149.684 196.67C149.613 196.377 149.493 196.119 149.323 195.896C149.159 195.668 148.948 195.486 148.69 195.352C148.433 195.211 148.125 195.135 147.768 195.123L147.416 200.572C147.768 200.52 148.087 200.405 148.374 200.229C148.661 200.048 148.907 199.828 149.112 199.57C149.323 199.307 149.484 199.017 149.596 198.7C149.713 198.378 149.777 198.047 149.789 197.707V197.584Z" fill="#FA7071"/>
<path d="M38.7199 105.508L36.1459 118H33.6259L32.0059 108.37H31.9339L31.8439 109.18L30.3319 118H27.9199L25.2019 105.508L26.9479 105.292L29.0899 115.714L29.1799 116.434H29.2519L30.9439 106.462L33.1219 106.264L34.7599 115.714L34.8319 116.434H34.9039L37.0279 105.292L38.7199 105.508ZM43.7854 108.334C44.8174 108.334 45.5794 108.646 46.0714 109.27C46.4794 109.774 46.7314 110.62 46.8274 111.808C46.8634 112.276 46.8814 112.858 46.8814 113.554L46.1434 113.662H41.4814C41.4814 115.174 41.8834 116.128 42.6874 116.524C43.0234 116.692 43.4854 116.776 44.0734 116.776C44.6614 116.776 45.3394 116.584 46.1074 116.2L46.6114 117.316C45.6154 117.916 44.6134 118.216 43.6054 118.216C41.0374 118.216 39.7534 116.596 39.7534 113.356C39.7534 111.82 40.0894 110.602 40.7614 109.702C41.4454 108.79 42.4534 108.334 43.7854 108.334ZM45.1534 112.384C45.1534 111.424 45.0574 110.752 44.8654 110.368C44.6734 109.972 44.2294 109.774 43.5334 109.774C42.8494 109.774 42.3634 110.008 42.0754 110.476C41.7874 110.932 41.6074 111.568 41.5354 112.384H45.1534ZM56.8088 108.334C57.6968 108.334 58.4048 108.592 58.9328 109.108C59.4608 109.612 59.7248 110.416 59.7248 111.52V118H58.1048V111.628C58.1048 110.392 57.4868 109.774 56.2508 109.774C55.8908 109.774 55.5368 109.864 55.1888 110.044C54.8408 110.212 54.5648 110.41 54.3608 110.638V118H52.7408V111.142L52.5968 108.64L53.9108 108.46L54.1448 109.522H54.2168C54.4328 109.246 54.7568 108.982 55.1888 108.73C55.6328 108.466 56.1728 108.334 56.8088 108.334ZM65.9162 108.334C66.9482 108.334 67.7102 108.646 68.2022 109.27C68.6102 109.774 68.8622 110.62 68.9582 111.808C68.9942 112.276 69.0122 112.858 69.0122 113.554L68.2742 113.662H63.6122C63.6122 115.174 64.0142 116.128 64.8182 116.524C65.1542 116.692 65.6162 116.776 66.2042 116.776C66.7922 116.776 67.4702 116.584 68.2382 116.2L68.7422 117.316C67.7462 117.916 66.7442 118.216 65.7362 118.216C63.1682 118.216 61.8842 116.596 61.8842 113.356C61.8842 111.82 62.2202 110.602 62.8922 109.702C63.5762 108.79 64.5842 108.334 65.9162 108.334ZM67.2842 112.384C67.2842 111.424 67.1882 110.752 66.9962 110.368C66.8042 109.972 66.3602 109.774 65.6642 109.774C64.9802 109.774 64.4942 110.008 64.2062 110.476C63.9182 110.932 63.7382 111.568 63.6662 112.384H67.2842ZM74.5822 108.334C75.6142 108.334 76.3762 108.646 76.8682 109.27C77.2762 109.774 77.5282 110.62 77.6242 111.808C77.6602 112.276 77.6782 112.858 77.6782 113.554L76.9402 113.662H72.2782C72.2782 115.174 72.6802 116.128 73.4842 116.524C73.8202 116.692 74.2822 116.776 74.8702 116.776C75.4582 116.776 76.1362 116.584 76.9042 116.2L77.4082 117.316C76.4122 117.916 75.4102 118.216 74.4022 118.216C71.8342 118.216 70.5502 116.596 70.5502 113.356C70.5502 111.82 70.8862 110.602 71.5582 109.702C72.2422 108.79 73.2502 108.334 74.5822 108.334ZM75.9502 112.384C75.9502 111.424 75.8542 110.752 75.6622 110.368C75.4702 109.972 75.0262 109.774 74.3302 109.774C73.6462 109.774 73.1602 110.008 72.8722 110.476C72.5842 110.932 72.4042 111.568 72.3322 112.384H75.9502ZM84.9403 108.91C84.9523 108.91 84.9703 108.904 84.9943 108.892L84.9403 108.424V104.59L86.5603 104.41V115.408L86.7043 117.91L85.3903 118.09L85.1923 116.992H85.1203C84.4003 117.808 83.5363 118.216 82.5283 118.216C81.5203 118.216 80.7163 117.862 80.1163 117.154C79.5163 116.434 79.2163 115.162 79.2163 113.338C79.2163 112.594 79.3003 111.922 79.4683 111.322C79.6363 110.722 79.8523 110.242 80.1163 109.882C80.3803 109.522 80.6863 109.222 81.0343 108.982C81.6463 108.55 82.3303 108.334 83.0863 108.334C83.8423 108.334 84.4603 108.526 84.9403 108.91ZM83.2483 109.774C82.9243 109.774 82.6483 109.816 82.4203 109.9C82.1923 109.972 81.9583 110.116 81.7183 110.332C81.2023 110.8 80.9443 111.754 80.9443 113.194C80.9443 114.622 81.1063 115.576 81.4303 116.056C81.7663 116.536 82.3003 116.776 83.0322 116.776C83.4403 116.776 83.8183 116.686 84.1663 116.506C84.5143 116.314 84.7723 116.11 84.9403 115.894V110.278C84.4723 109.942 83.9083 109.774 83.2483 109.774ZM95.0253 108.55H97.5993L97.3833 109.918H95.0253V114.31C95.0253 115.246 95.1033 115.9 95.2593 116.272C95.4273 116.632 95.7993 116.812 96.3753 116.812C96.6993 116.812 97.0173 116.746 97.3293 116.614L97.7973 117.64C97.6533 117.784 97.3893 117.916 97.0053 118.036C96.6213 118.156 96.2733 118.216 95.9613 118.216C94.9053 118.216 94.2153 117.922 93.8913 117.334C93.5673 116.746 93.4053 115.774 93.4053 114.418V109.918H91.8573L92.0373 108.658L93.4053 108.55L93.4953 106.57L95.0253 106.12V108.55ZM99.6983 109.864C100.01 109.396 100.442 109.024 100.994 108.748C101.558 108.472 102.212 108.334 102.956 108.334C103.712 108.334 104.342 108.478 104.846 108.766C105.362 109.054 105.74 109.456 105.98 109.972C106.4 110.896 106.61 112.03 106.61 113.374C106.61 114.67 106.31 115.768 105.71 116.668C105.398 117.148 104.96 117.526 104.396 117.802C103.844 118.078 103.19 118.216 102.434 118.216C101.69 118.216 101.06 118.072 100.544 117.784C100.04 117.496 99.6683 117.088 99.4283 116.56C99.0083 115.648 98.7983 114.52 98.7983 113.176C98.7983 111.88 99.0983 110.776 99.6983 109.864ZM104.288 110.422C104.132 110.23 103.916 110.074 103.64 109.954C103.364 109.834 103.028 109.774 102.632 109.774C102.248 109.774 101.918 109.846 101.642 109.99C101.366 110.134 101.156 110.308 101.012 110.512C100.868 110.704 100.76 110.98 100.688 111.34C100.58 111.88 100.526 112.462 100.526 113.086C100.526 113.71 100.538 114.172 100.562 114.472C100.586 114.76 100.64 115.06 100.724 115.372C100.82 115.684 100.952 115.936 101.12 116.128C101.48 116.56 102.032 116.776 102.776 116.776C103.16 116.776 103.49 116.704 103.766 116.56C104.042 116.416 104.252 116.248 104.396 116.056C104.54 115.852 104.648 115.57 104.72 115.21C104.828 114.67 104.882 114.088 104.882 113.464C104.882 112.84 104.87 112.384 104.846 112.096C104.822 111.796 104.762 111.49 104.666 111.178C104.582 110.866 104.456 110.614 104.288 110.422ZM112.829 107.686C112.829 106.498 113.141 105.64 113.765 105.112C114.389 104.584 115.169 104.32 116.105 104.32C116.789 104.32 117.449 104.446 118.085 104.698L117.761 105.904C117.245 105.796 116.795 105.742 116.411 105.742C115.103 105.742 114.449 106.384 114.449 107.668V108.55H117.203L116.987 109.918H114.449V118H112.829V109.918H111.443L111.623 108.658L112.829 108.55V107.686ZM120.208 118H118.588V108.64L120.208 108.46V118ZM119.326 107.938C118.594 107.938 118.228 107.53 118.228 106.714C118.228 106.414 118.324 106.156 118.516 105.94C118.72 105.724 119.032 105.616 119.452 105.616C120.184 105.616 120.55 106.024 120.55 106.84C120.55 107.14 120.448 107.398 120.244 107.614C120.052 107.83 119.746 107.938 119.326 107.938ZM127.156 108.334C128.044 108.334 128.752 108.592 129.28 109.108C129.808 109.612 130.072 110.416 130.072 111.52V118H128.452V111.628C128.452 110.392 127.834 109.774 126.598 109.774C126.238 109.774 125.884 109.864 125.536 110.044C125.188 110.212 124.912 110.41 124.708 110.638V118H123.088V111.142L122.944 108.64L124.258 108.46L124.492 109.522H124.564C124.78 109.246 125.104 108.982 125.536 108.73C125.98 108.466 126.52 108.334 127.156 108.334ZM137.02 111.412C137.02 110.32 136.522 109.774 135.526 109.774C134.89 109.774 134.032 109.942 132.952 110.278L132.376 109.144C133.408 108.604 134.524 108.334 135.724 108.334C137.176 108.334 138.064 108.766 138.388 109.63C138.556 110.074 138.64 110.662 138.64 111.394V115.228C138.64 116.092 138.886 116.776 139.378 117.28L138.424 118.216C138.208 118.084 137.986 117.892 137.758 117.64C137.542 117.376 137.392 117.118 137.308 116.866H137.254C136.594 117.766 135.682 118.216 134.518 118.216C132.802 118.216 131.944 117.322 131.944 115.534C131.944 113.95 133.06 112.996 135.292 112.672L137.02 112.42V111.412ZM133.672 115.732C133.672 116.428 134.098 116.776 134.95 116.776C135.814 116.776 136.504 116.476 137.02 115.876V113.68C135.508 113.884 134.578 114.124 134.23 114.4C133.858 114.7 133.672 115.144 133.672 115.732ZM143.022 115.12C143.022 115.708 143.07 116.158 143.166 116.47C143.262 116.77 143.478 117.094 143.814 117.442L142.608 118.396C142.116 117.88 141.792 117.442 141.636 117.082C141.48 116.722 141.402 116.11 141.402 115.246V104.59L143.022 104.41V115.12ZM147.56 118H145.94V108.64L147.56 108.46V118ZM146.678 107.938C145.946 107.938 145.58 107.53 145.58 106.714C145.58 106.414 145.676 106.156 145.868 105.94C146.072 105.724 146.384 105.616 146.804 105.616C147.536 105.616 147.902 106.024 147.902 106.84C147.902 107.14 147.8 107.398 147.596 107.614C147.404 107.83 147.098 107.938 146.678 107.938ZM155.786 108.55V110.044L151.124 116.632H156.146L155.876 118H149.342V116.488L153.896 109.918H149.378L149.612 108.55H155.786ZM161.172 108.334C162.204 108.334 162.966 108.646 163.458 109.27C163.866 109.774 164.118 110.62 164.214 111.808C164.25 112.276 164.268 112.858 164.268 113.554L163.53 113.662H158.868C158.868 115.174 159.27 116.128 160.074 116.524C160.41 116.692 160.872 116.776 161.46 116.776C162.048 116.776 162.726 116.584 163.494 116.2L163.998 117.316C163.002 117.916 162 118.216 160.992 118.216C158.424 118.216 157.14 116.596 157.14 113.356C157.14 111.82 157.476 110.602 158.148 109.702C158.832 108.79 159.84 108.334 161.172 108.334ZM162.54 112.384C162.54 111.424 162.444 110.752 162.252 110.368C162.06 109.972 161.616 109.774 160.92 109.774C160.236 109.774 159.75 110.008 159.462 110.476C159.174 110.932 158.994 111.568 158.922 112.384H162.54ZM38.4853 128.55H41.0593L40.8433 129.918H38.4853V134.31C38.4853 135.246 38.5633 135.9 38.7193 136.272C38.8873 136.632 39.2593 136.812 39.8353 136.812C40.1593 136.812 40.4773 136.746 40.7893 136.614L41.2573 137.64C41.1133 137.784 40.8493 137.916 40.4653 138.036C40.0813 138.156 39.7333 138.216 39.4213 138.216C38.3653 138.216 37.6753 137.922 37.3513 137.334C37.0273 136.746 36.8653 135.774 36.8653 134.418V129.918H35.3173L35.4973 128.658L36.8653 128.55L36.9553 126.57L38.4853 126.12V128.55ZM44.4902 129.36C45.1982 128.676 46.0022 128.334 46.9022 128.334C47.8142 128.334 48.5342 128.592 49.0622 129.108C49.6022 129.612 49.8722 130.416 49.8722 131.52V138H48.2342V131.628C48.2342 130.392 47.6162 129.774 46.3802 129.774C46.0202 129.774 45.6662 129.864 45.3182 130.044C44.9702 130.212 44.6942 130.41 44.4902 130.638V138H42.8882V124.59L44.4902 124.41V128.514L44.4182 129.342L44.4902 129.36ZM56.0637 128.334C57.0957 128.334 57.8577 128.646 58.3497 129.27C58.7577 129.774 59.0097 130.62 59.1057 131.808C59.1417 132.276 59.1597 132.858 59.1597 133.554L58.4217 133.662H53.7597C53.7597 135.174 54.1617 136.128 54.9657 136.524C55.3017 136.692 55.7637 136.776 56.3517 136.776C56.9397 136.776 57.6177 136.584 58.3857 136.2L58.8897 137.316C57.8937 137.916 56.8917 138.216 55.8837 138.216C53.3157 138.216 52.0317 136.596 52.0317 133.356C52.0317 131.82 52.3677 130.602 53.0397 129.702C53.7237 128.79 54.7317 128.334 56.0637 128.334ZM57.4317 132.384C57.4317 131.424 57.3357 130.752 57.1437 130.368C56.9517 129.972 56.5077 129.774 55.8117 129.774C55.1277 129.774 54.6417 130.008 54.3537 130.476C54.0657 130.932 53.8857 131.568 53.8137 132.384H57.4317ZM77.2951 125.508L74.7211 138H72.2011L70.5811 128.37H70.5091L70.4191 129.18L68.9071 138H66.4951L63.7771 125.508L65.5231 125.292L67.6651 135.714L67.7551 136.434H67.8271L69.5191 126.462L71.6971 126.264L73.3351 135.714L73.4071 136.434H73.4791L75.6031 125.292L77.2951 125.508ZM82.3606 128.334C83.3926 128.334 84.1546 128.646 84.6466 129.27C85.0546 129.774 85.3066 130.62 85.4026 131.808C85.4386 132.276 85.4566 132.858 85.4566 133.554L84.7186 133.662H80.0566C80.0566 135.174 80.4586 136.128 81.2626 136.524C81.5986 136.692 82.0606 136.776 82.6486 136.776C83.2366 136.776 83.9146 136.584 84.6826 136.2L85.1866 137.316C84.1906 137.916 83.1886 138.216 82.1806 138.216C79.6126 138.216 78.3286 136.596 78.3286 133.356C78.3286 131.82 78.6646 130.602 79.3366 129.702C80.0206 128.79 81.0286 128.334 82.3606 128.334ZM83.7286 132.384C83.7286 131.424 83.6326 130.752 83.4406 130.368C83.2486 129.972 82.8046 129.774 82.1086 129.774C81.4246 129.774 80.9386 130.008 80.6506 130.476C80.3626 130.932 80.1826 131.568 80.1106 132.384H83.7286ZM94.1406 129.72C94.6326 130.5 94.8786 131.616 94.8786 133.068C94.8786 135.06 94.4466 136.44 93.5826 137.208C92.8266 137.88 91.8786 138.216 90.7386 138.216C89.5986 138.216 88.5306 137.868 87.5346 137.172V124.59L89.1546 124.41V128.46L89.0646 129.36L89.1186 129.396C89.6706 128.688 90.4986 128.334 91.6026 128.334C92.7066 128.334 93.5526 128.796 94.1406 129.72ZM92.4306 136.218C92.9106 135.738 93.1506 134.796 93.1506 133.392C93.1506 131.988 92.9706 131.034 92.6106 130.53C92.2626 130.026 91.7466 129.774 91.0626 129.774C90.1866 129.774 89.5506 130.068 89.1546 130.656V136.272C89.6226 136.62 90.1866 136.794 90.8466 136.794C91.5186 136.794 92.0466 136.602 92.4306 136.218ZM96.4143 131.052C96.4143 130.224 96.7023 129.564 97.2783 129.072C97.8663 128.58 98.6223 128.334 99.5463 128.334C100.47 128.334 101.19 128.562 101.706 129.018C102.222 129.462 102.516 130.062 102.588 130.818L100.914 131.16C100.89 130.716 100.746 130.368 100.482 130.116C100.218 129.864 99.8763 129.738 99.4563 129.738C99.0363 129.738 98.7123 129.84 98.4843 130.044C98.2563 130.236 98.1423 130.476 98.1423 130.764C98.1423 131.052 98.1903 131.286 98.2863 131.466C98.3823 131.646 98.5383 131.808 98.7543 131.952C99.0423 132.156 99.4443 132.366 99.9603 132.582C100.476 132.786 100.854 132.954 101.094 133.086C101.334 133.206 101.61 133.38 101.922 133.608C102.51 134.028 102.804 134.634 102.804 135.426C102.804 136.206 102.492 136.866 101.868 137.406C101.244 137.946 100.422 138.216 99.4023 138.216C98.3823 138.216 97.3683 137.892 96.3603 137.244L96.9903 136.056C98.1183 136.536 98.9883 136.776 99.6003 136.776C100.584 136.776 101.076 136.392 101.076 135.624C101.076 135.276 100.92 134.988 100.608 134.76C100.308 134.52 99.9003 134.292 99.3843 134.076C98.8683 133.848 98.4843 133.674 98.2323 133.554C97.9923 133.422 97.7103 133.236 97.3863 132.996C96.7383 132.516 96.4143 131.868 96.4143 131.052ZM106.471 138H104.851V128.64L106.471 128.46V138ZM105.589 127.938C104.857 127.938 104.491 127.53 104.491 126.714C104.491 126.414 104.587 126.156 104.779 125.94C104.983 125.724 105.295 125.616 105.715 125.616C106.447 125.616 106.813 126.024 106.813 126.84C106.813 127.14 106.711 127.398 106.507 127.614C106.315 127.83 106.009 127.938 105.589 127.938ZM111.241 128.55H113.815L113.599 129.918H111.241V134.31C111.241 135.246 111.319 135.9 111.475 136.272C111.643 136.632 112.015 136.812 112.591 136.812C112.915 136.812 113.233 136.746 113.545 136.614L114.013 137.64C113.869 137.784 113.605 137.916 113.221 138.036C112.837 138.156 112.489 138.216 112.177 138.216C111.121 138.216 110.431 137.922 110.107 137.334C109.783 136.746 109.621 135.774 109.621 134.418V129.918H108.073L108.253 128.658L109.621 128.55L109.711 126.57L111.241 126.12V128.55ZM119.046 128.334C120.078 128.334 120.84 128.646 121.332 129.27C121.74 129.774 121.992 130.62 122.088 131.808C122.124 132.276 122.142 132.858 122.142 133.554L121.404 133.662H116.742C116.742 135.174 117.144 136.128 117.948 136.524C118.284 136.692 118.746 136.776 119.334 136.776C119.922 136.776 120.6 136.584 121.368 136.2L121.872 137.316C120.876 137.916 119.874 138.216 118.866 138.216C116.298 138.216 115.014 136.596 115.014 133.356C115.014 131.82 115.35 130.602 116.022 129.702C116.706 128.79 117.714 128.334 119.046 128.334ZM120.414 132.384C120.414 131.424 120.318 130.752 120.126 130.368C119.934 129.972 119.49 129.774 118.794 129.774C118.11 129.774 117.624 130.008 117.336 130.476C117.048 130.932 116.868 131.568 116.796 132.384H120.414ZM129.892 128.55H132.466L132.25 129.918H129.892V134.31C129.892 135.246 129.97 135.9 130.126 136.272C130.294 136.632 130.666 136.812 131.242 136.812C131.566 136.812 131.884 136.746 132.196 136.614L132.664 137.64C132.52 137.784 132.256 137.916 131.872 138.036C131.488 138.156 131.14 138.216 130.828 138.216C129.772 138.216 129.082 137.922 128.758 137.334C128.434 136.746 128.272 135.774 128.272 134.418V129.918H126.724L126.904 128.658L128.272 128.55L128.362 126.57L129.892 126.12V128.55ZM135.896 129.36C136.604 128.676 137.408 128.334 138.308 128.334C139.22 128.334 139.94 128.592 140.468 129.108C141.008 129.612 141.278 130.416 141.278 131.52V138H139.64V131.628C139.64 130.392 139.022 129.774 137.786 129.774C137.426 129.774 137.072 129.864 136.724 130.044C136.376 130.212 136.1 130.41 135.896 130.638V138H134.294V124.59L135.896 124.41V128.514L135.824 129.342L135.896 129.36ZM145.688 138H144.068V128.64L145.688 128.46V138ZM144.806 127.938C144.074 127.938 143.708 127.53 143.708 126.714C143.708 126.414 143.804 126.156 143.996 125.94C144.2 125.724 144.512 125.616 144.932 125.616C145.664 125.616 146.03 126.024 146.03 126.84C146.03 127.14 145.928 127.398 145.724 127.614C145.532 127.83 145.226 127.938 144.806 127.938ZM147.848 131.052C147.848 130.224 148.136 129.564 148.712 129.072C149.3 128.58 150.056 128.334 150.98 128.334C151.904 128.334 152.624 128.562 153.14 129.018C153.656 129.462 153.95 130.062 154.022 130.818L152.348 131.16C152.324 130.716 152.18 130.368 151.916 130.116C151.652 129.864 151.31 129.738 150.89 129.738C150.47 129.738 150.146 129.84 149.918 130.044C149.69 130.236 149.576 130.476 149.576 130.764C149.576 131.052 149.624 131.286 149.72 131.466C149.816 131.646 149.972 131.808 150.188 131.952C150.476 132.156 150.878 132.366 151.394 132.582C151.91 132.786 152.288 132.954 152.528 133.086C152.768 133.206 153.044 133.38 153.356 133.608C153.944 134.028 154.238 134.634 154.238 135.426C154.238 136.206 153.926 136.866 153.302 137.406C152.678 137.946 151.856 138.216 150.836 138.216C149.816 138.216 148.802 137.892 147.794 137.244L148.424 136.056C149.552 136.536 150.422 136.776 151.034 136.776C152.018 136.776 152.51 136.392 152.51 135.624C152.51 135.276 152.354 134.988 152.042 134.76C151.742 134.52 151.334 134.292 150.818 134.076C150.302 133.848 149.918 133.674 149.666 133.554C149.426 133.422 149.144 133.236 148.82 132.996C148.172 132.516 147.848 131.868 147.848 131.052ZM70.2235 148.442L71.7175 148.622L69.6115 158H67.5055L65.9035 150.962H65.7955L64.2655 158H62.1595L60.0355 148.622L61.6195 148.442L63.2215 156.38H63.3475L64.9855 149.09L66.8035 148.91L68.5315 156.38H68.6575L70.2235 148.442ZM76.8586 148.334C77.8906 148.334 78.6526 148.646 79.1446 149.27C79.5526 149.774 79.8046 150.62 79.9006 151.808C79.9366 152.276 79.9546 152.858 79.9546 153.554L79.2166 153.662H74.5546C74.5546 155.174 74.9566 156.128 75.7606 156.524C76.0966 156.692 76.5586 156.776 77.1466 156.776C77.7346 156.776 78.4126 156.584 79.1806 156.2L79.6846 157.316C78.6886 157.916 77.6866 158.216 76.6786 158.216C74.1106 158.216 72.8266 156.596 72.8266 153.356C72.8266 151.82 73.1626 150.602 73.8346 149.702C74.5186 148.79 75.5266 148.334 76.8586 148.334ZM78.2266 152.384C78.2266 151.424 78.1306 150.752 77.9386 150.368C77.7466 149.972 77.3026 149.774 76.6066 149.774C75.9226 149.774 75.4366 150.008 75.1486 150.476C74.8606 150.932 74.6806 151.568 74.6086 152.384H78.2266ZM85.5246 148.334C86.5566 148.334 87.3186 148.646 87.8106 149.27C88.2186 149.774 88.4706 150.62 88.5666 151.808C88.6026 152.276 88.6206 152.858 88.6206 153.554L87.8826 153.662H83.2206C83.2206 155.174 83.6226 156.128 84.4266 156.524C84.7626 156.692 85.2246 156.776 85.8126 156.776C86.4006 156.776 87.0786 156.584 87.8466 156.2L88.3506 157.316C87.3546 157.916 86.3526 158.216 85.3446 158.216C82.7766 158.216 81.4926 156.596 81.4926 153.356C81.4926 151.82 81.8286 150.602 82.5006 149.702C83.1846 148.79 84.1926 148.334 85.5246 148.334ZM86.8926 152.384C86.8926 151.424 86.7966 150.752 86.6046 150.368C86.4126 149.972 85.9686 149.774 85.2726 149.774C84.5886 149.774 84.1026 150.008 83.8146 150.476C83.5266 150.932 83.3466 151.568 83.2746 152.384H86.8926ZM92.3186 158H90.6986V144.59L92.3186 144.41V158ZM97.8626 158H95.8106L92.3726 153.212L95.8466 148.46L97.4486 148.946L94.1006 153.23L97.8626 158ZM102.593 148.334C103.625 148.334 104.387 148.646 104.879 149.27C105.287 149.774 105.539 150.62 105.635 151.808C105.671 152.276 105.689 152.858 105.689 153.554L104.951 153.662H100.289C100.289 155.174 100.691 156.128 101.495 156.524C101.831 156.692 102.293 156.776 102.881 156.776C103.469 156.776 104.147 156.584 104.915 156.2L105.419 157.316C104.423 157.916 103.421 158.216 102.413 158.216C99.845 158.216 98.561 156.596 98.561 153.356C98.561 151.82 98.897 150.602 99.569 149.702C100.253 148.79 101.261 148.334 102.593 148.334ZM103.961 152.384C103.961 151.424 103.865 150.752 103.673 150.368C103.481 149.972 103.037 149.774 102.341 149.774C101.657 149.774 101.171 150.008 100.883 150.476C100.595 150.932 100.415 151.568 100.343 152.384H103.961ZM111.925 148.334C112.813 148.334 113.521 148.592 114.049 149.108C114.577 149.612 114.841 150.416 114.841 151.52V158H113.221V151.628C113.221 150.392 112.603 149.774 111.367 149.774C111.007 149.774 110.653 149.864 110.305 150.044C109.957 150.212 109.681 150.41 109.477 150.638V158H107.857V151.142L107.713 148.64L109.027 148.46L109.261 149.522H109.333C109.549 149.246 109.873 148.982 110.305 148.73C110.749 148.466 111.289 148.334 111.925 148.334ZM122.724 148.91C122.736 148.91 122.754 148.904 122.778 148.892L122.724 148.424V144.59L124.344 144.41V155.408L124.488 157.91L123.174 158.09L122.976 156.992H122.904C122.184 157.808 121.32 158.216 120.312 158.216C119.304 158.216 118.5 157.862 117.9 157.154C117.3 156.434 117 155.162 117 153.338C117 152.594 117.084 151.922 117.252 151.322C117.42 150.722 117.636 150.242 117.9 149.882C118.164 149.522 118.47 149.222 118.818 148.982C119.43 148.55 120.114 148.334 120.87 148.334C121.626 148.334 122.244 148.526 122.724 148.91ZM121.032 149.774C120.708 149.774 120.432 149.816 120.204 149.9C119.976 149.972 119.742 150.116 119.502 150.332C118.986 150.8 118.728 151.754 118.728 153.194C118.728 154.622 118.89 155.576 119.214 156.056C119.55 156.536 120.084 156.776 120.816 156.776C121.224 156.776 121.602 156.686 121.95 156.506C122.298 156.314 122.556 156.11 122.724 155.894V150.278C122.256 149.942 121.692 149.774 121.032 149.774ZM127.966 158.216C127.234 158.216 126.868 157.808 126.868 156.992C126.868 156.692 126.964 156.434 127.156 156.218C127.36 156.002 127.672 155.894 128.092 155.894C128.824 155.894 129.19 156.302 129.19 157.118C129.19 157.418 129.088 157.676 128.884 157.892C128.692 158.108 128.386 158.216 127.966 158.216Z" fill="#272F42"/>
</svg>
