<svg width="199" height="262" viewBox="0 0 199 262" fill="none" xmlns="http://www.w3.org/2000/svg">
<path d="M1.40584 13.8729C1.49488 6.80239 7.2589 1.18457 14.3508 1.18457H169.35C176.367 1.18457 182.113 6.64892 182.397 13.6453C184.015 53.5562 189.187 172.205 196.218 245.149C196.956 252.803 191.013 259.492 183.333 259.624C98.0822 261.092 48.7659 261.806 22.6125 258.111C18.0207 257.462 14.396 254.112 13.3543 249.584C6.84371 221.285 3.71168 173.326 2.28297 126.888C0.855355 80.4848 1.13071 35.7199 1.40584 13.8729Z" fill="#FCFCF5" stroke="#272F42" stroke-width="2.36905"/>
<path d="M2 22.2715H184" stroke="#272F42" stroke-opacity="0.35" stroke-width="0.7"/>
<path d="M11 238.116H196" stroke="#272F42" stroke-opacity="0.35" stroke-width="0.7"/>
<path d="M2 40.1797H184" stroke="#272F42" stroke-opacity="0.35" stroke-width="0.7"/>
<path d="M3 60.916H185" stroke="#272F42" stroke-opacity="0.35" stroke-width="0.7"/>
<path d="M3 80.71H186" stroke="#272F42" stroke-opacity="0.35" stroke-width="0.7"/>
<path d="M3 100.503H187" stroke="#272F42" stroke-opacity="0.35" stroke-width="0.7"/>
<path d="M3 120.297H188" stroke="#272F42" stroke-opacity="0.35" stroke-width="0.7"/>
<path d="M4 139.148H189" stroke="#272F42" stroke-opacity="0.35" stroke-width="0.7"/>
<path d="M4 158.942H190" stroke="#272F42" stroke-opacity="0.35" stroke-width="0.7"/>
<path d="M4 178.735H191" stroke="#272F42" stroke-opacity="0.35" stroke-width="0.7"/>
<path d="M6 198.529H193" stroke="#272F42" stroke-opacity="0.35" stroke-width="0.7"/>
<path d="M8 218.322H194" stroke="#272F42" stroke-opacity="0.35" stroke-width="0.7"/>
<path d="M20.4453 39V29.25H17.1094V27.5547H25.8906V29.25H22.5703V39H20.4453ZM30.4219 37.6094C31.1146 37.6094 31.6354 37.3568 31.9844 36.8516C32.3333 36.3464 32.5078 35.6224 32.5078 34.6797C32.5078 33.7266 32.3333 33 31.9844 32.5C31.6354 32 31.1094 31.75 30.4062 31.75C29.7135 31.75 29.1901 32.0026 28.8359 32.5078C28.487 33.0078 28.3125 33.7344 28.3125 34.6875C28.3125 35.625 28.4896 36.3464 28.8438 36.8516C29.1979 37.3568 29.724 37.6094 30.4219 37.6094ZM30.3672 39.1641C29.0964 39.1641 28.0964 38.7526 27.3672 37.9297C26.638 37.1068 26.2734 36.0234 26.2734 34.6797C26.2734 33.2943 26.638 32.2031 27.3672 31.4062C28.0964 30.6042 29.125 30.2031 30.4531 30.2031C31.7344 30.2031 32.737 30.612 33.4609 31.4297C34.1901 32.2422 34.5547 33.3255 34.5547 34.6797C34.5547 36.0495 34.1875 37.1406 33.4531 37.9531C32.7188 38.7604 31.6901 39.1641 30.3672 39.1641ZM35.9688 39.0469V36.9766H38.0391V39.0469H35.9688ZM35.9688 32.4297V30.3594H38.0391V32.4297H35.9688Z" fill="#272F42"/>
<path d="M164.294 182H49V215.167H164.294V182Z" stroke="#FA7070" stroke-width="2.36905"/>
<path d="M19.412 60.82C19.148 60.82 18.914 60.736 18.71 60.568C18.518 60.388 18.422 60.166 18.422 59.902C18.422 59.506 18.434 59.122 18.458 58.75C18.494 58.378 18.512 58 18.512 57.616V56.428C18.512 55.936 18.494 55.45 18.458 54.97C18.434 54.478 18.356 53.992 18.224 53.512C18.176 53.368 18.134 53.218 18.098 53.062C18.074 52.894 18.062 52.726 18.062 52.558C18.062 52.318 18.122 52.078 18.242 51.838C18.362 51.586 18.578 51.46 18.89 51.46C19.142 51.46 19.346 51.556 19.502 51.748C19.658 51.928 19.778 52.156 19.862 52.432C19.946 52.696 20.006 52.966 20.042 53.242C20.09 53.506 20.132 53.728 20.168 53.908C20.192 54.064 20.228 54.232 20.276 54.412C20.324 54.592 20.348 54.766 20.348 54.934C20.348 54.946 20.36 54.982 20.384 55.042C20.408 55.102 20.432 55.162 20.456 55.222C20.612 54.946 20.786 54.646 20.978 54.322C21.182 53.986 21.404 53.674 21.644 53.386C21.896 53.086 22.172 52.84 22.472 52.648C22.784 52.456 23.126 52.36 23.498 52.36C23.882 52.36 24.17 52.456 24.362 52.648C24.566 52.828 24.728 53.056 24.848 53.332C24.968 53.596 25.088 53.86 25.208 54.124C25.256 54.244 25.286 54.37 25.298 54.502C25.31 54.622 25.34 54.748 25.388 54.88L25.586 54.592C25.826 54.256 26.096 53.89 26.396 53.494C26.708 53.086 27.056 52.738 27.44 52.45C27.824 52.15 28.256 52 28.736 52C29.12 52 29.444 52.114 29.708 52.342C29.984 52.558 30.206 52.84 30.374 53.188C30.554 53.536 30.686 53.896 30.77 54.268C30.854 54.64 30.896 54.982 30.896 55.294V59.11C30.896 59.29 30.866 59.488 30.806 59.704C30.758 59.908 30.668 60.088 30.536 60.244C30.404 60.388 30.218 60.46 29.978 60.46C29.702 60.46 29.48 60.364 29.312 60.172C29.144 59.98 29.06 59.776 29.06 59.56V56.284C29.06 56.248 29.054 56.17 29.042 56.05C29.03 55.93 29.012 55.804 28.988 55.672C28.976 55.54 28.97 55.444 28.97 55.384C28.97 55.288 28.958 55.138 28.934 54.934C28.91 54.73 28.862 54.538 28.79 54.358C28.718 54.178 28.61 54.088 28.466 54.088H28.304C27.944 54.4 27.674 54.7 27.494 54.988C27.314 55.264 27.176 55.54 27.08 55.816C26.984 56.092 26.894 56.386 26.81 56.698C26.726 56.998 26.606 57.328 26.45 57.688C26.366 58 26.228 58.294 26.036 58.57C25.856 58.834 25.604 58.966 25.28 58.966C24.968 58.966 24.728 58.882 24.56 58.714C24.404 58.534 24.284 58.318 24.2 58.066C24.128 57.814 24.068 57.574 24.02 57.346C23.996 57.238 23.954 57.058 23.894 56.806C23.834 56.554 23.768 56.278 23.696 55.978C23.636 55.678 23.576 55.396 23.516 55.132C23.456 54.856 23.414 54.652 23.39 54.52C23.318 54.412 23.246 54.358 23.174 54.358C23.066 54.358 22.952 54.436 22.832 54.592C22.712 54.748 22.622 54.898 22.562 55.042C22.49 55.15 22.388 55.342 22.256 55.618C22.124 55.882 21.998 56.14 21.878 56.392C21.77 56.644 21.698 56.812 21.662 56.896C21.638 56.968 21.566 57.142 21.446 57.418C21.338 57.694 21.212 58.012 21.068 58.372C20.924 58.72 20.792 59.038 20.672 59.326C20.552 59.614 20.474 59.806 20.438 59.902C20.318 60.13 20.192 60.34 20.06 60.532C19.94 60.724 19.724 60.82 19.412 60.82ZM35.6486 65.716C35.4326 65.716 35.2706 65.608 35.1626 65.392C35.0546 65.188 35.0006 64.984 35.0006 64.78C35.0006 64.396 35.0846 64.03 35.2526 63.682C35.4206 63.346 35.5706 63.004 35.7026 62.656C35.7626 62.5 35.8346 62.296 35.9186 62.044C36.0146 61.804 36.1046 61.558 36.1886 61.306C36.2846 61.054 36.3626 60.838 36.4226 60.658C36.4826 60.478 36.5126 60.376 36.5126 60.352V60.298C35.8526 60.25 35.3006 60.076 34.8566 59.776C34.4126 59.476 34.0586 59.098 33.7946 58.642C33.5306 58.186 33.3326 57.688 33.2006 57.148C33.0686 56.596 32.9786 56.038 32.9306 55.474C32.8946 54.91 32.8766 54.382 32.8766 53.89C32.8766 53.734 32.8826 53.53 32.8946 53.278C32.9066 53.014 32.9366 52.75 32.9846 52.486C33.0446 52.222 33.1346 52 33.2546 51.82C33.3866 51.64 33.5666 51.55 33.7946 51.55C34.2386 51.55 34.5266 51.712 34.6586 52.036C34.8026 52.36 34.8746 52.714 34.8746 53.098C34.8746 53.362 34.8566 53.608 34.8206 53.836C34.7966 54.064 34.7846 54.316 34.7846 54.592V54.772C34.7846 54.856 34.8026 55.036 34.8386 55.312C34.8746 55.588 34.9106 55.87 34.9466 56.158C34.9946 56.446 35.0306 56.662 35.0546 56.806C35.1146 57.202 35.2346 57.55 35.4146 57.85C35.5946 58.138 35.8466 58.282 36.1706 58.282C36.5546 58.282 36.8906 58.132 37.1786 57.832C37.4786 57.532 37.7426 57.142 37.9706 56.662C38.2106 56.182 38.4386 55.678 38.6546 55.15C38.8706 54.61 39.0866 54.1 39.3026 53.62C39.5186 53.14 39.7526 52.75 40.0046 52.45C40.2686 52.15 40.5626 52 40.8866 52C41.4266 52 41.6966 52.3 41.6966 52.9C41.6966 53.308 41.6306 53.698 41.4986 54.07C41.3786 54.442 41.2226 54.802 41.0306 55.15C40.8506 55.498 40.6586 55.84 40.4546 56.176C40.2506 56.512 40.0706 56.854 39.9146 57.202C39.4346 58.222 38.9906 59.272 38.5826 60.352C38.1866 61.42 37.8026 62.494 37.4306 63.574C37.3346 63.85 37.2146 64.156 37.0706 64.492C36.9266 64.828 36.7406 65.116 36.5126 65.356C36.2966 65.596 36.0086 65.716 35.6486 65.716ZM53.4456 61.36C53.0736 61.36 52.7976 61.246 52.6176 61.018C52.4376 60.79 52.3176 60.514 52.2576 60.19C52.2096 59.854 52.1856 59.548 52.1856 59.272V58.588C52.1856 57.832 52.1976 57.07 52.2216 56.302C52.2576 55.534 52.2816 54.706 52.2936 53.818C51.9936 53.83 51.7356 53.848 51.5196 53.872C51.3156 53.896 51.1056 53.908 50.8896 53.908C50.3376 53.908 50.0616 53.638 50.0616 53.098C50.0616 52.894 50.0976 52.702 50.1696 52.522C50.2416 52.33 50.3916 52.21 50.6196 52.162L52.2036 51.802C52.4076 51.754 52.5396 51.628 52.5996 51.424C52.6716 51.208 52.7076 50.962 52.7076 50.686C52.7196 50.398 52.7376 50.116 52.7616 49.84C52.7976 49.564 52.8876 49.336 53.0316 49.156C53.1876 48.976 53.4456 48.886 53.8056 48.886C54.0576 48.886 54.2436 48.958 54.3636 49.102C54.4956 49.234 54.5856 49.396 54.6336 49.588C54.6816 49.78 54.7056 49.966 54.7056 50.146C54.7056 50.17 54.6996 50.254 54.6876 50.398C54.6756 50.53 54.6576 50.662 54.6336 50.794C54.6216 50.926 54.6156 51.01 54.6156 51.046V51.622H56.8116C57.0756 51.622 57.2796 51.748 57.4236 52C57.5676 52.24 57.6396 52.486 57.6396 52.738C57.6396 52.786 57.6216 52.876 57.5856 53.008C57.5496 53.14 57.4836 53.266 57.3876 53.386C57.2916 53.494 57.1596 53.548 56.9916 53.548H54.6876C54.6756 53.548 54.6516 53.56 54.6156 53.584C54.5796 53.596 54.5376 53.632 54.4896 53.692L54.4536 53.746C54.3936 54.07 54.3516 54.334 54.3276 54.538C54.3036 54.73 54.2856 54.91 54.2736 55.078C54.2736 55.234 54.2736 55.426 54.2736 55.654C54.2736 56.314 54.2856 56.974 54.3096 57.634C54.3456 58.294 54.3636 58.99 54.3636 59.722C54.3636 59.962 54.3456 60.208 54.3096 60.46C54.2736 60.712 54.1896 60.922 54.0576 61.09C53.9256 61.27 53.7216 61.36 53.4456 61.36ZM63.874 61.27C63.01 61.27 62.212 61.138 61.48 60.874C60.76 60.598 60.178 60.166 59.734 59.578C59.29 58.978 59.068 58.204 59.068 57.256C59.068 56.536 59.182 55.834 59.41 55.15C59.65 54.466 59.992 53.848 60.436 53.296C60.88 52.732 61.414 52.288 62.038 51.964C62.662 51.628 63.364 51.46 64.144 51.46C64.672 51.46 65.164 51.568 65.62 51.784C66.088 51.988 66.46 52.294 66.736 52.702C67.024 53.098 67.168 53.584 67.168 54.16C67.168 54.712 67.054 55.24 66.826 55.744C66.598 56.248 66.286 56.698 65.89 57.094C65.494 57.49 65.044 57.802 64.54 58.03C64.048 58.246 63.532 58.354 62.992 58.354C62.908 58.354 62.722 58.336 62.434 58.3C62.146 58.252 61.918 58.204 61.75 58.156C61.63 58.132 61.534 58.084 61.462 58.012C61.438 58 61.396 57.982 61.336 57.958C61.276 57.922 61.234 57.904 61.21 57.904C61.294 58.252 61.468 58.546 61.732 58.786C62.008 59.014 62.32 59.182 62.668 59.29C63.028 59.398 63.37 59.452 63.694 59.452C63.922 59.452 64.15 59.44 64.378 59.416C64.618 59.38 64.87 59.362 65.134 59.362C65.398 59.362 65.626 59.434 65.818 59.578C66.01 59.722 66.106 59.956 66.106 60.28C66.106 60.544 66.022 60.748 65.854 60.892C65.698 61.036 65.494 61.132 65.242 61.18C65.002 61.228 64.756 61.252 64.504 61.252C64.264 61.264 64.054 61.27 63.874 61.27ZM62.992 56.266C63.352 56.266 63.706 56.2 64.054 56.068C64.414 55.924 64.708 55.714 64.936 55.438C65.176 55.162 65.296 54.82 65.296 54.412C65.296 54.064 65.188 53.788 64.972 53.584C64.768 53.38 64.492 53.278 64.144 53.278C63.832 53.278 63.502 53.362 63.154 53.53C62.806 53.698 62.476 53.914 62.164 54.178C61.864 54.442 61.618 54.73 61.426 55.042C61.234 55.342 61.138 55.636 61.138 55.924V55.996C61.45 56.044 61.762 56.104 62.074 56.176C62.386 56.236 62.692 56.266 62.992 56.266ZM72.4188 61.18C71.8668 61.18 71.3508 61.054 70.8708 60.802C70.3908 60.55 69.9888 60.214 69.6648 59.794C69.3408 59.362 69.1308 58.876 69.0348 58.336V57.418C69.0348 56.746 69.1548 56.068 69.3948 55.384C69.6348 54.7 69.9768 54.07 70.4208 53.494C70.8648 52.906 71.3928 52.438 72.0048 52.09C72.6168 51.73 73.2888 51.55 74.0208 51.55C74.3208 51.55 74.5788 51.604 74.7948 51.712C75.0228 51.82 75.2268 51.934 75.4068 52.054C75.5988 52.162 75.7848 52.228 75.9648 52.252C76.0608 51.76 76.1928 51.436 76.3608 51.28C76.5288 51.112 76.7568 51.028 77.0448 51.028C77.3928 51.028 77.6268 51.142 77.7468 51.37C77.8788 51.586 77.9448 51.862 77.9448 52.198C77.9448 52.858 77.9268 53.506 77.8908 54.142C77.8668 54.778 77.8548 55.432 77.8548 56.104C77.8548 56.632 77.8848 57.178 77.9448 57.742C78.0048 58.306 78.0348 58.852 78.0348 59.38V59.758C78.0348 60.022 77.9808 60.268 77.8728 60.496C77.7768 60.712 77.5548 60.82 77.2068 60.82C76.8828 60.82 76.6488 60.724 76.5048 60.532C76.3728 60.328 76.2828 60.088 76.2348 59.812C76.1988 59.524 76.1628 59.266 76.1268 59.038L76.0548 58.966C75.6468 59.374 75.2808 59.746 74.9568 60.082C74.6448 60.418 74.2968 60.688 73.9128 60.892C73.5288 61.084 73.0308 61.18 72.4188 61.18ZM72.2388 59.362C72.6588 59.362 73.0548 59.236 73.4268 58.984C73.8108 58.72 74.1528 58.384 74.4528 57.976C74.7528 57.556 74.9868 57.118 75.1548 56.662C75.3228 56.206 75.4068 55.78 75.4068 55.384C75.4068 55.084 75.3648 54.784 75.2808 54.484C75.1968 54.172 75.0528 53.908 74.8488 53.692C74.6568 53.476 74.3808 53.368 74.0208 53.368C73.6248 53.368 73.2348 53.506 72.8508 53.782C72.4788 54.058 72.1428 54.412 71.8428 54.844C71.5428 55.264 71.3028 55.708 71.1228 56.176C70.9428 56.632 70.8528 57.046 70.8528 57.418C70.8528 57.718 70.8948 58.018 70.9788 58.318C71.0748 58.618 71.2248 58.87 71.4288 59.074C71.6328 59.266 71.9028 59.362 72.2388 59.362ZM81.5155 60.82C81.2515 60.82 81.0175 60.736 80.8135 60.568C80.6215 60.388 80.5255 60.166 80.5255 59.902C80.5255 59.506 80.5375 59.122 80.5615 58.75C80.5975 58.378 80.6155 58 80.6155 57.616V56.428C80.6155 55.936 80.5975 55.45 80.5615 54.97C80.5375 54.478 80.4595 53.992 80.3275 53.512C80.2795 53.368 80.2375 53.218 80.2015 53.062C80.1775 52.894 80.1655 52.726 80.1655 52.558C80.1655 52.318 80.2255 52.078 80.3455 51.838C80.4655 51.586 80.6815 51.46 80.9935 51.46C81.2455 51.46 81.4495 51.556 81.6055 51.748C81.7615 51.928 81.8815 52.156 81.9655 52.432C82.0495 52.696 82.1095 52.966 82.1455 53.242C82.1935 53.506 82.2355 53.728 82.2715 53.908C82.2955 54.064 82.3315 54.232 82.3795 54.412C82.4275 54.592 82.4515 54.766 82.4515 54.934C82.4515 54.946 82.4635 54.982 82.4875 55.042C82.5115 55.102 82.5355 55.162 82.5595 55.222C82.7155 54.946 82.8895 54.646 83.0815 54.322C83.2855 53.986 83.5075 53.674 83.7475 53.386C83.9995 53.086 84.2755 52.84 84.5755 52.648C84.8875 52.456 85.2295 52.36 85.6015 52.36C85.9855 52.36 86.2735 52.456 86.4655 52.648C86.6695 52.828 86.8315 53.056 86.9515 53.332C87.0715 53.596 87.1915 53.86 87.3115 54.124C87.3595 54.244 87.3895 54.37 87.4015 54.502C87.4135 54.622 87.4435 54.748 87.4915 54.88L87.6895 54.592C87.9295 54.256 88.1995 53.89 88.4995 53.494C88.8115 53.086 89.1595 52.738 89.5435 52.45C89.9275 52.15 90.3595 52 90.8395 52C91.2235 52 91.5475 52.114 91.8115 52.342C92.0875 52.558 92.3095 52.84 92.4775 53.188C92.6575 53.536 92.7895 53.896 92.8735 54.268C92.9575 54.64 92.9995 54.982 92.9995 55.294V59.11C92.9995 59.29 92.9695 59.488 92.9095 59.704C92.8615 59.908 92.7715 60.088 92.6395 60.244C92.5075 60.388 92.3215 60.46 92.0815 60.46C91.8055 60.46 91.5835 60.364 91.4155 60.172C91.2475 59.98 91.1635 59.776 91.1635 59.56V56.284C91.1635 56.248 91.1575 56.17 91.1455 56.05C91.1335 55.93 91.1155 55.804 91.0915 55.672C91.0795 55.54 91.0735 55.444 91.0735 55.384C91.0735 55.288 91.0615 55.138 91.0375 54.934C91.0135 54.73 90.9655 54.538 90.8935 54.358C90.8215 54.178 90.7135 54.088 90.5695 54.088H90.4075C90.0475 54.4 89.7775 54.7 89.5975 54.988C89.4175 55.264 89.2795 55.54 89.1835 55.816C89.0875 56.092 88.9975 56.386 88.9135 56.698C88.8295 56.998 88.7095 57.328 88.5535 57.688C88.4695 58 88.3315 58.294 88.1395 58.57C87.9595 58.834 87.7075 58.966 87.3835 58.966C87.0715 58.966 86.8315 58.882 86.6635 58.714C86.5075 58.534 86.3875 58.318 86.3035 58.066C86.2315 57.814 86.1715 57.574 86.1235 57.346C86.0995 57.238 86.0575 57.058 85.9975 56.806C85.9375 56.554 85.8715 56.278 85.7995 55.978C85.7395 55.678 85.6795 55.396 85.6195 55.132C85.5595 54.856 85.5175 54.652 85.4935 54.52C85.4215 54.412 85.3495 54.358 85.2775 54.358C85.1695 54.358 85.0555 54.436 84.9355 54.592C84.8155 54.748 84.7255 54.898 84.6655 55.042C84.5935 55.15 84.4915 55.342 84.3595 55.618C84.2275 55.882 84.1015 56.14 83.9815 56.392C83.8735 56.644 83.8015 56.812 83.7655 56.896C83.7415 56.968 83.6695 57.142 83.5495 57.418C83.4415 57.694 83.3155 58.012 83.1715 58.372C83.0275 58.72 82.8955 59.038 82.7755 59.326C82.6555 59.614 82.5775 59.806 82.5415 59.902C82.4215 60.13 82.2955 60.34 82.1635 60.532C82.0435 60.724 81.8275 60.82 81.5155 60.82ZM96.4921 60.82C96.2281 60.82 95.9941 60.736 95.7901 60.568C95.5981 60.388 95.5021 60.166 95.5021 59.902C95.5021 59.506 95.5141 59.122 95.5381 58.75C95.5741 58.378 95.5921 58 95.5921 57.616V56.428C95.5921 55.936 95.5741 55.45 95.5381 54.97C95.5141 54.478 95.4361 53.992 95.3041 53.512C95.2561 53.368 95.2141 53.218 95.1781 53.062C95.1541 52.894 95.1421 52.726 95.1421 52.558C95.1421 52.318 95.2021 52.078 95.3221 51.838C95.4421 51.586 95.6581 51.46 95.9701 51.46C96.2221 51.46 96.4261 51.556 96.5821 51.748C96.7381 51.928 96.8581 52.156 96.9421 52.432C97.0261 52.696 97.0861 52.966 97.1221 53.242C97.1701 53.506 97.2121 53.728 97.2481 53.908C97.2721 54.064 97.3081 54.232 97.3561 54.412C97.4041 54.592 97.4281 54.766 97.4281 54.934C97.4281 54.946 97.4401 54.982 97.4641 55.042C97.4881 55.102 97.5121 55.162 97.5361 55.222C97.6921 54.946 97.8661 54.646 98.0581 54.322C98.2621 53.986 98.4841 53.674 98.7241 53.386C98.9761 53.086 99.2521 52.84 99.5521 52.648C99.8641 52.456 100.206 52.36 100.578 52.36C100.962 52.36 101.25 52.456 101.442 52.648C101.646 52.828 101.808 53.056 101.928 53.332C102.048 53.596 102.168 53.86 102.288 54.124C102.336 54.244 102.366 54.37 102.378 54.502C102.39 54.622 102.42 54.748 102.468 54.88L102.666 54.592C102.906 54.256 103.176 53.89 103.476 53.494C103.788 53.086 104.136 52.738 104.52 52.45C104.904 52.15 105.336 52 105.816 52C106.2 52 106.524 52.114 106.788 52.342C107.064 52.558 107.286 52.84 107.454 53.188C107.634 53.536 107.766 53.896 107.85 54.268C107.934 54.64 107.976 54.982 107.976 55.294V59.11C107.976 59.29 107.946 59.488 107.886 59.704C107.838 59.908 107.748 60.088 107.616 60.244C107.484 60.388 107.298 60.46 107.058 60.46C106.782 60.46 106.56 60.364 106.392 60.172C106.224 59.98 106.14 59.776 106.14 59.56V56.284C106.14 56.248 106.134 56.17 106.122 56.05C106.11 55.93 106.092 55.804 106.068 55.672C106.056 55.54 106.05 55.444 106.05 55.384C106.05 55.288 106.038 55.138 106.014 54.934C105.99 54.73 105.942 54.538 105.87 54.358C105.798 54.178 105.69 54.088 105.546 54.088H105.384C105.024 54.4 104.754 54.7 104.574 54.988C104.394 55.264 104.256 55.54 104.16 55.816C104.064 56.092 103.974 56.386 103.89 56.698C103.806 56.998 103.686 57.328 103.53 57.688C103.446 58 103.308 58.294 103.116 58.57C102.936 58.834 102.684 58.966 102.36 58.966C102.048 58.966 101.808 58.882 101.64 58.714C101.484 58.534 101.364 58.318 101.28 58.066C101.208 57.814 101.148 57.574 101.1 57.346C101.076 57.238 101.034 57.058 100.974 56.806C100.914 56.554 100.848 56.278 100.776 55.978C100.716 55.678 100.656 55.396 100.596 55.132C100.536 54.856 100.494 54.652 100.47 54.52C100.398 54.412 100.326 54.358 100.254 54.358C100.146 54.358 100.032 54.436 99.9121 54.592C99.7921 54.748 99.7021 54.898 99.6421 55.042C99.5701 55.15 99.4681 55.342 99.3361 55.618C99.2041 55.882 99.0781 56.14 98.9581 56.392C98.8501 56.644 98.7781 56.812 98.7421 56.896C98.7181 56.968 98.6461 57.142 98.5261 57.418C98.4181 57.694 98.2921 58.012 98.1481 58.372C98.0041 58.72 97.8721 59.038 97.7521 59.326C97.6321 59.614 97.5541 59.806 97.5181 59.902C97.3981 60.13 97.2721 60.34 97.1401 60.532C97.0201 60.724 96.8041 60.82 96.4921 60.82ZM113.341 61.18C112.789 61.18 112.273 61.054 111.793 60.802C111.313 60.55 110.911 60.214 110.587 59.794C110.263 59.362 110.053 58.876 109.957 58.336V57.418C109.957 56.746 110.077 56.068 110.317 55.384C110.557 54.7 110.899 54.07 111.343 53.494C111.787 52.906 112.315 52.438 112.927 52.09C113.539 51.73 114.211 51.55 114.943 51.55C115.243 51.55 115.501 51.604 115.717 51.712C115.945 51.82 116.149 51.934 116.329 52.054C116.521 52.162 116.707 52.228 116.887 52.252C116.983 51.76 117.115 51.436 117.283 51.28C117.451 51.112 117.679 51.028 117.967 51.028C118.315 51.028 118.549 51.142 118.669 51.37C118.801 51.586 118.867 51.862 118.867 52.198C118.867 52.858 118.849 53.506 118.813 54.142C118.789 54.778 118.777 55.432 118.777 56.104C118.777 56.632 118.807 57.178 118.867 57.742C118.927 58.306 118.957 58.852 118.957 59.38V59.758C118.957 60.022 118.903 60.268 118.795 60.496C118.699 60.712 118.477 60.82 118.129 60.82C117.805 60.82 117.571 60.724 117.427 60.532C117.295 60.328 117.205 60.088 117.157 59.812C117.121 59.524 117.085 59.266 117.049 59.038L116.977 58.966C116.569 59.374 116.203 59.746 115.879 60.082C115.567 60.418 115.219 60.688 114.835 60.892C114.451 61.084 113.953 61.18 113.341 61.18ZM113.161 59.362C113.581 59.362 113.977 59.236 114.349 58.984C114.733 58.72 115.075 58.384 115.375 57.976C115.675 57.556 115.909 57.118 116.077 56.662C116.245 56.206 116.329 55.78 116.329 55.384C116.329 55.084 116.287 54.784 116.203 54.484C116.119 54.172 115.975 53.908 115.771 53.692C115.579 53.476 115.303 53.368 114.943 53.368C114.547 53.368 114.157 53.506 113.773 53.782C113.401 54.058 113.065 54.412 112.765 54.844C112.465 55.264 112.225 55.708 112.045 56.176C111.865 56.632 111.775 57.046 111.775 57.418C111.775 57.718 111.817 58.018 111.901 58.318C111.997 58.618 112.147 58.87 112.351 59.074C112.555 59.266 112.825 59.362 113.161 59.362ZM124.039 61.36C123.667 61.36 123.391 61.246 123.211 61.018C123.031 60.79 122.911 60.514 122.851 60.19C122.803 59.854 122.779 59.548 122.779 59.272V58.588C122.779 57.832 122.791 57.07 122.815 56.302C122.851 55.534 122.875 54.706 122.887 53.818C122.587 53.83 122.329 53.848 122.113 53.872C121.909 53.896 121.699 53.908 121.483 53.908C120.931 53.908 120.655 53.638 120.655 53.098C120.655 52.894 120.691 52.702 120.763 52.522C120.835 52.33 120.985 52.21 121.213 52.162L122.797 51.802C123.001 51.754 123.133 51.628 123.193 51.424C123.265 51.208 123.301 50.962 123.301 50.686C123.313 50.398 123.331 50.116 123.355 49.84C123.391 49.564 123.481 49.336 123.625 49.156C123.781 48.976 124.039 48.886 124.399 48.886C124.651 48.886 124.837 48.958 124.957 49.102C125.089 49.234 125.179 49.396 125.227 49.588C125.275 49.78 125.299 49.966 125.299 50.146C125.299 50.17 125.293 50.254 125.281 50.398C125.269 50.53 125.251 50.662 125.227 50.794C125.215 50.926 125.209 51.01 125.209 51.046V51.622H127.405C127.669 51.622 127.873 51.748 128.017 52C128.161 52.24 128.233 52.486 128.233 52.738C128.233 52.786 128.215 52.876 128.179 53.008C128.143 53.14 128.077 53.266 127.981 53.386C127.885 53.494 127.753 53.548 127.585 53.548H125.281C125.269 53.548 125.245 53.56 125.209 53.584C125.173 53.596 125.131 53.632 125.083 53.692L125.047 53.746C124.987 54.07 124.945 54.334 124.921 54.538C124.897 54.73 124.879 54.91 124.867 55.078C124.867 55.234 124.867 55.426 124.867 55.654C124.867 56.314 124.879 56.974 124.903 57.634C124.939 58.294 124.957 58.99 124.957 59.722C124.957 59.962 124.939 60.208 124.903 60.46C124.867 60.712 124.783 60.922 124.651 61.09C124.519 61.27 124.315 61.36 124.039 61.36ZM134.468 61.27C133.604 61.27 132.806 61.138 132.074 60.874C131.354 60.598 130.772 60.166 130.328 59.578C129.884 58.978 129.662 58.204 129.662 57.256C129.662 56.536 129.776 55.834 130.004 55.15C130.244 54.466 130.586 53.848 131.03 53.296C131.474 52.732 132.008 52.288 132.632 51.964C133.256 51.628 133.958 51.46 134.738 51.46C135.266 51.46 135.758 51.568 136.214 51.784C136.682 51.988 137.054 52.294 137.33 52.702C137.618 53.098 137.762 53.584 137.762 54.16C137.762 54.712 137.648 55.24 137.42 55.744C137.192 56.248 136.88 56.698 136.484 57.094C136.088 57.49 135.638 57.802 135.134 58.03C134.642 58.246 134.126 58.354 133.586 58.354C133.502 58.354 133.316 58.336 133.028 58.3C132.74 58.252 132.512 58.204 132.344 58.156C132.224 58.132 132.128 58.084 132.056 58.012C132.032 58 131.99 57.982 131.93 57.958C131.87 57.922 131.828 57.904 131.804 57.904C131.888 58.252 132.062 58.546 132.326 58.786C132.602 59.014 132.914 59.182 133.262 59.29C133.622 59.398 133.964 59.452 134.288 59.452C134.516 59.452 134.744 59.44 134.972 59.416C135.212 59.38 135.464 59.362 135.728 59.362C135.992 59.362 136.22 59.434 136.412 59.578C136.604 59.722 136.7 59.956 136.7 60.28C136.7 60.544 136.616 60.748 136.448 60.892C136.292 61.036 136.088 61.132 135.836 61.18C135.596 61.228 135.35 61.252 135.098 61.252C134.858 61.264 134.648 61.27 134.468 61.27ZM133.586 56.266C133.946 56.266 134.3 56.2 134.648 56.068C135.008 55.924 135.302 55.714 135.53 55.438C135.77 55.162 135.89 54.82 135.89 54.412C135.89 54.064 135.782 53.788 135.566 53.584C135.362 53.38 135.086 53.278 134.738 53.278C134.426 53.278 134.096 53.362 133.748 53.53C133.4 53.698 133.07 53.914 132.758 54.178C132.458 54.442 132.212 54.73 132.02 55.042C131.828 55.342 131.732 55.636 131.732 55.924V55.996C132.044 56.044 132.356 56.104 132.668 56.176C132.98 56.236 133.286 56.266 133.586 56.266ZM143.211 61.27C142.875 61.27 142.491 61.24 142.059 61.18C141.627 61.132 141.207 61.036 140.799 60.892C140.391 60.748 140.049 60.532 139.773 60.244C139.509 59.956 139.377 59.578 139.377 59.11C139.377 58.798 139.455 58.528 139.611 58.3C139.767 58.06 140.019 57.94 140.367 57.94C140.583 57.94 140.751 57.994 140.871 58.102C140.991 58.21 141.093 58.342 141.177 58.498C141.273 58.654 141.381 58.816 141.501 58.984C141.633 59.14 141.807 59.272 142.023 59.38C142.251 59.488 142.557 59.542 142.941 59.542C143.217 59.542 143.517 59.512 143.841 59.452C144.177 59.38 144.465 59.254 144.705 59.074C144.945 58.894 145.065 58.648 145.065 58.336C145.065 58.06 144.951 57.844 144.723 57.688C144.495 57.52 144.201 57.376 143.841 57.256C143.481 57.136 143.103 57.016 142.707 56.896C142.311 56.764 141.933 56.602 141.573 56.41C141.213 56.218 140.919 55.966 140.691 55.654C140.463 55.33 140.349 54.916 140.349 54.412C140.349 53.944 140.463 53.542 140.691 53.206C140.919 52.87 141.213 52.594 141.573 52.378C141.945 52.15 142.341 51.988 142.761 51.892C143.193 51.784 143.607 51.73 144.003 51.73C144.231 51.73 144.495 51.76 144.795 51.82C145.095 51.868 145.389 51.952 145.677 52.072C145.965 52.192 146.205 52.36 146.397 52.576C146.589 52.78 146.685 53.038 146.685 53.35C146.685 53.902 146.409 54.178 145.857 54.178H145.623C145.263 53.974 144.957 53.818 144.705 53.71C144.453 53.602 144.165 53.548 143.841 53.548C143.697 53.548 143.493 53.566 143.229 53.602C142.977 53.626 142.749 53.692 142.545 53.8C142.341 53.908 142.239 54.082 142.239 54.322C142.239 54.526 142.353 54.694 142.581 54.826C142.809 54.958 143.103 55.084 143.463 55.204C143.823 55.324 144.201 55.456 144.597 55.6C144.993 55.744 145.371 55.93 145.731 56.158C146.091 56.374 146.385 56.65 146.613 56.986C146.841 57.322 146.955 57.742 146.955 58.246C146.955 58.978 146.769 59.566 146.397 60.01C146.037 60.454 145.569 60.778 144.993 60.982C144.429 61.174 143.835 61.27 143.211 61.27Z" fill="#262F42"/>
<path d="M66.6064 198.148L66.5713 195.512L72.249 195.248L72.2842 198.254L66.6064 198.148ZM79.1836 190.361L78.6738 202.859L74.8418 202.684L75.0527 194.369L73.6465 195.336L72.3281 192.33L75.1934 190.186L79.1836 190.361ZM91.875 190.326C91.8398 190.877 91.8076 191.422 91.7783 191.961C91.749 192.5 91.7109 193.045 91.6641 193.596L87.9375 193.789V194.896H91.1719L90.9961 197.621L87.9199 197.709L87.9375 202.912L83.4902 203L83.7715 190.326H91.875ZM102.624 194.527C102.624 194.984 102.583 195.4 102.501 195.775C102.425 196.145 102.302 196.484 102.132 196.795C101.962 197.105 101.742 197.393 101.473 197.656C101.203 197.92 100.878 198.172 100.497 198.412L102.589 202.139L98.6338 202.912L97.2803 199.168L96.1904 199.203L96.0322 202.859H92.2529C92.2822 201.523 92.3086 200.193 92.332 198.869C92.3613 197.545 92.3936 196.215 92.4287 194.879C92.4404 194.205 92.4521 193.537 92.4639 192.875C92.4756 192.213 92.499 191.545 92.5342 190.871C92.9443 190.719 93.3486 190.593 93.7471 190.493C94.1455 190.394 94.5439 190.317 94.9424 190.265C95.3467 190.206 95.7539 190.168 96.1641 190.15C96.5801 190.127 97.0049 190.115 97.4385 190.115C98.1064 190.115 98.751 190.209 99.3721 190.396C99.999 190.578 100.553 190.854 101.033 191.223C101.514 191.592 101.897 192.052 102.185 192.603C102.478 193.153 102.624 193.795 102.624 194.527ZM98.6865 194.809C98.6865 194.562 98.6514 194.337 98.5811 194.132C98.5166 193.927 98.417 193.751 98.2822 193.604C98.1533 193.452 97.9893 193.335 97.79 193.253C97.5967 193.165 97.3682 193.121 97.1045 193.121C96.9873 193.121 96.873 193.13 96.7617 193.147C96.6504 193.159 96.542 193.18 96.4365 193.209L96.2959 196.479H96.5068C96.7588 196.479 97.0137 196.446 97.2715 196.382C97.5352 196.317 97.7695 196.218 97.9746 196.083C98.1855 195.948 98.3555 195.775 98.4844 195.564C98.6191 195.354 98.6865 195.102 98.6865 194.809ZM107.827 190.625L107.212 202.596L103.503 202.789L103.151 190.871L107.827 190.625ZM118.356 195.898C118.356 196.408 118.321 196.918 118.251 197.428C117.249 197.492 116.253 197.598 115.263 197.744C114.272 197.885 113.282 198.025 112.292 198.166C112.444 198.588 112.682 198.925 113.004 199.177C113.332 199.429 113.722 199.555 114.173 199.555C114.407 199.555 114.662 199.511 114.938 199.423C115.219 199.335 115.497 199.227 115.772 199.098C116.048 198.963 116.312 198.819 116.563 198.667C116.815 198.515 117.032 198.377 117.214 198.254L116.792 202.244C116.563 202.42 116.314 202.569 116.045 202.692C115.781 202.815 115.506 202.915 115.219 202.991C114.932 203.067 114.642 203.123 114.349 203.158C114.056 203.193 113.769 203.211 113.487 203.211C112.907 203.211 112.377 203.132 111.896 202.974C111.416 202.815 110.979 202.596 110.587 202.314C110.2 202.027 109.86 201.69 109.567 201.304C109.274 200.917 109.031 200.495 108.838 200.038C108.645 199.581 108.498 199.098 108.398 198.588C108.299 198.078 108.249 197.562 108.249 197.041C108.249 196.496 108.299 195.951 108.398 195.406C108.498 194.861 108.647 194.337 108.847 193.833C109.052 193.329 109.307 192.863 109.611 192.436C109.922 192.002 110.282 191.624 110.692 191.302C111.103 190.979 111.565 190.728 112.081 190.546C112.603 190.364 113.177 190.273 113.804 190.273C114.325 190.273 114.8 190.347 115.228 190.493C115.661 190.634 116.045 190.833 116.379 191.091C116.719 191.343 117.012 191.645 117.258 191.996C117.51 192.348 117.715 192.734 117.873 193.156C118.037 193.572 118.157 194.015 118.233 194.483C118.315 194.946 118.356 195.418 118.356 195.898ZM114.841 195.441C114.841 195.277 114.823 195.11 114.788 194.94C114.753 194.765 114.694 194.606 114.612 194.466C114.536 194.325 114.434 194.211 114.305 194.123C114.176 194.029 114.015 193.982 113.821 193.982C113.587 193.982 113.379 194.047 113.197 194.176C113.021 194.299 112.869 194.457 112.74 194.65C112.611 194.838 112.506 195.043 112.424 195.266C112.342 195.488 112.28 195.693 112.239 195.881L114.841 195.635V195.441ZM129.844 198.553C129.844 199.215 129.835 199.871 129.817 200.521C129.806 201.166 129.785 201.816 129.756 202.473L124.693 202.385C124.869 201.348 125.021 200.313 125.15 199.282C125.279 198.245 125.344 197.199 125.344 196.145C125.344 196.068 125.341 195.945 125.335 195.775C125.329 195.605 125.317 195.415 125.3 195.204C125.282 194.987 125.256 194.768 125.221 194.545C125.191 194.316 125.147 194.108 125.089 193.921C125.036 193.733 124.969 193.581 124.887 193.464C124.811 193.341 124.717 193.279 124.605 193.279C124.406 193.279 124.236 193.338 124.096 193.455C123.961 193.572 123.847 193.725 123.753 193.912C123.665 194.094 123.595 194.299 123.542 194.527C123.489 194.756 123.448 194.984 123.419 195.213C123.396 195.441 123.378 195.658 123.366 195.863C123.36 196.062 123.357 196.227 123.357 196.355C123.328 197.393 123.305 198.424 123.287 199.449C123.27 200.469 123.246 201.5 123.217 202.543L118.734 202.736C118.852 200.668 118.963 198.611 119.068 196.566C119.18 194.521 119.268 192.465 119.332 190.396L123.48 190.186L123.445 191.592C123.609 191.393 123.785 191.205 123.973 191.029C124.166 190.854 124.371 190.704 124.588 190.581C124.805 190.452 125.033 190.353 125.273 190.282C125.52 190.206 125.777 190.168 126.047 190.168C126.545 190.168 126.981 190.25 127.356 190.414C127.731 190.578 128.054 190.801 128.323 191.082C128.593 191.363 128.818 191.697 129 192.084C129.182 192.465 129.328 192.872 129.439 193.306C129.551 193.739 129.636 194.193 129.694 194.668C129.753 195.137 129.791 195.6 129.809 196.057C129.832 196.514 129.844 196.956 129.844 197.384C129.844 197.812 129.844 198.201 129.844 198.553ZM140.637 196.021C140.637 196.842 140.531 197.577 140.32 198.228C140.109 198.878 139.813 199.455 139.433 199.959C139.058 200.457 138.609 200.882 138.088 201.233C137.566 201.585 136.995 201.875 136.374 202.104C135.753 202.326 135.091 202.49 134.388 202.596C133.69 202.701 132.973 202.754 132.234 202.754C131.959 202.754 131.689 202.748 131.426 202.736C131.162 202.719 130.893 202.695 130.617 202.666L130.863 191.223C131.508 191.018 132.17 190.874 132.85 190.792C133.535 190.704 134.215 190.66 134.889 190.66C135.727 190.66 136.497 190.777 137.2 191.012C137.903 191.246 138.51 191.592 139.02 192.049C139.529 192.5 139.925 193.06 140.206 193.728C140.493 194.39 140.637 195.154 140.637 196.021ZM134.66 199.396C135.012 199.344 135.331 199.238 135.618 199.08C135.911 198.916 136.163 198.717 136.374 198.482C136.585 198.242 136.746 197.973 136.857 197.674C136.975 197.369 137.033 197.047 137.033 196.707C137.033 196.373 136.998 196.062 136.928 195.775C136.857 195.482 136.743 195.23 136.585 195.02C136.427 194.803 136.219 194.633 135.961 194.51C135.703 194.381 135.387 194.311 135.012 194.299L134.66 199.396Z" fill="#FA7071"/>
<path d="M37.9502 85.184C39.1982 85.184 40.0862 85.49 40.6142 86.102C41.1422 86.714 41.4062 87.632 41.4062 88.856L39.5702 89.036C39.5702 88.16 39.4142 87.56 39.1022 87.236C38.7902 86.9 38.3402 86.732 37.7522 86.732C37.1762 86.732 36.7142 86.828 36.3662 87.02C36.0302 87.2 35.7602 87.44 35.5562 87.74C35.3642 88.04 35.2142 88.442 35.1062 88.946C34.9382 89.726 34.8542 90.842 34.8542 92.294C34.8542 93.746 35.1302 94.838 35.6822 95.57C36.2342 96.302 37.0862 96.668 38.2382 96.668C38.7782 96.668 39.5342 96.5 40.5062 96.164C40.7342 96.08 40.8662 96.032 40.9022 96.02L41.4062 97.316C40.2902 97.916 39.1262 98.216 37.9142 98.216C37.0982 98.216 36.3902 98.09 35.7902 97.838C35.1902 97.586 34.7162 97.268 34.3682 96.884C34.0202 96.488 33.7382 95.996 33.5222 95.408C33.1862 94.448 33.0182 93.38 33.0182 92.204C33.0182 91.016 33.1082 90.044 33.2882 89.288C33.4682 88.52 33.7442 87.824 34.1162 87.2C34.5002 86.564 35.0162 86.072 35.6642 85.724C36.3242 85.364 37.0862 85.184 37.9502 85.184ZM47.472 91.412C47.472 90.32 46.974 89.774 45.978 89.774C45.342 89.774 44.484 89.942 43.404 90.278L42.828 89.144C43.86 88.604 44.976 88.334 46.176 88.334C47.628 88.334 48.516 88.766 48.84 89.63C49.008 90.074 49.092 90.662 49.092 91.394V95.228C49.092 96.092 49.338 96.776 49.83 97.28L48.876 98.216C48.66 98.084 48.438 97.892 48.21 97.64C47.994 97.376 47.844 97.118 47.76 96.866H47.706C47.046 97.766 46.134 98.216 44.97 98.216C43.254 98.216 42.396 97.322 42.396 95.534C42.396 93.95 43.512 92.996 45.744 92.672L47.472 92.42V91.412ZM44.124 95.732C44.124 96.428 44.55 96.776 45.402 96.776C46.266 96.776 46.956 96.476 47.472 95.876V93.68C45.96 93.884 45.03 94.124 44.682 94.4C44.31 94.7 44.124 95.144 44.124 95.732ZM56.048 88.334C56.936 88.334 57.644 88.592 58.172 89.108C58.7 89.612 58.964 90.416 58.964 91.52V98H57.344V91.628C57.344 90.392 56.726 89.774 55.49 89.774C55.13 89.774 54.776 89.864 54.428 90.044C54.08 90.212 53.804 90.41 53.6 90.638V98H51.98V91.142L51.836 88.64L53.15 88.46L53.384 89.522H53.456C53.672 89.246 53.996 88.982 54.428 88.73C54.872 88.466 55.412 88.334 56.048 88.334ZM69.9989 88.478L71.5649 88.658L69.3509 96.128C68.8589 97.808 68.4029 99.026 67.9829 99.782C67.7189 100.25 67.2929 100.664 66.7049 101.024C66.1169 101.396 65.6069 101.588 65.1749 101.6L64.5089 100.286C65.0849 100.238 65.6309 100.022 66.1469 99.638C66.6749 99.254 66.9929 98.756 67.1009 98.144C66.2369 95.444 65.2349 92.276 64.0949 88.64L65.7869 88.46L67.8389 96.182H67.9469L69.9989 88.478ZM73.4493 89.864C73.7613 89.396 74.1933 89.024 74.7453 88.748C75.3093 88.472 75.9633 88.334 76.7073 88.334C77.4633 88.334 78.0933 88.478 78.5973 88.766C79.1133 89.054 79.4913 89.456 79.7313 89.972C80.1513 90.896 80.3613 92.03 80.3613 93.374C80.3613 94.67 80.0613 95.768 79.4613 96.668C79.1493 97.148 78.7113 97.526 78.1473 97.802C77.5953 98.078 76.9413 98.216 76.1853 98.216C75.4413 98.216 74.8113 98.072 74.2953 97.784C73.7913 97.496 73.4193 97.088 73.1793 96.56C72.7593 95.648 72.5493 94.52 72.5493 93.176C72.5493 91.88 72.8493 90.776 73.4493 89.864ZM78.0393 90.422C77.8833 90.23 77.6673 90.074 77.3913 89.954C77.1153 89.834 76.7793 89.774 76.3833 89.774C75.9993 89.774 75.6693 89.846 75.3933 89.99C75.1173 90.134 74.9073 90.308 74.7633 90.512C74.6193 90.704 74.5113 90.98 74.4393 91.34C74.3313 91.88 74.2773 92.462 74.2773 93.086C74.2773 93.71 74.2893 94.172 74.3133 94.472C74.3373 94.76 74.3913 95.06 74.4753 95.372C74.5713 95.684 74.7033 95.936 74.8713 96.128C75.2313 96.56 75.7833 96.776 76.5273 96.776C76.9113 96.776 77.2413 96.704 77.5173 96.56C77.7933 96.416 78.0033 96.248 78.1473 96.056C78.2913 95.852 78.3993 95.57 78.4713 95.21C78.5793 94.67 78.6333 94.088 78.6333 93.464C78.6333 92.84 78.6213 92.384 78.5973 92.096C78.5733 91.796 78.5133 91.49 78.4173 91.178C78.3333 90.866 78.2073 90.614 78.0393 90.422ZM85.3367 98.216C84.5207 98.216 83.8487 97.964 83.3207 97.46C82.7927 96.956 82.5287 96.176 82.5287 95.12V88.622L84.1487 88.46V94.922C84.1487 96.158 84.7307 96.776 85.8947 96.776C86.6627 96.776 87.3287 96.494 87.8927 95.93V88.622L89.5127 88.46V95.408L89.6567 97.91L88.3427 98.09L88.1447 96.992H88.0727C87.3887 97.808 86.4767 98.216 85.3367 98.216ZM97.6856 89.36C98.3936 88.676 99.1976 88.334 100.098 88.334C101.01 88.334 101.73 88.592 102.258 89.108C102.798 89.612 103.068 90.416 103.068 91.52V98H101.43V91.628C101.43 90.392 100.812 89.774 99.5756 89.774C99.2156 89.774 98.8616 89.864 98.5136 90.044C98.1656 90.212 97.8896 90.41 97.6856 90.638V98H96.0836V84.59L97.6856 84.41V88.514L97.6136 89.342L97.6856 89.36ZM109.259 88.334C110.291 88.334 111.053 88.646 111.545 89.27C111.953 89.774 112.205 90.62 112.301 91.808C112.337 92.276 112.355 92.858 112.355 93.554L111.617 93.662H106.955C106.955 95.174 107.357 96.128 108.161 96.524C108.497 96.692 108.959 96.776 109.547 96.776C110.135 96.776 110.813 96.584 111.581 96.2L112.085 97.316C111.089 97.916 110.087 98.216 109.079 98.216C106.511 98.216 105.227 96.596 105.227 93.356C105.227 91.82 105.563 90.602 106.235 89.702C106.919 88.79 107.927 88.334 109.259 88.334ZM110.627 92.384C110.627 91.424 110.531 90.752 110.339 90.368C110.147 89.972 109.703 89.774 109.007 89.774C108.323 89.774 107.837 90.008 107.549 90.476C107.261 90.932 107.081 91.568 107.009 92.384H110.627ZM116.017 95.12C116.017 95.708 116.065 96.158 116.161 96.47C116.257 96.77 116.473 97.094 116.809 97.442L115.603 98.396C115.111 97.88 114.787 97.442 114.631 97.082C114.475 96.722 114.397 96.11 114.397 95.246V84.59L116.017 84.41V95.12ZM120.357 89.558C121.041 88.742 121.905 88.334 122.949 88.334C123.993 88.334 124.803 88.706 125.379 89.45C125.967 90.182 126.261 91.46 126.261 93.284C126.261 94.208 126.135 95.012 125.883 95.696C125.643 96.368 125.325 96.878 124.929 97.226C124.173 97.886 123.357 98.216 122.481 98.216C121.605 98.216 120.963 98.024 120.555 97.64L120.501 97.658L120.555 98.108V101.312L118.935 101.492V91.142L118.791 88.64L120.105 88.46L120.285 89.558H120.357ZM120.555 96.308C121.071 96.62 121.671 96.776 122.355 96.776C123.039 96.776 123.573 96.524 123.957 96.02C124.341 95.504 124.533 94.556 124.533 93.176C124.533 91.508 124.221 90.464 123.597 90.044C123.333 89.864 123.009 89.774 122.625 89.774C121.713 89.774 121.023 90.074 120.555 90.674V96.308ZM133.683 89.522C134.223 88.73 135.033 88.334 136.113 88.334C137.205 88.334 137.979 88.748 138.435 89.576C139.071 88.748 139.971 88.334 141.135 88.334C142.023 88.334 142.701 88.616 143.169 89.18C143.637 89.744 143.871 90.524 143.871 91.52V98H142.251V91.628C142.251 90.392 141.717 89.774 140.649 89.774C139.845 89.774 139.245 90.062 138.849 90.638V98H137.229V91.628C137.229 90.392 136.695 89.774 135.627 89.774C134.823 89.774 134.223 90.062 133.827 90.638V98H132.207V91.142L132.063 88.64L133.377 88.46L133.611 89.522H133.683ZM150.058 88.334C151.09 88.334 151.852 88.646 152.344 89.27C152.752 89.774 153.004 90.62 153.1 91.808C153.136 92.276 153.154 92.858 153.154 93.554L152.416 93.662H147.754C147.754 95.174 148.156 96.128 148.96 96.524C149.296 96.692 149.758 96.776 150.346 96.776C150.934 96.776 151.612 96.584 152.38 96.2L152.884 97.316C151.888 97.916 150.886 98.216 149.878 98.216C147.31 98.216 146.026 96.596 146.026 93.356C146.026 91.82 146.362 90.602 147.034 89.702C147.718 88.79 148.726 88.334 150.058 88.334ZM151.426 92.384C151.426 91.424 151.33 90.752 151.138 90.368C150.946 89.972 150.502 89.774 149.806 89.774C149.122 89.774 148.636 90.008 148.348 90.476C148.06 90.932 147.88 91.568 147.808 92.384H151.426ZM42.805 111.052C42.805 110.224 43.093 109.564 43.669 109.072C44.257 108.58 45.013 108.334 45.937 108.334C46.861 108.334 47.581 108.562 48.097 109.018C48.613 109.462 48.907 110.062 48.979 110.818L47.305 111.16C47.281 110.716 47.137 110.368 46.873 110.116C46.609 109.864 46.267 109.738 45.847 109.738C45.427 109.738 45.103 109.84 44.875 110.044C44.647 110.236 44.533 110.476 44.533 110.764C44.533 111.052 44.581 111.286 44.677 111.466C44.773 111.646 44.929 111.808 45.145 111.952C45.433 112.156 45.835 112.366 46.351 112.582C46.867 112.786 47.245 112.954 47.485 113.086C47.725 113.206 48.001 113.38 48.313 113.608C48.901 114.028 49.195 114.634 49.195 115.426C49.195 116.206 48.883 116.866 48.259 117.406C47.635 117.946 46.813 118.216 45.793 118.216C44.773 118.216 43.759 117.892 42.751 117.244L43.381 116.056C44.509 116.536 45.379 116.776 45.991 116.776C46.975 116.776 47.467 116.392 47.467 115.624C47.467 115.276 47.311 114.988 46.999 114.76C46.699 114.52 46.291 114.292 45.775 114.076C45.259 113.848 44.875 113.674 44.623 113.554C44.383 113.422 44.101 113.236 43.777 112.996C43.129 112.516 42.805 111.868 42.805 111.052ZM51.5118 109.864C51.8238 109.396 52.2558 109.024 52.8078 108.748C53.3718 108.472 54.0258 108.334 54.7698 108.334C55.5258 108.334 56.1558 108.478 56.6598 108.766C57.1758 109.054 57.5538 109.456 57.7938 109.972C58.2138 110.896 58.4238 112.03 58.4238 113.374C58.4238 114.67 58.1238 115.768 57.5238 116.668C57.2118 117.148 56.7738 117.526 56.2098 117.802C55.6578 118.078 55.0038 118.216 54.2478 118.216C53.5038 118.216 52.8738 118.072 52.3578 117.784C51.8538 117.496 51.4818 117.088 51.2418 116.56C50.8218 115.648 50.6118 114.52 50.6118 113.176C50.6118 111.88 50.9118 110.776 51.5118 109.864ZM56.1018 110.422C55.9458 110.23 55.7298 110.074 55.4538 109.954C55.1778 109.834 54.8418 109.774 54.4458 109.774C54.0618 109.774 53.7318 109.846 53.4558 109.99C53.1798 110.134 52.9698 110.308 52.8258 110.512C52.6818 110.704 52.5738 110.98 52.5018 111.34C52.3938 111.88 52.3398 112.462 52.3398 113.086C52.3398 113.71 52.3518 114.172 52.3758 114.472C52.3998 114.76 52.4538 115.06 52.5378 115.372C52.6338 115.684 52.7658 115.936 52.9338 116.128C53.2938 116.56 53.8458 116.776 54.5898 116.776C54.9738 116.776 55.3038 116.704 55.5798 116.56C55.8558 116.416 56.0658 116.248 56.2098 116.056C56.3538 115.852 56.4618 115.57 56.5338 115.21C56.6418 114.67 56.6958 114.088 56.6958 113.464C56.6958 112.84 56.6838 112.384 56.6598 112.096C56.6358 111.796 56.5758 111.49 56.4798 111.178C56.3958 110.866 56.2698 110.614 56.1018 110.422ZM62.1752 115.12C62.1752 115.708 62.2232 116.158 62.3192 116.47C62.4152 116.77 62.6312 117.094 62.9672 117.442L61.7612 118.396C61.2692 117.88 60.9452 117.442 60.7892 117.082C60.6332 116.722 60.5552 116.11 60.5552 115.246V104.59L62.1752 104.41V115.12ZM69.7733 108.442L71.2673 108.622L68.6753 118H66.5873L63.8693 108.622L65.4893 108.442L67.6133 116.416H67.7033L69.7733 108.442ZM76.3176 108.334C77.3496 108.334 78.1116 108.646 78.6036 109.27C79.0116 109.774 79.2636 110.62 79.3596 111.808C79.3956 112.276 79.4136 112.858 79.4136 113.554L78.6756 113.662H74.0136C74.0136 115.174 74.4156 116.128 75.2196 116.524C75.5556 116.692 76.0176 116.776 76.6056 116.776C77.1936 116.776 77.8716 116.584 78.6396 116.2L79.1436 117.316C78.1476 117.916 77.1456 118.216 76.1376 118.216C73.5696 118.216 72.2856 116.596 72.2856 113.356C72.2856 111.82 72.6216 110.602 73.2936 109.702C73.9776 108.79 74.9856 108.334 76.3176 108.334ZM77.6856 112.384C77.6856 111.424 77.5896 110.752 77.3976 110.368C77.2056 109.972 76.7616 109.774 76.0656 109.774C75.3816 109.774 74.8956 110.008 74.6076 110.476C74.3196 110.932 74.1396 111.568 74.0676 112.384H77.6856ZM87.163 108.55H89.737L89.521 109.918H87.163V114.31C87.163 115.246 87.241 115.9 87.397 116.272C87.565 116.632 87.937 116.812 88.513 116.812C88.837 116.812 89.155 116.746 89.467 116.614L89.935 117.64C89.791 117.784 89.527 117.916 89.143 118.036C88.759 118.156 88.411 118.216 88.099 118.216C87.043 118.216 86.353 117.922 86.029 117.334C85.705 116.746 85.543 115.774 85.543 114.418V109.918H83.995L84.175 108.658L85.543 108.55L85.633 106.57L87.163 106.12V108.55ZM93.168 109.36C93.876 108.676 94.68 108.334 95.58 108.334C96.492 108.334 97.212 108.592 97.74 109.108C98.28 109.612 98.55 110.416 98.55 111.52V118H96.912V111.628C96.912 110.392 96.294 109.774 95.058 109.774C94.698 109.774 94.344 109.864 93.996 110.044C93.648 110.212 93.372 110.41 93.168 110.638V118H91.566V104.59L93.168 104.41V108.514L93.096 109.342L93.168 109.36ZM102.959 118H101.339V108.64L102.959 108.46V118ZM102.077 107.938C101.345 107.938 100.979 107.53 100.979 106.714C100.979 106.414 101.075 106.156 101.267 105.94C101.471 105.724 101.783 105.616 102.203 105.616C102.935 105.616 103.301 106.024 103.301 106.84C103.301 107.14 103.199 107.398 102.995 107.614C102.803 107.83 102.497 107.938 102.077 107.938ZM105.119 111.052C105.119 110.224 105.407 109.564 105.983 109.072C106.571 108.58 107.327 108.334 108.251 108.334C109.175 108.334 109.895 108.562 110.411 109.018C110.927 109.462 111.221 110.062 111.293 110.818L109.619 111.16C109.595 110.716 109.451 110.368 109.187 110.116C108.923 109.864 108.581 109.738 108.161 109.738C107.741 109.738 107.417 109.84 107.189 110.044C106.961 110.236 106.847 110.476 106.847 110.764C106.847 111.052 106.895 111.286 106.991 111.466C107.087 111.646 107.243 111.808 107.459 111.952C107.747 112.156 108.149 112.366 108.665 112.582C109.181 112.786 109.559 112.954 109.799 113.086C110.039 113.206 110.315 113.38 110.627 113.608C111.215 114.028 111.509 114.634 111.509 115.426C111.509 116.206 111.197 116.866 110.573 117.406C109.949 117.946 109.127 118.216 108.107 118.216C107.087 118.216 106.073 117.892 105.065 117.244L105.695 116.056C106.823 116.536 107.693 116.776 108.305 116.776C109.289 116.776 109.781 116.392 109.781 115.624C109.781 115.276 109.625 114.988 109.313 114.76C109.013 114.52 108.605 114.292 108.089 114.076C107.573 113.848 107.189 113.674 106.937 113.554C106.697 113.422 106.415 113.236 106.091 112.996C105.443 112.516 105.119 111.868 105.119 111.052ZM123.764 109.72C124.256 110.5 124.502 111.616 124.502 113.068C124.502 115.06 124.07 116.44 123.206 117.208C122.45 117.88 121.502 118.216 120.362 118.216C119.222 118.216 118.154 117.868 117.158 117.172V104.59L118.778 104.41V108.46L118.688 109.36L118.742 109.396C119.294 108.688 120.122 108.334 121.226 108.334C122.33 108.334 123.176 108.796 123.764 109.72ZM122.054 116.218C122.534 115.738 122.774 114.796 122.774 113.392C122.774 111.988 122.594 111.034 122.234 110.53C121.886 110.026 121.37 109.774 120.686 109.774C119.81 109.774 119.174 110.068 118.778 110.656V116.272C119.246 116.62 119.81 116.794 120.47 116.794C121.142 116.794 121.67 116.602 122.054 116.218ZM129.475 118.216C128.659 118.216 127.987 117.964 127.459 117.46C126.931 116.956 126.667 116.176 126.667 115.12V108.622L128.287 108.46V114.922C128.287 116.158 128.869 116.776 130.033 116.776C130.801 116.776 131.467 116.494 132.031 115.93V108.622L133.651 108.46V115.408L133.795 117.91L132.481 118.09L132.283 116.992H132.211C131.527 117.808 130.615 118.216 129.475 118.216ZM139.483 108.334C139.675 108.334 139.837 108.34 139.969 108.352C140.113 108.364 140.467 108.382 141.031 108.406C142.699 108.478 143.611 108.514 143.767 108.514L143.569 109.558L142.327 109.684C142.627 110.188 142.777 110.788 142.777 111.484C142.777 112.516 142.465 113.332 141.841 113.932C141.217 114.532 140.329 114.832 139.177 114.832C138.997 114.832 138.763 114.82 138.475 114.796C138.235 114.988 138.079 115.126 138.007 115.21C137.935 115.294 137.899 115.39 137.899 115.498C137.899 115.846 138.277 116.056 139.033 116.128L140.383 116.254C141.343 116.314 142.093 116.512 142.633 116.848C143.185 117.172 143.461 117.712 143.461 118.468C143.461 119.236 143.239 119.848 142.795 120.304C141.967 121.168 140.737 121.6 139.105 121.6C136.645 121.6 135.415 120.856 135.415 119.368C135.415 118.78 135.787 118.168 136.531 117.532C136.615 117.46 136.675 117.412 136.711 117.388C136.759 117.352 136.819 117.31 136.891 117.262C136.963 117.202 137.005 117.172 137.017 117.172C136.549 116.896 136.315 116.5 136.315 115.984C136.315 115.672 136.399 115.414 136.567 115.21C136.735 115.006 137.017 114.766 137.413 114.49C136.393 113.998 135.883 113.08 135.883 111.736C135.883 110.68 136.195 109.852 136.819 109.252C137.443 108.64 138.331 108.334 139.483 108.334ZM136.999 118.99C136.999 119.446 137.215 119.782 137.647 119.998C138.091 120.214 138.661 120.322 139.357 120.322C140.065 120.322 140.665 120.214 141.157 119.998C141.661 119.782 141.913 119.44 141.913 118.972C141.913 118.6 141.799 118.342 141.571 118.198C141.451 118.114 141.337 118.048 141.229 118C141.133 117.94 140.965 117.892 140.725 117.856C140.293 117.796 139.837 117.748 139.357 117.712C138.889 117.676 138.457 117.616 138.061 117.532C137.581 117.904 137.281 118.186 137.161 118.378C137.053 118.582 136.999 118.786 136.999 118.99ZM139.231 109.612C138.619 109.612 138.181 109.774 137.917 110.098C137.665 110.422 137.539 110.92 137.539 111.592C137.539 112.924 138.169 113.59 139.429 113.59C140.053 113.59 140.491 113.422 140.743 113.086C140.995 112.75 141.121 112.24 141.121 111.556C141.121 110.26 140.491 109.612 139.231 109.612ZM58.2574 128.334C58.5694 128.334 58.8034 128.364 58.9594 128.424C59.1274 128.472 59.2654 128.514 59.3734 128.55C59.4814 128.574 59.5474 128.592 59.5714 128.604L59.2834 130.224C58.9234 130.104 58.4914 130.044 57.9874 130.044C57.4954 130.044 57.0454 130.26 56.6374 130.692C56.2414 131.112 56.0434 131.622 56.0434 132.222V138H54.4234V131.142L54.2794 128.64L55.5934 128.46L55.7914 130.278H55.8634C56.0674 129.69 56.3734 129.222 56.7814 128.874C57.2014 128.514 57.6934 128.334 58.2574 128.334ZM64.3996 128.334C65.4316 128.334 66.1936 128.646 66.6856 129.27C67.0936 129.774 67.3456 130.62 67.4416 131.808C67.4776 132.276 67.4956 132.858 67.4956 133.554L66.7576 133.662H62.0956C62.0956 135.174 62.4976 136.128 63.3016 136.524C63.6376 136.692 64.0996 136.776 64.6876 136.776C65.2756 136.776 65.9536 136.584 66.7216 136.2L67.2256 137.316C66.2296 137.916 65.2276 138.216 64.2196 138.216C61.6516 138.216 60.3676 136.596 60.3676 133.356C60.3676 131.82 60.7036 130.602 61.3756 129.702C62.0596 128.79 63.0676 128.334 64.3996 128.334ZM65.7676 132.384C65.7676 131.424 65.6716 130.752 65.4796 130.368C65.2876 129.972 64.8436 129.774 64.1476 129.774C63.4636 129.774 62.9776 130.008 62.6896 130.476C62.4016 130.932 62.2216 131.568 62.1496 132.384H65.7676ZM73.8216 131.412C73.8216 130.32 73.3236 129.774 72.3276 129.774C71.6916 129.774 70.8336 129.942 69.7536 130.278L69.1776 129.144C70.2096 128.604 71.3256 128.334 72.5256 128.334C73.9776 128.334 74.8656 128.766 75.1896 129.63C75.3576 130.074 75.4416 130.662 75.4416 131.394V135.228C75.4416 136.092 75.6876 136.776 76.1796 137.28L75.2256 138.216C75.0096 138.084 74.7876 137.892 74.5596 137.64C74.3436 137.376 74.1936 137.118 74.1096 136.866H74.0556C73.3956 137.766 72.4836 138.216 71.3196 138.216C69.6036 138.216 68.7456 137.322 68.7456 135.534C68.7456 133.95 69.8616 132.996 72.0936 132.672L73.8216 132.42V131.412ZM70.4736 135.732C70.4736 136.428 70.8996 136.776 71.7516 136.776C72.6156 136.776 73.3056 136.476 73.8216 135.876V133.68C72.3096 133.884 71.3796 134.124 71.0316 134.4C70.6596 134.7 70.4736 135.144 70.4736 135.732ZM79.8236 135.12C79.8236 135.708 79.8716 136.158 79.9676 136.47C80.0636 136.77 80.2796 137.094 80.6156 137.442L79.4096 138.396C78.9176 137.88 78.5936 137.442 78.4376 137.082C78.2816 136.722 78.2036 136.11 78.2036 135.246V124.59L79.8236 124.41V135.12ZM91.5272 130.26C90.9992 129.936 90.3632 129.774 89.6192 129.774C88.8752 129.774 88.3412 130.08 88.0172 130.692C87.6932 131.304 87.5312 132.258 87.5312 133.554C87.5312 135.702 88.2152 136.776 89.5832 136.776C90.4472 136.776 91.0952 136.482 91.5272 135.894V130.26ZM89.0612 138.216C88.2452 138.216 87.5252 137.904 86.9012 137.28C86.1692 136.548 85.8032 135.276 85.8032 133.464C85.8032 132.468 85.9232 131.622 86.1632 130.926C86.4032 130.218 86.7332 129.684 87.1532 129.324C87.9092 128.664 88.8272 128.334 89.9072 128.334C90.4232 128.334 90.9932 128.394 91.6172 128.514C92.2412 128.634 92.7512 128.79 93.1472 128.982V141.294L91.5272 141.474V138.144L91.6172 137.226H91.5452C90.9932 137.886 90.1652 138.216 89.0612 138.216ZM98.6609 138.216C97.8449 138.216 97.1729 137.964 96.6449 137.46C96.1169 136.956 95.8529 136.176 95.8529 135.12V128.622L97.4729 128.46V134.922C97.4729 136.158 98.0549 136.776 99.2189 136.776C99.9869 136.776 100.653 136.494 101.217 135.93V128.622L102.837 128.46V135.408L102.981 137.91L101.667 138.09L101.469 136.992H101.397C100.713 137.808 99.8009 138.216 98.6609 138.216ZM107.336 138H105.716V128.64L107.336 128.46V138ZM106.454 127.938C105.722 127.938 105.356 127.53 105.356 126.714C105.356 126.414 105.452 126.156 105.644 125.94C105.848 125.724 106.16 125.616 106.58 125.616C107.312 125.616 107.678 126.024 107.678 126.84C107.678 127.14 107.576 127.398 107.372 127.614C107.18 127.83 106.874 127.938 106.454 127.938ZM109.586 133.338C109.586 131.838 109.934 130.632 110.63 129.72C111.338 128.796 112.274 128.334 113.438 128.334C114.614 128.334 115.394 128.61 115.778 129.162C116.174 129.702 116.372 130.494 116.372 131.538L114.752 131.646C114.752 130.962 114.65 130.482 114.446 130.206C114.242 129.918 113.828 129.774 113.204 129.774C111.944 129.774 111.314 130.944 111.314 133.284C111.314 135.612 112.118 136.776 113.726 136.776C114.434 136.776 115.184 136.578 115.976 136.182L116.462 137.262C116.162 137.526 115.736 137.754 115.184 137.946C114.632 138.126 114.038 138.216 113.402 138.216C110.858 138.216 109.586 136.59 109.586 133.338ZM120.008 138H118.388V124.59L120.008 124.41V138ZM125.552 138H123.5L120.062 133.212L123.536 128.46L125.138 128.946L121.79 133.23L125.552 138ZM125.872 125.994C126.748 125.454 127.738 125.184 128.842 125.184C129.958 125.184 130.792 125.442 131.344 125.958C131.896 126.462 132.172 127.146 132.172 128.01C132.172 128.862 132.01 129.54 131.686 130.044C131.362 130.536 130.762 131.13 129.886 131.826C129.526 132.114 129.298 132.372 129.202 132.6C129.106 132.816 129.058 133.146 129.058 133.59V134.652L127.618 134.814C127.558 133.782 127.528 133.11 127.528 132.798C127.528 132.21 127.87 131.652 128.554 131.124C129.238 130.62 129.712 130.17 129.976 129.774C130.252 129.378 130.39 128.934 130.39 128.442C130.39 127.242 129.694 126.642 128.302 126.642C127.81 126.642 127.15 126.792 126.322 127.092L125.872 125.994ZM128.428 135.894C129.16 135.894 129.526 136.302 129.526 137.118C129.526 137.418 129.424 137.676 129.22 137.892C129.028 138.108 128.722 138.216 128.302 138.216C127.57 138.216 127.204 137.808 127.204 136.992C127.204 136.692 127.3 136.434 127.492 136.218C127.696 136.002 128.008 135.894 128.428 135.894Z" fill="#272F42"/>
</svg>
