<?xml version="1.0" encoding="UTF-8"?> <svg xmlns="http://www.w3.org/2000/svg" width="114" height="88" viewBox="0 0 114 88" fill="none"><path d="M92.3892 6.40707C96.5442 5.0755 100.708 3.77259 104.881 2.49837C106.713 1.91766 108.551 1.35275 110.393 0.803616C111.193 0.560668 111.996 0.257918 112.808 0.0633995C113.056 0.00413407 113.326 -0.0421543 113.57 0.0611254C113.761 0.142063 113.903 0.335111 113.965 0.528293C114.06 0.825556 113.947 1.1279 113.797 1.3853C113.357 2.1393 112.748 2.85891 112.251 3.58147L107.949 9.73062L97.3635 25.1281C90.1033 35.749 82.774 46.322 75.3756 56.8473L67.5027 68.0419C66.5725 69.3524 65.7035 70.7379 64.7376 72.0178C64.4589 72.387 64.1653 72.7431 63.698 72.8661C63.4594 72.9287 63.2987 72.9255 63.069 72.8369C62.0461 72.4426 61.0599 71.8182 60.0743 71.3332C58.0048 70.315 55.4971 69.1483 53.3226 68.38C52.1421 68.9128 50.9374 69.3884 49.7478 69.9001C46.4488 71.3397 43.1303 72.7331 39.7924 74.0803C35.9944 75.6291 32.2163 77.2074 28.3998 78.7137C23.7629 80.5793 19.1107 82.4063 14.4434 84.1947C12.1624 85.0461 9.86102 85.8236 7.55844 86.6131C6.71256 86.9031 3.50422 88.2307 2.77071 87.9651C2.55492 87.6933 2.52786 87.4397 2.57032 87.099C2.67547 86.2547 3.92964 83.3673 4.28889 82.2988C5.37159 79.0785 6.36134 75.7963 7.28505 72.5277C8.97093 66.562 10.0759 60.3287 10.8663 54.1835C11.1043 52.3335 11.2463 50.4781 11.4635 48.6277C8.77055 46.189 6.04781 43.7839 3.29526 41.4126C2.39057 40.6183 1.38608 39.8737 0.523587 39.0412C0.340211 38.8642 0.0102949 38.5897 0.000784566 38.3321C-0.00644867 38.1385 0.0354776 37.9929 0.162193 37.8411C0.325477 37.6458 0.647758 37.5384 0.880159 37.4504C3.5231 36.4493 6.24816 35.622 8.91749 34.6894L26.4129 28.6188L31.946 26.7652C32.6799 26.5122 33.4643 26.3009 34.1738 25.9902C35.8755 25.5026 37.5457 24.7909 39.2288 24.2318C44.4993 22.493 49.7526 20.7036 54.9886 18.8636C63.982 15.7683 73.0039 12.7586 82.0545 9.83443C85.5034 8.70879 88.9278 7.49137 92.3892 6.40707Z" fill="#272F42"></path><path d="M31.2249 62C33 62.3074 34.766 62.6599 36.5231 63.0573C38.2803 63.4547 40.0262 63.8966 41.7608 64.3829C43.4954 64.8692 45.2166 65.3994 46.9242 65.9734C48.6319 66.5474 50.3238 67.1645 52 67.8247C49.6267 68.9328 47.1802 69.914 44.7655 70.9307C37.9677 73.7557 31.1415 76.5105 24.287 79.1949C21.1815 80.4375 18.0655 81.6533 14.9389 82.8422C13.0069 83.5898 11.0105 84.5188 9 85C10.6033 83.5325 12.339 82.1738 13.9818 80.7456C15.7154 79.2385 17.394 77.6175 19.0228 75.9982C21.6168 73.4197 24.1439 70.7023 26.4903 67.8958C28.109 65.9602 29.6195 63.9427 31.2249 62Z" fill="#6883BA"></path><path d="M102.651 6.41625L108 4C107.321 4.62984 101.996 8.68458 101.253 9.24368L95.7227 13.4219C94.2508 14.5163 92.8199 15.6642 91.3484 16.7597C87.3225 19.7453 83.2658 22.6881 79.1783 25.588C70.4553 31.79 61.888 38.2199 53.2064 44.4807L38.2047 55.3451C35.9072 57.0169 33.5368 58.6071 31.2927 60.3498C30.1277 61.2545 29.3186 62.6049 28.4143 63.7603C27.139 65.3897 25.8484 67.0225 24.4775 68.5721C19.1909 74.5481 13.5637 79.9866 7.29938 84.9261L7.26702 84.8976C7.26702 84.8976 2.74982 86.6895 10.774 75.2795C12.0031 73.342 13.8265 70.5501 14.9867 68.5721C15.6622 67.4206 16.3637 66.2885 16.9964 65.112C18.6389 62.0581 20.4391 59.0334 22.1415 56.0166C24.8153 54.4726 28.0573 51.6764 30.6338 49.9759C32.1866 48.951 33.7665 47.9628 35.3291 46.9521L55.7761 33.4649C65.4544 27.3378 75.1688 21.269 84.9192 15.2585L102.651 6.41625Z" fill="#E78695"></path><path d="M100.817 5.00093L101 5C100.743 5.21373 99.9848 5.4179 99.6316 5.57538C97.2373 6.67147 94.8298 7.73807 92.4091 8.77517C91.1307 9.33768 89.8821 9.96573 88.6108 10.5439C85.8641 11.7704 83.1276 13.0189 80.4013 14.2896L36.7668 35.0817L21.8675 42.2354C18.5513 43.8412 15.2572 45.5324 11.877 47C10.2484 45.4424 8.50464 43.9985 6.80044 42.5241C6.019 41.8655 5.27281 41.1646 4.4931 40.5028C3.65963 39.7952 2.74432 39.1088 2 38.3073C3.04982 37.7707 4.30336 37.4558 5.42064 37.0647L13.0301 34.4327C22.1406 31.2592 31.2702 28.1416 40.419 25.0797C54.3976 20.2208 68.4198 15.4902 82.4853 10.8879L92.8037 7.48313C95.4511 6.60939 98.1182 5.69929 100.817 5.00093Z" fill="#F4FFEF"></path><path d="M101.947 6L102 6.01054C101.993 6.13875 100.732 6.85253 100.547 6.9634L90.0867 13.1031C83.3401 17.1212 76.6453 21.2245 70.0023 25.4131C58.8644 32.3597 47.7838 39.397 36.7604 46.5251L26.2505 53.259C25.4237 53.7902 22.853 55.2975 22.3175 55.8643C21.9255 56.2792 20.4085 59.6017 20.0409 60.3191C19.1991 61.9324 18.3378 63.5353 17.457 65.1276C15.4586 68.7585 13.3261 72.3082 11.0594 75.7768C9.47951 78.2266 7.85704 80.7044 6.04787 82.9916L6.03564 83L6 82.9609C6.49113 81.5591 6.96024 80.15 7.40731 78.7335C7.85438 77.3169 8.27925 75.8937 8.68191 74.4638C9.08448 73.034 9.46466 71.5981 9.82246 70.1562C10.1803 68.7143 10.5154 67.2672 10.8279 65.8148C11.1405 64.3624 11.4303 62.9055 11.6973 61.4439C11.9643 59.9825 12.2085 58.5171 12.4298 57.048C12.651 55.5788 12.8493 54.1065 13.0246 52.631C13.1998 51.1556 13.352 49.6778 13.4811 48.1976C17.059 46.4217 20.6523 44.6777 24.2609 42.9656L45.7234 32.6006L79.9888 16.1573C87.2887 12.7354 94.6819 9.49206 101.947 6Z" fill="#E78695"></path><path d="M110 4C109.977 4.38549 102.513 14.885 101.625 16.1627L77.4872 50.905L67.5673 64.9657C66.1502 66.9761 64.7021 68.9623 63.3241 71C61.0052 69.9717 58.7604 68.7594 56.4349 67.7325C53.9172 66.6271 51.363 65.6126 48.7723 64.689C46.1815 63.7654 43.5607 62.935 40.91 62.1979C39.378 61.7705 37.8335 61.3931 36.2765 61.0659C34.8527 60.7667 33.4161 60.5243 32 60.1898C32.9602 59.355 34.115 58.6574 35.1541 57.9169L41.4349 53.4263L61.9197 38.7192L90.1024 18.4662C96.7222 13.634 103.238 8.63434 110 4Z" fill="#F4FFEF"></path></svg> 