<?xml version="1.0" encoding="UTF-8"?> <svg xmlns="http://www.w3.org/2000/svg" width="119" height="112" viewBox="0 0 119 112" fill="none"><path d="M18.1915 44.7863C14.7093 45.6647 11.2333 46.567 7.76353 47.4932C6.23073 47.8851 4.7014 48.2901 3.17554 48.7083C2.5105 48.8871 1.81765 49.0252 1.16592 49.2426C0.967191 49.309 0.758307 49.3942 0.633053 49.5724C0.534659 49.7122 0.5195 49.9089 0.56026 50.0709C0.623027 50.32 0.833417 50.4822 1.05045 50.5965C1.6864 50.9315 2.42446 51.1695 3.08661 51.4577L8.7686 53.8808L22.8654 60.0297C32.5602 64.2891 42.2825 68.485 52.0323 72.6175L62.4049 77.0109C63.6251 77.5216 64.8353 78.1111 66.0672 78.5848C66.4225 78.7215 66.7826 78.8424 67.1626 78.7249C67.3566 78.6648 67.4674 78.5926 67.5894 78.4307C68.1323 77.7101 68.5495 76.8446 69.0269 76.0768C70.0294 74.4646 71.2734 72.5581 72.458 71.0748C73.5146 70.9332 74.5633 70.7411 75.617 70.5808C78.5483 70.1505 81.473 69.6794 84.3912 69.1676C87.7185 68.5964 91.0449 68.0545 94.3667 67.4455C98.418 66.7305 102.463 65.9819 106.502 65.1996C108.466 64.8015 110.412 64.343 112.365 63.8922C113.082 63.7266 115.901 63.2575 116.298 62.7527C116.33 62.4689 116.239 62.28 116.061 62.0605C115.62 61.5164 113.487 60.0452 112.771 59.4551C110.613 57.6768 108.493 55.8147 106.425 53.9334C102.65 50.4997 99.1649 46.6262 95.9379 42.6773C94.9664 41.4885 94.0596 40.2541 93.1025 39.056C93.9222 36.1802 94.7774 33.3149 95.6681 30.4602C95.9543 29.5116 96.3319 28.5542 96.5721 27.5972C96.6232 27.3937 96.7341 27.0583 96.6287 26.8743C96.5495 26.7359 96.4568 26.6524 96.3022 26.6016C96.1031 26.5362 95.8312 26.6014 95.6306 26.6411C93.3485 27.0921 91.0847 27.7003 88.814 28.2107L73.9496 31.5852L69.2775 32.6988C68.6547 32.8415 68.0147 33.0353 67.3839 33.1271C65.9828 33.5271 64.5063 33.7569 63.0871 34.099C58.6484 35.1784 54.1997 36.215 49.7409 37.2088C42.111 38.961 34.4984 40.7854 26.903 42.6822C24.0037 43.3971 21.0816 44.0371 18.1915 44.7863Z" fill="#272F42"></path><path d="M85.1181 56.9993C84.0119 57.9867 82.9316 59.0016 81.8771 60.0441C80.8225 61.0866 79.7952 62.1552 78.7951 63.25C77.795 64.3448 76.8234 65.4643 75.8803 66.6086C74.9373 67.7529 74.0239 68.9204 73.1403 70.1113C75.2806 69.8523 77.4168 69.4729 79.5462 69.132C85.5247 68.1466 91.4924 67.0998 97.4493 65.9915C100.16 65.5078 102.866 65.0008 105.567 64.4704C107.242 64.1518 109.041 63.9318 110.655 63.3928C108.897 63.0655 107.093 62.8719 105.323 62.5892C103.456 62.2909 101.578 61.8892 99.7353 61.467C96.8008 60.7948 93.8527 59.9964 90.9919 59.0572C89.0186 58.4096 87.0853 57.6577 85.1181 56.9993Z" fill="#6883BA"></path><path d="M11.0271 49.2592L6.23829 49.8998C6.98658 50.0443 12.4717 50.5589 13.2338 50.6263L18.9161 51.1377C20.4208 51.2616 21.92 51.4407 23.4248 51.5655C27.5367 51.8988 31.6516 52.1888 35.7693 52.4354C44.5627 52.9711 53.3464 53.7338 62.1364 54.3286L77.3454 55.3884C79.678 55.5563 82.0261 55.6353 84.3524 55.876C85.56 56.0009 86.713 56.5921 87.8477 57.0056C89.4479 57.5888 91.0601 58.1677 92.6923 58.6535C98.9867 60.5271 105.285 61.877 111.811 62.6009L111.821 62.5669C111.821 62.5669 115.757 61.8525 105.185 57.3743C103.483 56.5559 100.994 55.3991 99.3225 54.5223C98.3494 54.012 97.3664 53.5265 96.4124 52.98C93.9357 51.5615 91.3615 50.2321 88.8591 48.8656C86.3192 48.9508 82.8372 48.4087 80.2972 48.3422C78.7663 48.3021 77.2324 48.2994 75.7009 48.2736L55.5463 47.7517C46.1183 47.6841 36.6904 47.673 27.2627 47.7183L11.0271 49.2592Z" fill="#273042"></path><path d="M11.6918 47.4726L11.5638 47.5515C11.8361 47.589 12.4549 47.4015 12.7701 47.3578C14.9199 47.0813 17.066 46.7785 19.2084 46.4493C20.3464 46.2858 21.492 46.1811 22.6318 46.0316C25.0844 45.6928 27.5396 45.3739 29.9972 45.0749L69.5298 40.6069L83.0521 39.1191C86.0677 38.7974 89.105 38.545 92.1052 38.0989C92.5649 36.3019 93.1546 34.5343 93.7033 32.7624C93.9625 31.9622 94.1787 31.1478 94.4353 30.346C94.7096 29.489 95.0503 28.6111 95.2213 27.7271C94.2544 27.8093 93.2416 28.1349 92.2909 28.348L85.8294 29.8215C78.0836 31.5702 70.3488 33.3661 62.6248 35.2094C50.7446 37.8996 38.8899 40.6984 27.0607 43.6057L18.3704 45.7185C16.1407 46.2604 13.8813 46.7856 11.6918 47.4726Z" fill="#F4FFEF"></path><path d="M11.3373 48.6623L11.3051 48.6926C11.3659 48.7791 12.5576 48.7288 12.7352 48.7256L22.7147 48.4618C29.1768 48.3322 35.6397 48.2846 42.1036 48.3192C52.908 48.3239 63.7119 48.4169 74.5153 48.5982L84.7885 48.7278C85.5973 48.739 88.0492 48.673 88.67 48.8358C89.1245 48.955 91.6305 50.6158 92.1995 50.9569C93.4898 51.7176 94.7892 52.4624 96.0976 53.1913C99.0741 54.858 102.109 56.4095 105.202 57.846C107.372 58.8697 109.584 59.8944 111.844 60.7047L111.856 60.7053L111.864 60.6625C110.91 59.897 109.969 59.1168 109.04 58.3218C108.112 57.5268 107.195 56.7175 106.292 55.8939C105.388 55.0703 104.497 54.2327 103.62 53.3811C102.742 52.5296 101.878 51.6645 101.028 50.786C100.177 49.9074 99.3405 49.0157 98.5178 48.111C97.6951 47.2062 96.8868 46.2889 96.0927 45.3588C95.2986 44.4288 94.5192 43.4866 93.7546 42.5322C92.9899 41.5777 92.2404 40.6116 91.5059 39.6337C88.2334 39.9505 84.9641 40.2962 81.698 40.6709L62.1929 42.7722L31.0984 46.2001C24.5093 46.9871 17.9328 47.9394 11.3373 48.6623Z" fill="#273042"></path><path d="M4.8412 50.7703C5.02536 51.0294 14.8094 55.1155 15.9862 55.6213L47.9707 69.3853L61.0208 74.89C62.8859 75.6776 64.762 76.4349 66.6116 77.2585C67.784 75.5308 68.8245 73.7068 70.002 71.9772C71.2797 70.1091 72.6225 68.2886 74.0303 66.5157C75.4381 64.7428 76.9075 63.022 78.4384 61.3532C79.3226 60.3878 80.2373 59.4519 81.1825 58.5456C82.047 57.7169 82.9451 56.9222 83.7887 56.0721C82.7545 55.9068 81.6442 55.9222 80.596 55.8572L74.2536 55.454L53.5417 54.0964L25.0381 52.2152C18.3103 51.7209 11.5823 51.0644 4.8412 50.7703Z" fill="#F4FFEF"></path></svg> 