<?xml version="1.0" encoding="UTF-8"?> <svg xmlns="http://www.w3.org/2000/svg" width="134" height="103" viewBox="0 0 134 103" fill="none"><path d="M25.4022 7.49919C20.5183 5.94064 15.6238 4.41565 10.7187 2.92422C8.56494 2.24454 6.40543 1.58333 4.24019 0.940596C3.29912 0.656236 2.35506 0.301882 1.40092 0.0742062C1.10995 0.00483874 0.792389 -0.0493396 0.505997 0.0715445C0.281158 0.166279 0.114258 0.392233 0.0413666 0.618342C-0.0707397 0.966276 0.0618286 1.32016 0.23848 1.62143C0.756332 2.50395 1.47115 3.34622 2.05606 4.19194L7.11301 11.3892L19.5552 29.4113C28.0891 41.8426 36.7043 54.2178 45.4006 66.5372L54.6548 79.6399C55.7481 81.1739 56.7696 82.7955 57.905 84.2935C58.2325 84.7257 58.5776 85.1425 59.1269 85.2864C59.4073 85.3597 59.5963 85.3559 59.8663 85.2523C61.0686 84.7908 62.2279 84.0599 63.3864 83.4923C65.819 82.3005 68.7666 80.9349 71.3226 80.0356C72.7102 80.6593 74.1263 81.216 75.5246 81.8149C79.4023 83.4999 83.3029 85.1308 87.2265 86.7076C91.6908 88.5204 96.1317 90.3678 100.618 92.1308C106.068 94.3144 111.537 96.4529 117.023 98.5461C119.704 99.5426 122.409 100.453 125.116 101.377C126.11 101.716 129.881 103.27 130.743 102.959C130.997 102.641 131.029 102.344 130.979 101.945C130.855 100.957 129.381 97.5776 128.959 96.327C127.686 92.5578 126.523 88.7161 125.437 84.8904C123.455 77.9078 122.156 70.612 121.227 63.4194C120.948 61.254 120.781 59.0823 120.525 56.9165C123.691 54.0621 126.891 51.2471 130.127 48.4716C131.19 47.5419 132.371 46.6703 133.385 45.6959C133.6 45.4888 133.988 45.1674 133.999 44.866C134.008 44.6394 133.958 44.4689 133.809 44.2913C133.617 44.0627 133.239 43.937 132.965 43.834C129.859 42.6622 126.656 41.6939 123.518 40.6023L102.953 33.497L96.4495 31.3275C95.5868 31.0314 94.6648 30.784 93.8308 30.4204C91.8306 29.8496 89.8673 29.0166 87.889 28.3622C81.6938 26.327 75.5189 24.2326 69.3642 22.079C58.7931 18.4561 48.1884 14.9333 37.55 11.5108C33.496 10.1932 29.4709 8.76831 25.4022 7.49919Z" fill="#272F42"></path><path d="M97.1571 72C95.0931 72.3609 93.0395 72.7746 90.9964 73.2412C88.9531 73.7077 86.923 74.2264 84.906 74.7973C82.889 75.3682 80.8877 75.9906 78.9021 76.6644C76.9164 77.3383 74.9491 78.0627 73 78.8377C75.7597 80.1385 78.6044 81.2904 81.4122 82.4838C89.3166 85.8002 97.254 89.034 105.224 92.1853C108.835 93.6441 112.459 95.0713 116.094 96.4669C118.341 97.3446 120.662 98.4351 123 99C121.136 97.2773 119.117 95.6823 117.207 94.0057C115.191 92.2365 113.24 90.3335 111.346 88.4327C108.329 85.4057 105.391 82.2157 102.662 78.9212C100.78 76.649 99.0239 74.2806 97.1571 72Z" fill="#6883BA"></path><path d="M13.2934 6.83388L7 4C7.79848 4.7387 14.0636 9.49426 14.9371 10.15L21.4439 15.0504C23.1756 16.334 24.8589 17.6802 26.5901 18.9651C31.3264 22.4667 36.099 25.9181 40.9078 29.3193C51.1703 36.5932 61.2494 44.1345 71.4631 51.4774L89.1121 64.2196C91.815 66.1803 94.6038 68.0453 97.2439 70.0893C98.6145 71.1503 99.5663 72.7341 100.63 74.0892C102.131 76.0003 103.649 77.9152 105.262 79.7327C111.481 86.7417 118.102 93.1201 125.471 98.9133L125.509 98.8799C125.509 98.8799 130.824 100.982 121.384 87.5994C119.937 85.3271 117.792 82.0525 116.427 79.7327C115.633 78.3822 114.807 77.0544 114.063 75.6746C112.131 72.0929 110.013 68.5453 108.01 65.0071C104.864 63.1962 101.05 59.9168 98.0191 57.9224C96.1923 56.7203 94.3335 55.5613 92.4952 54.3759L68.4399 38.5576C57.0536 31.3715 45.6249 24.2538 34.1539 17.2044L13.2934 6.83388Z" fill="#F2AF29"></path><path d="M15.2159 5.00111L15 5C15.3033 5.25444 16.1998 5.4975 16.6172 5.68497C19.4468 6.98985 22.292 8.25961 25.1528 9.49425C26.6637 10.1639 28.1393 10.9116 29.6418 11.5999C32.8879 13.0599 36.1219 14.5463 39.344 16.0591L90.9119 40.8116L108.52 49.3279C112.439 51.2395 116.332 53.2529 120.327 55C122.252 53.1457 124.313 51.4268 126.327 49.6715C127.25 48.8875 128.132 48.0531 129.054 47.2652C130.039 46.4229 131.12 45.6057 132 44.6515C130.759 44.0128 129.278 43.6379 127.957 43.1723L118.964 40.0389C108.197 36.261 97.4079 32.5495 86.5958 28.9044C70.0755 23.12 53.5039 17.4883 36.881 12.0094L24.6866 7.95611C21.5578 6.91593 18.4057 5.83249 15.2159 5.00111Z" fill="white"></path><path d="M14.062 7L14 7.01232C14.0084 7.16218 15.4928 7.99647 15.7108 8.12606L28.0229 15.3024C35.9642 19.9988 43.8446 24.7949 51.6639 29.6907C64.7742 37.8101 77.817 46.0355 90.7924 54.367L103.164 62.2378C104.137 62.8586 107.163 64.6205 107.793 65.2829C108.254 65.7679 110.04 69.6513 110.473 70.4898C111.464 72.3756 112.477 74.249 113.514 76.1101C115.866 80.3541 118.377 84.5031 121.045 88.5573C122.904 91.4207 124.814 94.3169 126.944 96.9902L126.958 97L127 96.9543C126.422 95.3159 125.87 93.6688 125.343 92.0131C124.817 90.3574 124.317 88.6939 123.843 87.0227C123.369 85.3514 122.922 83.6731 122.501 81.9878C122.079 80.3024 121.685 78.611 121.317 76.9134C120.949 75.2158 120.608 73.5129 120.294 71.8046C119.979 70.0964 119.692 68.3837 119.432 66.6664C119.171 64.9492 118.938 63.2283 118.731 61.5038C118.525 59.7793 118.346 58.052 118.194 56.3219C113.983 54.2462 109.753 52.2077 105.505 50.2066L80.2422 38.0916L39.9091 18.8722C31.3164 14.8726 22.614 11.0816 14.062 7Z" fill="#F2AF29"></path><path d="M5 4C5.02733 4.45453 13.7348 16.8345 14.7713 18.3411L42.9316 59.3059L54.5048 75.885C56.1581 78.2554 57.8475 80.5974 59.4552 83C62.1606 81.7876 64.7795 80.3581 67.4926 79.1472C70.4299 77.8439 73.4098 76.6477 76.4324 75.5587C79.4549 74.4696 82.5125 73.4905 85.605 72.6214C87.3924 72.1174 89.1943 71.6725 91.0107 71.2867C92.6718 70.9339 94.3479 70.6481 96 70.2536C94.8798 69.2693 93.5325 68.4468 92.3202 67.5736L84.9926 62.2787L61.0937 44.9375L28.2138 21.0571C20.4908 15.3595 12.8892 9.46438 5 4Z" fill="white"></path></svg> 